<svg xmlns="http://www.w3.org/2000/svg" xmlns:xlink="http://www.w3.org/1999/xlink" width="95" zoomAndPan="magnify" viewBox="0 0 71.25 37.5" height="50" preserveAspectRatio="xMidYMid meet" version="1.0"><defs><clipPath id="f8591e4e2e"><path d="M 16.4375 0 L 36 0 L 36 22 L 16.4375 22 Z M 16.4375 0 " clip-rule="nonzero"/></clipPath><clipPath id="dc7c4a980f"><path d="M 16.4375 0 L 36 0 L 36 23 L 16.4375 23 Z M 16.4375 0 " clip-rule="nonzero"/></clipPath><clipPath id="dd9a767de8"><path d="M 32 9 L 54 9 L 54 37.007812 L 32 37.007812 Z M 32 9 " clip-rule="nonzero"/></clipPath><clipPath id="abb94af8ae"><path d="M 31 9 L 54.183594 9 L 54.183594 37.007812 L 31 37.007812 Z M 31 9 " clip-rule="nonzero"/></clipPath></defs><g clip-path="url(#f8591e4e2e)"><path fill="#1b1b1b" d="M 31.671875 0.378906 L 20.167969 0.378906 C 18.320312 0.378906 16.828125 1.875 16.828125 3.71875 L 16.828125 14.640625 C 16.828125 16.488281 18.320312 17.980469 20.167969 17.980469 L 20.660156 17.980469 C 20.679688 18.171875 21 20.582031 24.375 21.726562 C 24.375 21.726562 23.574219 20.089844 23.628906 17.980469 L 31.671875 17.980469 C 33.515625 17.980469 35.011719 16.488281 35.011719 14.640625 L 35.011719 3.71875 C 35.011719 1.875 33.515625 0.378906 31.671875 0.378906 Z M 31.671875 0.378906 " fill-opacity="1" fill-rule="nonzero"/></g><g clip-path="url(#dc7c4a980f)"><path fill="#ffffff" d="M 24.375 22.105469 C 24.335938 22.105469 24.292969 22.101562 24.253906 22.085938 C 21.308594 21.085938 20.542969 19.160156 20.347656 18.359375 L 20.167969 18.359375 C 18.117188 18.359375 16.449219 16.691406 16.449219 14.640625 L 16.449219 3.71875 C 16.449219 1.667969 18.117188 0 20.167969 0 L 31.671875 0 C 33.722656 0 35.390625 1.667969 35.390625 3.71875 L 35.390625 14.640625 C 35.390625 16.691406 33.722656 18.359375 31.671875 18.359375 L 24.003906 18.359375 C 24.046875 20.171875 24.707031 21.546875 24.714844 21.5625 C 24.78125 21.699219 24.761719 21.863281 24.660156 21.976562 C 24.585938 22.0625 24.484375 22.105469 24.375 22.105469 Z M 20.167969 0.757812 C 18.535156 0.757812 17.203125 2.085938 17.203125 3.71875 L 17.203125 14.640625 C 17.203125 16.273438 18.535156 17.605469 20.167969 17.605469 L 20.660156 17.605469 C 20.855469 17.605469 21.015625 17.75 21.035156 17.941406 C 21.046875 18.03125 21.273438 19.902344 23.710938 21.054688 C 23.480469 20.34375 23.21875 19.242188 23.25 17.972656 C 23.253906 17.765625 23.421875 17.605469 23.628906 17.605469 L 31.671875 17.605469 C 33.304688 17.605469 34.632812 16.273438 34.632812 14.640625 L 34.632812 3.71875 C 34.632812 2.085938 33.304688 0.757812 31.671875 0.757812 Z M 20.167969 0.757812 " fill-opacity="1" fill-rule="nonzero"/></g><path fill="#ffffff" d="M 27.34375 14.328125 C 27.324219 14.328125 27.304688 14.324219 27.285156 14.320312 C 27.078125 14.289062 26.9375 14.097656 26.96875 13.890625 L 28.453125 4.316406 C 28.484375 4.109375 28.679688 3.96875 28.882812 4 C 29.089844 4.03125 29.230469 4.222656 29.199219 4.429688 L 27.71875 14.007812 C 27.6875 14.191406 27.527344 14.328125 27.34375 14.328125 Z M 27.34375 14.328125 " fill-opacity="1" fill-rule="nonzero"/><path fill="#ffffff" d="M 23.011719 14.328125 C 22.992188 14.328125 22.972656 14.324219 22.953125 14.320312 C 22.746094 14.289062 22.605469 14.097656 22.636719 13.890625 L 24.121094 4.316406 C 24.152344 4.109375 24.347656 3.96875 24.550781 4 C 24.757812 4.03125 24.898438 4.222656 24.867188 4.429688 L 23.386719 14.007812 C 23.355469 14.191406 23.195312 14.328125 23.011719 14.328125 Z M 23.011719 14.328125 " fill-opacity="1" fill-rule="nonzero"/><path fill="#ffffff" d="M 31.042969 7.371094 L 21.464844 7.371094 C 21.257812 7.371094 21.089844 7.203125 21.089844 6.996094 C 21.089844 6.785156 21.257812 6.617188 21.464844 6.617188 L 31.042969 6.617188 C 31.25 6.617188 31.421875 6.785156 31.421875 6.996094 C 31.421875 7.203125 31.25 7.371094 31.042969 7.371094 Z M 31.042969 7.371094 " fill-opacity="1" fill-rule="nonzero"/><path fill="#ffffff" d="M 30.371094 11.703125 L 20.796875 11.703125 C 20.585938 11.703125 20.417969 11.535156 20.417969 11.328125 C 20.417969 11.117188 20.585938 10.949219 20.796875 10.949219 L 30.371094 10.949219 C 30.582031 10.949219 30.75 11.117188 30.75 11.328125 C 30.75 11.535156 30.582031 11.703125 30.371094 11.703125 Z M 30.371094 11.703125 " fill-opacity="1" fill-rule="nonzero"/><g clip-path="url(#dd9a767de8)"><path fill="#ff9459" d="M 50.644531 9.445312 L 35.207031 9.445312 C 33.464844 9.445312 32.054688 10.859375 32.054688 12.601562 L 32.054688 29.914062 C 32.054688 31.65625 33.464844 33.070312 35.207031 33.070312 L 44.636719 33.070312 C 44.722656 35.480469 43.796875 37.367188 43.796875 37.367188 C 47.757812 36.023438 47.980469 33.132812 47.980469 33.132812 L 47.890625 33.070312 L 50.644531 33.070312 C 52.386719 33.070312 53.796875 31.65625 53.796875 29.914062 L 53.796875 12.601562 C 53.796875 10.859375 52.386719 9.445312 50.644531 9.445312 Z M 50.644531 9.445312 " fill-opacity="1" fill-rule="nonzero"/></g><g clip-path="url(#abb94af8ae)"><path fill="#ffffff" d="M 43.796875 37.746094 C 43.691406 37.746094 43.589844 37.703125 43.515625 37.617188 C 43.414062 37.503906 43.390625 37.339844 43.457031 37.203125 C 43.46875 37.183594 44.25 35.554688 44.265625 33.449219 L 35.207031 33.449219 C 33.257812 33.449219 31.675781 31.863281 31.675781 29.914062 L 31.675781 12.601562 C 31.675781 10.652344 33.257812 9.066406 35.207031 9.066406 L 50.640625 9.066406 C 52.589844 9.066406 54.175781 10.652344 54.175781 12.601562 L 54.175781 29.914062 C 54.175781 31.863281 52.589844 33.449219 50.640625 33.449219 L 48.3125 33.449219 C 48.144531 34.257812 47.375 36.554688 43.921875 37.726562 C 43.878906 37.738281 43.839844 37.746094 43.796875 37.746094 Z M 35.207031 9.824219 C 33.675781 9.824219 32.429688 11.070312 32.429688 12.601562 L 32.429688 29.914062 C 32.429688 31.445312 33.675781 32.691406 35.207031 32.691406 L 44.636719 32.691406 C 44.84375 32.691406 45.007812 32.851562 45.015625 33.054688 C 45.070312 34.582031 44.738281 35.894531 44.46875 36.699219 C 46.925781 35.585938 47.464844 33.847656 47.578125 33.28125 C 47.515625 33.191406 47.492188 33.070312 47.527344 32.960938 C 47.574219 32.800781 47.722656 32.691406 47.890625 32.691406 L 50.640625 32.691406 C 52.171875 32.691406 53.417969 31.445312 53.417969 29.914062 L 53.417969 12.601562 C 53.417969 11.070312 52.171875 9.824219 50.640625 9.824219 Z M 35.207031 9.824219 " fill-opacity="1" fill-rule="nonzero"/></g><path fill="#ffffff" d="M 43.160156 17.257812 C 43.441406 16.976562 43.675781 16.722656 43.929688 16.488281 C 45.316406 15.214844 47.25 14.945312 48.722656 15.8125 C 50.253906 16.714844 51.035156 18.648438 50.597656 20.496094 C 50.269531 21.894531 49.492188 23.046875 48.578125 24.125 C 47.0625 25.910156 45.238281 27.347656 43.351562 28.714844 C 43.269531 28.777344 43.074219 28.796875 43 28.742188 C 40.703125 27.070312 38.464844 25.324219 36.835938 22.941406 C 36.148438 21.933594 35.632812 20.851562 35.589844 19.605469 C 35.53125 17.867188 36.503906 16.261719 37.988281 15.613281 C 39.453125 14.972656 41.238281 15.359375 42.492188 16.59375 C 42.710938 16.808594 42.921875 17.019531 43.160156 17.257812 Z M 43.160156 17.257812 " fill-opacity="1" fill-rule="nonzero"/><path fill="#ffffff" d="M 43.136719 29.152344 C 43.003906 29.152344 42.878906 29.121094 42.777344 29.046875 C 40.539062 27.417969 38.207031 25.617188 36.523438 23.152344 C 35.667969 21.90625 35.253906 20.78125 35.210938 19.617188 C 35.148438 17.730469 36.203125 15.980469 37.835938 15.265625 C 39.453125 14.5625 41.386719 14.976562 42.757812 16.324219 L 43.15625 16.71875 C 43.332031 16.539062 43.5 16.371094 43.671875 16.210938 C 45.1875 14.820312 47.292969 14.53125 48.914062 15.488281 C 50.597656 16.480469 51.441406 18.574219 50.96875 20.585938 C 50.589844 22.191406 49.644531 23.449219 48.867188 24.367188 C 47.296875 26.222656 45.394531 27.699219 43.574219 29.019531 C 43.464844 29.101562 43.296875 29.152344 43.136719 29.152344 Z M 43.222656 28.4375 Z M 39.476562 15.683594 C 39.015625 15.683594 38.5625 15.773438 38.136719 15.960938 C 36.785156 16.550781 35.914062 18.011719 35.96875 19.589844 C 36.003906 20.605469 36.378906 21.601562 37.144531 22.726562 C 38.746094 25.0625 40.984375 26.804688 43.148438 28.382812 C 44.925781 27.105469 46.777344 25.664062 48.292969 23.878906 C 49.015625 23.023438 49.890625 21.859375 50.230469 20.410156 C 50.628906 18.722656 49.929688 16.964844 48.53125 16.136719 C 47.195312 15.351562 45.449219 15.605469 44.183594 16.769531 C 44.019531 16.921875 43.859375 17.082031 43.691406 17.257812 C 43.605469 17.34375 43.519531 17.433594 43.429688 17.523438 C 43.28125 17.671875 43.042969 17.671875 42.894531 17.523438 L 42.230469 16.867188 C 41.445312 16.09375 40.449219 15.683594 39.476562 15.683594 Z M 39.476562 15.683594 " fill-opacity="1" fill-rule="nonzero"/></svg>