<svg xmlns="http://www.w3.org/2000/svg" xmlns:xlink="http://www.w3.org/1999/xlink" width="95" zoomAndPan="magnify" viewBox="0 0 71.25 37.5" height="50" preserveAspectRatio="xMidYMid meet" version="1.0"><defs><clipPath id="3280f861cd"><path d="M 31 8 L 63.78125 8 L 63.78125 31.824219 L 31 31.824219 Z M 31 8 " clip-rule="nonzero"/></clipPath><clipPath id="d19bb5bc97"><path d="M 6.789062 9 L 32 9 L 32 27 L 6.789062 27 Z M 6.789062 9 " clip-rule="nonzero"/></clipPath><clipPath id="66c7b9e31d"><path d="M 31 3.699219 L 55 3.699219 L 55 24 L 31 24 Z M 31 3.699219 " clip-rule="nonzero"/></clipPath></defs><g clip-path="url(#3280f861cd)"><path fill="#ff9459" d="M 32.230469 13.375 C 31.957031 13.902344 31.699219 14.53125 31.542969 15.054688 C 31.472656 15.277344 31.398438 15.566406 31.367188 15.703125 C 31.183594 16.53125 31.113281 17.203125 31.125 18.035156 C 31.128906 18.347656 31.167969 18.867188 31.214844 19.203125 C 31.304688 19.847656 31.488281 20.585938 31.703125 21.171875 C 32.054688 22.128906 32.519531 22.988281 33.117188 23.769531 C 33.792969 24.652344 34.570312 25.371094 35.539062 26.007812 C 35.714844 26.125 36.292969 26.453125 36.472656 26.542969 C 37.304688 26.949219 38.046875 27.203125 38.898438 27.375 C 40.015625 27.601562 41.152344 27.628906 42.296875 27.453125 C 43.039062 27.34375 43.855469 27.117188 44.539062 26.832031 C 45.1875 26.5625 45.71875 26.28125 46.292969 25.894531 C 46.917969 25.472656 47.472656 25 47.980469 24.445312 C 48.308594 24.09375 48.632812 23.679688 48.894531 23.292969 L 48.9375 23.226562 L 49.535156 23.566406 L 50.132812 23.910156 L 50.027344 24.089844 C 49.949219 24.226562 49.921875 24.28125 49.910156 24.316406 C 49.863281 24.480469 49.90625 24.664062 50.019531 24.792969 C 50.0625 24.84375 50.066406 24.84375 50.292969 24.976562 C 50.417969 25.050781 53.128906 26.605469 56.320312 28.4375 C 61.398438 31.351562 62.125 31.769531 62.175781 31.785156 C 62.242188 31.808594 62.355469 31.816406 62.425781 31.800781 C 62.488281 31.789062 62.5625 31.757812 62.621094 31.714844 C 62.71875 31.648438 62.699219 31.679688 63.253906 30.714844 L 63.757812 29.832031 L 63.765625 29.773438 C 63.777344 29.6875 63.773438 29.621094 63.753906 29.539062 C 63.730469 29.460938 63.703125 29.414062 63.648438 29.347656 L 63.613281 29.304688 L 62.484375 28.652344 C 61.863281 28.292969 59.136719 26.726562 56.425781 25.171875 L 51.492188 22.34375 L 51.4375 22.335938 C 51.28125 22.304688 51.125 22.347656 51 22.453125 C 50.953125 22.492188 50.949219 22.496094 50.835938 22.6875 L 50.722656 22.878906 L 50.660156 22.839844 C 50.628906 22.816406 50.359375 22.660156 50.066406 22.492188 L 49.535156 22.1875 L 49.601562 22.058594 C 49.671875 21.910156 49.757812 21.722656 49.851562 21.488281 C 49.917969 21.328125 49.933594 21.28125 50.015625 21.050781 C 50.242188 20.40625 50.410156 19.660156 50.488281 18.945312 C 50.507812 18.777344 50.539062 18.339844 50.542969 18.195312 C 50.546875 18.023438 50.546875 17.96875 50.546875 17.863281 C 50.539062 16.316406 50.164062 14.792969 49.453125 13.425781 C 49.175781 12.886719 48.839844 12.363281 48.464844 11.890625 C 47.867188 11.128906 47.148438 10.453125 46.355469 9.910156 C 45.914062 9.609375 45.429688 9.332031 44.957031 9.109375 C 43.21875 8.296875 41.273438 8.019531 39.367188 8.3125 C 38.214844 8.492188 37.09375 8.875 36.085938 9.4375 C 35.257812 9.898438 34.5625 10.429688 33.878906 11.121094 C 33.726562 11.273438 33.488281 11.535156 33.328125 11.734375 C 33.21875 11.867188 33.167969 11.929688 33.007812 12.140625 C 32.796875 12.417969 32.417969 13.019531 32.230469 13.375 Z M 34.882812 13.839844 C 35.316406 13.207031 35.800781 12.691406 36.394531 12.226562 C 37.09375 11.675781 37.886719 11.261719 38.75 11.003906 C 38.910156 10.953125 38.921875 10.949219 39.101562 10.90625 C 39.539062 10.800781 39.914062 10.742188 40.359375 10.710938 C 41.550781 10.632812 42.734375 10.851562 43.832031 11.355469 C 44.140625 11.496094 44.605469 11.753906 44.851562 11.921875 C 45.578125 12.417969 46.140625 12.953125 46.640625 13.625 C 47.480469 14.757812 47.976562 16.15625 48.035156 17.570312 C 48.085938 18.789062 47.828125 19.988281 47.28125 21.085938 C 47.207031 21.234375 46.949219 21.683594 46.867188 21.804688 C 46.734375 22.003906 46.597656 22.199219 46.503906 22.316406 C 46.476562 22.347656 46.429688 22.40625 46.402344 22.441406 C 46.039062 22.894531 45.507812 23.390625 45 23.746094 C 44.703125 23.957031 44.425781 24.125 44.089844 24.296875 C 42.277344 25.21875 40.128906 25.320312 38.226562 24.578125 C 37.855469 24.433594 37.660156 24.339844 37.25 24.101562 C 36.84375 23.871094 36.691406 23.769531 36.375 23.523438 C 34.945312 22.40625 33.992188 20.78125 33.710938 18.984375 C 33.597656 18.246094 33.597656 17.492188 33.71875 16.75 C 33.832031 16.054688 34.058594 15.347656 34.367188 14.730469 C 34.40625 14.652344 34.445312 14.574219 34.457031 14.550781 C 34.507812 14.449219 34.796875 13.964844 34.882812 13.839844 Z M 34.882812 13.839844 " fill-opacity="1" fill-rule="nonzero"/></g><g clip-path="url(#d19bb5bc97)"><path fill="#1b1b1b" d="M 12.183594 9.824219 C 11.636719 9.835938 11.453125 9.851562 11.339844 9.898438 C 11.265625 9.925781 11.101562 9.964844 10.976562 9.984375 C 10.855469 10 10.675781 10.039062 10.578125 10.0625 C 10.171875 10.179688 9.671875 10.34375 9.609375 10.378906 C 9.574219 10.402344 9.453125 10.457031 9.34375 10.503906 C 9.234375 10.546875 9.105469 10.609375 9.058594 10.640625 C 9.011719 10.671875 8.851562 10.78125 8.703125 10.878906 C 8.054688 11.296875 7.429688 12.050781 7.179688 12.71875 C 7.144531 12.824219 7.089844 12.953125 7.066406 13.007812 C 7.042969 13.066406 7.015625 13.164062 7.003906 13.230469 C 6.992188 13.300781 6.957031 13.449219 6.921875 13.574219 C 6.84375 13.886719 6.789062 14.816406 6.832031 15.242188 C 6.886719 15.792969 6.921875 16.046875 6.972656 16.175781 C 6.996094 16.246094 7.054688 16.421875 7.097656 16.570312 C 7.21875 16.972656 7.664062 17.675781 7.957031 17.925781 C 7.988281 17.953125 8.09375 18.046875 8.195312 18.128906 C 8.53125 18.421875 9.175781 18.804688 9.5625 18.941406 C 9.675781 18.984375 9.796875 19.035156 9.832031 19.058594 C 9.867188 19.078125 9.953125 19.109375 10.023438 19.128906 C 10.09375 19.144531 10.253906 19.191406 10.371094 19.230469 C 10.855469 19.378906 12.261719 19.707031 12.753906 19.785156 C 12.824219 19.792969 12.972656 19.828125 13.089844 19.859375 C 13.203125 19.894531 13.453125 19.949219 13.644531 19.988281 C 13.835938 20.027344 14.050781 20.082031 14.121094 20.113281 C 14.191406 20.148438 14.320312 20.191406 14.40625 20.210938 C 14.621094 20.257812 15.109375 20.496094 15.269531 20.632812 C 15.453125 20.796875 15.605469 21.011719 15.710938 21.269531 C 15.792969 21.472656 15.804688 21.527344 15.804688 21.871094 C 15.804688 22.21875 15.792969 22.269531 15.710938 22.480469 C 15.480469 23.054688 14.960938 23.445312 14.199219 23.628906 C 14.140625 23.644531 13.945312 23.679688 13.769531 23.714844 C 13.203125 23.820312 11.773438 23.78125 11.101562 23.644531 C 10.984375 23.625 10.816406 23.59375 10.738281 23.582031 C 10.660156 23.570312 10.503906 23.535156 10.386719 23.503906 C 10.273438 23.46875 10.054688 23.410156 9.894531 23.375 C 9.742188 23.335938 9.542969 23.269531 9.460938 23.226562 C 9.378906 23.191406 9.289062 23.15625 9.265625 23.15625 C 9.199219 23.15625 8.738281 23.003906 8.6875 22.964844 C 8.667969 22.949219 8.558594 22.90625 8.449219 22.867188 C 8.238281 22.800781 8.195312 22.78125 7.539062 22.472656 C 7.296875 22.355469 7.132812 22.300781 7.097656 22.3125 C 7.046875 22.332031 7.042969 22.386719 7.0625 23.070312 C 7.074219 23.476562 7.085938 24.191406 7.085938 24.664062 C 7.085938 25.65625 7.074219 25.617188 7.402344 25.707031 C 7.5 25.734375 7.628906 25.777344 7.6875 25.800781 C 7.75 25.824219 7.855469 25.859375 7.925781 25.878906 C 7.996094 25.894531 8.164062 25.9375 8.292969 25.976562 C 8.421875 26.011719 8.617188 26.0625 8.722656 26.085938 C 8.824219 26.113281 9.003906 26.160156 9.117188 26.195312 C 9.234375 26.230469 9.417969 26.273438 9.53125 26.289062 C 9.644531 26.308594 9.792969 26.335938 9.863281 26.355469 C 9.933594 26.371094 10.042969 26.386719 10.101562 26.386719 C 10.164062 26.386719 10.316406 26.421875 10.4375 26.464844 C 10.597656 26.519531 10.726562 26.542969 10.902344 26.542969 C 11.035156 26.542969 11.324219 26.566406 11.539062 26.59375 C 11.867188 26.636719 12.152344 26.644531 13.34375 26.628906 C 14.601562 26.613281 14.785156 26.605469 15.011719 26.550781 C 15.148438 26.515625 15.351562 26.476562 15.453125 26.46875 C 15.558594 26.453125 15.722656 26.421875 15.820312 26.394531 C 15.914062 26.367188 16.074219 26.324219 16.167969 26.304688 C 16.667969 26.1875 17.398438 25.863281 17.867188 25.546875 C 18.179688 25.339844 18.679688 24.84375 18.894531 24.519531 C 19.183594 24.09375 19.503906 23.375 19.503906 23.152344 C 19.503906 23.109375 19.539062 23.011719 19.578125 22.933594 C 19.617188 22.855469 19.671875 22.722656 19.695312 22.640625 C 19.742188 22.457031 19.78125 22.425781 19.820312 22.53125 C 19.835938 22.574219 19.859375 23.410156 19.871094 24.390625 C 19.890625 25.816406 19.902344 26.175781 19.9375 26.210938 C 19.972656 26.246094 20.171875 26.253906 20.972656 26.238281 C 21.519531 26.234375 22.996094 26.210938 24.253906 26.195312 C 25.511719 26.175781 26.945312 26.15625 27.445312 26.148438 C 27.941406 26.136719 29.027344 26.121094 29.859375 26.113281 C 30.695312 26.101562 31.390625 26.082031 31.414062 26.070312 C 31.445312 26.050781 31.445312 25.742188 31.421875 24.597656 C 31.402344 23.804688 31.375 23.140625 31.363281 23.121094 C 31.34375 23.089844 30.574219 23.089844 28.128906 23.140625 C 27.691406 23.148438 26.605469 23.164062 25.714844 23.175781 C 24.097656 23.191406 24.09375 23.191406 24.007812 23.125 C 23.953125 23.082031 23.917969 23.019531 23.90625 22.941406 C 23.898438 22.875 23.886719 22.042969 23.878906 21.089844 L 23.871094 19.359375 L 23.945312 19.285156 L 24.015625 19.210938 L 26.292969 19.1875 C 27.546875 19.175781 29.035156 19.152344 29.605469 19.140625 L 30.636719 19.117188 L 30.644531 17.664062 C 30.652344 16.558594 30.640625 16.199219 30.613281 16.164062 C 30.582031 16.125 30.488281 16.121094 30.046875 16.136719 C 29.757812 16.144531 28.683594 16.164062 27.652344 16.171875 C 26.621094 16.179688 25.390625 16.195312 24.917969 16.207031 C 24.03125 16.226562 23.921875 16.214844 23.859375 16.097656 C 23.8125 16.015625 23.792969 15.496094 23.789062 14.195312 L 23.78125 13.105469 L 23.867188 13.03125 C 23.949219 12.964844 23.980469 12.957031 24.339844 12.957031 C 24.554688 12.957031 25.019531 12.949219 25.378906 12.941406 C 25.738281 12.933594 27.128906 12.910156 28.476562 12.894531 C 30.453125 12.867188 30.929688 12.851562 30.964844 12.816406 C 31 12.78125 31 12.523438 30.980469 11.328125 C 30.964844 10.046875 30.953125 9.878906 30.910156 9.859375 C 30.878906 9.847656 30.40625 9.84375 29.859375 9.855469 C 29.308594 9.867188 27.519531 9.894531 25.886719 9.914062 C 19.921875 9.988281 19.765625 9.992188 19.714844 10.042969 C 19.675781 10.085938 19.671875 10.332031 19.695312 11.847656 C 19.722656 13.730469 19.796875 19.089844 19.800781 19.640625 C 19.804688 20.160156 19.738281 20.363281 19.660156 20.074219 C 19.640625 20 19.597656 19.910156 19.566406 19.878906 C 19.53125 19.84375 19.464844 19.683594 19.410156 19.527344 C 19.128906 18.664062 18.503906 17.996094 17.488281 17.476562 C 17.296875 17.378906 17.039062 17.261719 16.914062 17.214844 C 16.792969 17.167969 16.675781 17.117188 16.652344 17.097656 C 16.628906 17.082031 16.535156 17.046875 16.4375 17.019531 C 16.34375 17 16.1875 16.960938 16.097656 16.933594 C 16.003906 16.914062 15.886719 16.871094 15.835938 16.847656 C 15.78125 16.816406 15.648438 16.78125 15.535156 16.761719 C 15.109375 16.691406 14.792969 16.628906 14.636719 16.585938 C 14.542969 16.5625 14.382812 16.53125 14.28125 16.519531 C 14.175781 16.507812 14.007812 16.480469 13.914062 16.457031 C 13.820312 16.433594 13.675781 16.40625 13.597656 16.398438 C 13.34375 16.363281 12.386719 16.15625 12.023438 16.058594 C 11.816406 16 11.625 15.925781 11.261719 15.761719 C 11.050781 15.660156 10.753906 15.390625 10.660156 15.207031 C 10.617188 15.125 10.5625 14.9375 10.539062 14.789062 C 10.5 14.566406 10.5 14.480469 10.53125 14.238281 C 10.578125 13.902344 10.636719 13.757812 10.800781 13.539062 C 11.097656 13.148438 11.699219 12.867188 12.453125 12.777344 C 13.476562 12.652344 13.761719 12.644531 14.214844 12.71875 C 14.375 12.746094 14.601562 12.765625 14.722656 12.765625 C 14.847656 12.765625 15.03125 12.78125 15.136719 12.800781 C 15.242188 12.816406 15.453125 12.851562 15.601562 12.878906 C 15.753906 12.898438 15.90625 12.933594 15.945312 12.953125 C 15.980469 12.976562 16.113281 13.011719 16.238281 13.03125 C 16.554688 13.09375 17.222656 13.285156 17.582031 13.417969 C 17.707031 13.464844 17.878906 13.527344 17.964844 13.558594 C 18.050781 13.589844 18.203125 13.652344 18.304688 13.695312 C 18.476562 13.769531 18.488281 13.773438 18.515625 13.71875 C 18.535156 13.683594 18.542969 13.082031 18.527344 12.121094 C 18.511719 10.773438 18.503906 10.570312 18.460938 10.515625 C 18.425781 10.472656 18.339844 10.445312 18.179688 10.425781 C 18.054688 10.410156 17.933594 10.386719 17.914062 10.375 C 17.898438 10.363281 17.78125 10.339844 17.660156 10.324219 C 17.539062 10.308594 17.402344 10.277344 17.355469 10.253906 C 17.304688 10.226562 17.179688 10.199219 17.074219 10.1875 C 16.96875 10.175781 16.761719 10.148438 16.613281 10.121094 C 14.972656 9.847656 13.949219 9.777344 12.183594 9.824219 Z M 12.183594 9.824219 " fill-opacity="1" fill-rule="nonzero"/></g><g clip-path="url(#66c7b9e31d)"><path fill="#1b1b1b" d="M 54.285156 3.710938 C 54.039062 3.710938 53.011719 4.136719 49.597656 5.601562 C 47.023438 6.707031 44.960938 7.636719 45.023438 7.664062 C 45.089844 7.695312 46.0625 7.84375 47.191406 7.980469 C 48.320312 8.121094 49.253906 8.253906 49.269531 8.261719 C 49.285156 8.277344 48.722656 9.398438 47.824219 11.15625 C 47.460938 11.863281 47.046875 12.675781 46.589844 13.558594 C 46.121094 14.464844 45.613281 15.445312 45.082031 16.46875 L 44.25 18.058594 L 40.546875 15.527344 L 36.851562 12.996094 L 35.945312 14.066406 C 35.191406 14.972656 34.414062 15.914062 33.714844 16.769531 C 32.425781 18.34375 31.402344 19.605469 31.308594 19.753906 C 31.300781 19.761719 31.300781 19.765625 31.300781 19.765625 C 31.300781 19.765625 31.304688 19.765625 31.308594 19.761719 C 31.347656 19.730469 31.375 19.714844 31.398438 19.714844 C 31.460938 19.714844 31.464844 19.863281 31.464844 20.347656 L 31.464844 20.417969 C 31.535156 20.683594 31.617188 20.9375 31.703125 21.171875 C 31.742188 21.277344 31.78125 21.382812 31.824219 21.488281 L 33.660156 19.351562 C 33.691406 19.316406 33.722656 19.277344 33.753906 19.242188 C 35.410156 17.320312 36.777344 15.761719 36.820312 15.761719 C 36.824219 15.761719 36.824219 15.761719 36.824219 15.761719 C 36.878906 15.761719 37.378906 16.203125 37.941406 16.757812 C 42.613281 21.277344 44.480469 23.039062 44.617188 23.039062 C 44.621094 23.039062 44.621094 23.039062 44.625 23.039062 C 44.679688 22.980469 45.898438 20.851562 48.003906 17.121094 C 48.527344 16.1875 49.109375 15.15625 49.742188 14.03125 C 49.855469 13.832031 49.96875 13.628906 50.082031 13.425781 C 51.042969 11.714844 51.882812 10.253906 51.941406 10.1875 C 51.949219 10.179688 51.957031 10.175781 51.96875 10.175781 C 52.085938 10.175781 52.425781 10.570312 53.347656 11.789062 C 54.058594 12.714844 54.652344 13.472656 54.683594 13.472656 C 54.730469 13.433594 54.402344 3.878906 54.347656 3.738281 C 54.339844 3.722656 54.320312 3.710938 54.285156 3.710938 Z M 54.285156 3.710938 " fill-opacity="1" fill-rule="nonzero"/></g></svg>