<svg xmlns="http://www.w3.org/2000/svg" xmlns:xlink="http://www.w3.org/1999/xlink" width="95" zoomAndPan="magnify" viewBox="0 0 71.25 37.5" height="50" preserveAspectRatio="xMidYMid meet" version="1.0"><defs><clipPath id="40e24bc7d8"><path d="M 50 6.40625 L 66.539062 6.40625 L 66.539062 23 L 50 23 Z M 50 6.40625 " clip-rule="nonzero"/></clipPath><clipPath id="f3b677f7f4"><path d="M 3.625 8 L 23 8 L 23 30.828125 L 3.625 30.828125 Z M 3.625 8 " clip-rule="nonzero"/></clipPath><clipPath id="165762917c"><path d="M 24 8 L 42 8 L 42 30.828125 L 24 30.828125 Z M 24 8 " clip-rule="nonzero"/></clipPath><clipPath id="2453ac2174"><path d="M 42 8 L 65 8 L 65 30.828125 L 42 30.828125 Z M 42 8 " clip-rule="nonzero"/></clipPath></defs><g clip-path="url(#40e24bc7d8)"><path fill="#1b1b1b" d="M 66.019531 6.820312 C 56.980469 6.40625 56.324219 9.390625 54.53125 14.175781 L 51.03125 14.59375 L 50.210938 17.894531 C 50.210938 17.894531 52.058594 16.578125 52.578125 16.980469 C 52.851562 17.203125 52.332031 18.214844 52.332031 18.214844 L 53.398438 19.449219 L 53.382812 19.464844 L 53.546875 19.628906 L 53.5625 19.617188 L 54.777344 20.699219 C 54.777344 20.699219 55.789062 20.171875 55.996094 20.449219 C 56.390625 20.964844 55.09375 22.851562 55.09375 22.851562 L 58.347656 22.019531 L 58.757812 18.464844 C 63.488281 16.660156 66.429688 15.996094 66.019531 6.820312 Z M 63.078125 12.164062 C 62.613281 14.871094 59.167969 14.871094 58.703125 12.164062 C 58.6875 12.082031 58.6875 11.984375 58.703125 11.902344 C 59.167969 9.195312 62.613281 9.195312 63.078125 11.902344 C 63.089844 11.984375 63.089844 12.066406 63.078125 12.164062 Z M 63.078125 12.164062 " fill-opacity="1" fill-rule="nonzero"/></g><path fill="#ff9459" d="M 51.46875 19.714844 C 51.976562 19.199219 52.808594 19.199219 53.316406 19.714844 C 53.820312 20.226562 53.820312 21.074219 53.316406 21.585938 C 52.808594 22.101562 50.554688 22.515625 50.554688 22.515625 C 50.554688 22.515625 50.964844 20.226562 51.46875 19.714844 Z M 51.46875 19.714844 " fill-opacity="1" fill-rule="nonzero"/><g clip-path="url(#f3b677f7f4)"><path fill="#ff9459" d="M 22.320312 23.695312 C 22.320312 28.097656 18.859375 30.828125 13.28125 30.828125 C 8.480469 30.828125 5.433594 29.066406 3.984375 25.429688 L 3.738281 24.835938 L 8.097656 22.546875 L 8.386719 23.265625 C 9.070312 25 10.929688 26.027344 13.335938 26.027344 C 14.25 26.027344 17.21875 25.863281 17.21875 23.695312 C 17.21875 23.238281 17.21875 21.863281 13.238281 21.421875 C 9.070312 20.921875 4.816406 19.714844 4.816406 14.621094 C 4.816406 10.125 9.027344 8.070312 13.199219 8.042969 C 17.328125 8.042969 20.238281 9.570312 21.632812 12.441406 L 21.933594 13.054688 L 17.777344 15.21875 L 17.449219 14.648438 C 16.875 13.734375 15.25 12.746094 13.308594 12.746094 C 11.160156 12.746094 9.875 13.484375 9.875 14.730469 C 9.875 15.730469 10.941406 16.246094 13.691406 16.578125 C 16.492188 16.925781 22.320312 17.644531 22.320312 23.695312 Z M 22.320312 23.695312 " fill-opacity="1" fill-rule="nonzero"/></g><g clip-path="url(#165762917c)"><path fill="#ff9459" d="M 24.808594 8.722656 L 41.0625 8.722656 L 41.0625 13.816406 L 29.90625 13.816406 L 29.90625 17.050781 L 40.667969 17.050781 L 40.667969 21.988281 L 29.90625 21.988281 L 29.90625 25.140625 L 41.0625 25.140625 L 41.0625 30.289062 L 24.808594 30.289062 Z M 24.808594 8.722656 " fill-opacity="1" fill-rule="nonzero"/></g><g clip-path="url(#2453ac2174)"><path fill="#ff9459" d="M 64.199219 16.5625 C 64.433594 17.550781 64.554688 18.589844 64.554688 19.644531 C 64.5 25.183594 61.109375 30.773438 53.671875 30.773438 C 50.238281 30.773438 47.382812 29.582031 45.425781 27.320312 C 43.703125 25.335938 42.757812 22.613281 42.757812 19.660156 C 42.757812 16.703125 43.71875 13.941406 45.46875 11.902344 C 47.449219 9.570312 50.292969 8.335938 53.683594 8.335938 C 54.667969 8.335938 55.613281 8.445312 56.488281 8.652344 C 55.421875 9.859375 54.832031 11.429688 54.175781 13.21875 C 54.011719 13.207031 53.847656 13.207031 53.683594 13.207031 C 51.976562 13.207031 50.59375 13.746094 49.570312 14.816406 C 48.421875 16.007812 47.792969 17.800781 47.847656 19.714844 C 47.886719 21.15625 48.421875 25.890625 53.683594 25.890625 C 57.894531 25.890625 59.441406 22.683594 59.496094 19.6875 C 59.496094 19.449219 59.496094 19.199219 59.480469 18.964844 L 59.6875 18.882812 C 61.449219 18.203125 62.996094 17.605469 64.199219 16.5625 Z M 64.199219 16.5625 " fill-opacity="1" fill-rule="nonzero"/></g></svg>