<svg xmlns="http://www.w3.org/2000/svg" xmlns:xlink="http://www.w3.org/1999/xlink" width="95" zoomAndPan="magnify" viewBox="0 0 71.25 37.5" height="50" preserveAspectRatio="xMidYMid meet" version="1.0"><defs><clipPath id="a6d659a46c"><path d="M 18.933594 0.667969 L 51.5 0.667969 L 51.5 33.230469 L 18.933594 33.230469 Z M 18.933594 0.667969 " clip-rule="nonzero"/></clipPath></defs><g clip-path="url(#a6d659a46c)"><path fill="#ff9459" d="M 35.21875 0.667969 C 34.683594 0.667969 34.152344 0.691406 33.621094 0.746094 C 33.089844 0.796875 32.5625 0.875 32.042969 0.980469 C 31.519531 1.082031 31 1.210938 30.492188 1.367188 C 29.980469 1.523438 29.480469 1.703125 28.988281 1.90625 C 28.492188 2.109375 28.011719 2.335938 27.542969 2.589844 C 27.070312 2.839844 26.613281 3.113281 26.171875 3.410156 C 25.726562 3.707031 25.300781 4.023438 24.886719 4.363281 C 24.476562 4.699219 24.082031 5.058594 23.703125 5.433594 C 23.328125 5.8125 22.96875 6.207031 22.632812 6.621094 C 22.292969 7.03125 21.976562 7.460938 21.679688 7.902344 C 21.382812 8.347656 21.109375 8.804688 20.859375 9.273438 C 20.605469 9.742188 20.378906 10.226562 20.175781 10.71875 C 19.96875 11.210938 19.789062 11.710938 19.636719 12.222656 C 19.480469 12.734375 19.351562 13.25 19.246094 13.773438 C 19.144531 14.296875 19.066406 14.824219 19.011719 15.351562 C 18.960938 15.882812 18.933594 16.414062 18.933594 16.949219 C 18.933594 17.480469 18.960938 18.015625 19.011719 18.546875 C 19.066406 19.074219 19.144531 19.601562 19.246094 20.125 C 19.351562 20.648438 19.480469 21.164062 19.636719 21.675781 C 19.789062 22.1875 19.96875 22.6875 20.175781 23.179688 C 20.378906 23.671875 20.605469 24.15625 20.859375 24.625 C 21.109375 25.09375 21.382812 25.550781 21.679688 25.996094 C 21.976562 26.4375 22.292969 26.867188 22.632812 27.277344 C 22.96875 27.691406 23.328125 28.085938 23.703125 28.460938 C 24.082031 28.839844 24.476562 29.199219 24.886719 29.535156 C 25.300781 29.875 25.726562 30.191406 26.171875 30.488281 C 26.613281 30.785156 27.070312 31.058594 27.542969 31.308594 C 28.011719 31.5625 28.492188 31.789062 28.988281 31.992188 C 29.480469 32.195312 29.980469 32.375 30.492188 32.53125 C 31 32.6875 31.519531 32.816406 32.042969 32.917969 C 32.5625 33.023438 33.089844 33.101562 33.621094 33.152344 C 34.152344 33.207031 34.683594 33.230469 35.21875 33.230469 C 35.75 33.230469 36.285156 33.207031 36.8125 33.152344 C 37.34375 33.101562 37.871094 33.023438 38.394531 32.917969 C 38.917969 32.816406 39.433594 32.6875 39.945312 32.53125 C 40.453125 32.375 40.957031 32.195312 41.449219 31.992188 C 41.941406 31.789062 42.421875 31.5625 42.894531 31.308594 C 43.363281 31.058594 43.820312 30.785156 44.265625 30.488281 C 44.707031 30.191406 45.136719 29.875 45.546875 29.535156 C 45.960938 29.199219 46.355469 28.839844 46.730469 28.460938 C 47.109375 28.085938 47.464844 27.691406 47.804688 27.277344 C 48.144531 26.867188 48.460938 26.4375 48.757812 25.996094 C 49.054688 25.550781 49.328125 25.09375 49.578125 24.625 C 49.828125 24.15625 50.058594 23.671875 50.261719 23.179688 C 50.464844 22.6875 50.644531 22.1875 50.800781 21.675781 C 50.953125 21.164062 51.082031 20.648438 51.1875 20.125 C 51.292969 19.601562 51.371094 19.074219 51.421875 18.546875 C 51.476562 18.015625 51.5 17.480469 51.5 16.949219 C 51.5 16.414062 51.472656 15.882812 51.421875 15.351562 C 51.371094 14.824219 51.292969 14.296875 51.1875 13.773438 C 51.082031 13.25 50.953125 12.734375 50.800781 12.222656 C 50.644531 11.710938 50.464844 11.210938 50.261719 10.71875 C 50.058594 10.226562 49.828125 9.742188 49.578125 9.273438 C 49.324219 8.804688 49.050781 8.347656 48.757812 7.902344 C 48.460938 7.460938 48.140625 7.03125 47.804688 6.621094 C 47.464844 6.207031 47.109375 5.8125 46.730469 5.4375 C 46.355469 5.058594 45.960938 4.699219 45.546875 4.363281 C 45.136719 4.023438 44.707031 3.707031 44.265625 3.410156 C 43.820312 3.113281 43.363281 2.839844 42.894531 2.589844 C 42.421875 2.339844 41.941406 2.109375 41.449219 1.90625 C 40.957031 1.703125 40.453125 1.523438 39.945312 1.367188 C 39.433594 1.210938 38.917969 1.082031 38.394531 0.980469 C 37.871094 0.875 37.34375 0.796875 36.8125 0.746094 C 36.28125 0.691406 35.75 0.667969 35.21875 0.667969 Z M 27.71875 8.914062 L 42.71875 8.914062 C 43.039062 8.914062 43.347656 8.96875 43.648438 9.082031 C 43.949219 9.191406 44.21875 9.351562 44.464844 9.5625 C 44.707031 9.769531 44.90625 10.015625 45.058594 10.292969 C 45.214844 10.574219 45.316406 10.871094 45.363281 11.1875 C 45.152344 11.304688 36.90625 16.058594 36.363281 16.367188 C 36.007812 16.570312 35.625 16.671875 35.21875 16.671875 C 34.808594 16.671875 34.429688 16.570312 34.074219 16.367188 C 33.539062 16.0625 25.273438 11.355469 25.070312 11.230469 C 25.113281 10.910156 25.210938 10.605469 25.367188 10.320312 C 25.519531 10.035156 25.714844 9.789062 25.960938 9.574219 C 26.203125 9.363281 26.476562 9.199219 26.777344 9.085938 C 27.082031 8.972656 27.394531 8.914062 27.71875 8.914062 Z M 45.394531 22.308594 C 45.394531 22.660156 45.324219 23.003906 45.191406 23.332031 C 45.054688 23.660156 44.859375 23.949219 44.609375 24.199219 C 44.359375 24.449219 44.070312 24.644531 43.742188 24.777344 C 43.414062 24.914062 43.074219 24.984375 42.71875 24.984375 L 27.71875 24.984375 C 27.363281 24.984375 27.023438 24.914062 26.695312 24.777344 C 26.367188 24.644531 26.078125 24.449219 25.824219 24.199219 C 25.574219 23.949219 25.382812 23.660156 25.246094 23.332031 C 25.109375 23.003906 25.042969 22.660156 25.042969 22.308594 L 25.042969 12.445312 L 33.550781 17.300781 C 34.066406 17.59375 34.625 17.742188 35.21875 17.742188 C 35.816406 17.742188 36.375 17.59375 36.890625 17.300781 L 45.394531 12.40625 Z M 45.394531 22.308594 " fill-opacity="1" fill-rule="nonzero"/></g></svg>