<svg xmlns="http://www.w3.org/2000/svg" xmlns:xlink="http://www.w3.org/1999/xlink" width="95" zoomAndPan="magnify" viewBox="0 0 71.25 37.5" height="50" preserveAspectRatio="xMidYMid meet" version="1.0"><defs><clipPath id="222d959e95"><path d="M 20.398438 3.699219 L 50 3.699219 L 50 33.304688 L 20.398438 33.304688 Z M 20.398438 3.699219 " clip-rule="nonzero"/></clipPath><clipPath id="3a6390f1f3"><path d="M 20.398438 3.699219 L 45 3.699219 L 45 33.304688 L 20.398438 33.304688 Z M 20.398438 3.699219 " clip-rule="nonzero"/></clipPath></defs><g clip-path="url(#222d959e95)"><path fill="#ff9459" d="M 43.785156 15.832031 C 43.789062 15.898438 43.792969 15.964844 43.792969 16.03125 C 43.792969 16.871094 43.785156 17.714844 43.800781 18.558594 C 43.8125 19.363281 43.808594 20.167969 43.835938 20.96875 C 43.847656 21.449219 43.835938 21.933594 43.863281 22.414062 C 43.890625 22.816406 43.875 23.222656 43.898438 23.625 C 43.9375 24.351562 43.90625 25.082031 43.925781 25.808594 C 43.945312 26.425781 43.964844 27.042969 43.996094 27.660156 C 44.019531 28.117188 44.035156 28.578125 44.058594 29.035156 C 44.109375 29.9375 44.089844 30.839844 44.078125 31.742188 C 44.074219 32.003906 44.050781 32.265625 44.046875 32.527344 C 44.046875 32.679688 43.996094 32.726562 43.847656 32.757812 C 43.816406 32.761719 43.78125 32.773438 43.75 32.773438 C 43.53125 32.769531 43.316406 32.800781 43.097656 32.8125 C 42.621094 32.839844 42.144531 32.875 41.667969 32.90625 C 41.585938 32.910156 41.503906 32.90625 41.421875 32.910156 C 40.898438 32.933594 40.375 32.945312 39.855469 32.984375 C 39.554688 33.007812 39.257812 32.996094 38.957031 33.015625 C 38.605469 33.042969 38.25 33.058594 37.898438 33.074219 C 37.453125 33.097656 37.007812 33.121094 36.5625 33.167969 C 36.390625 33.183594 36.214844 33.1875 36.042969 33.199219 C 35.679688 33.226562 35.3125 33.222656 34.949219 33.246094 C 34.121094 33.296875 33.292969 33.257812 32.464844 33.28125 C 32.269531 33.289062 32.074219 33.308594 31.878906 33.296875 C 31.292969 33.265625 30.710938 33.289062 30.128906 33.265625 C 29.578125 33.242188 29.03125 33.222656 28.480469 33.195312 C 28.121094 33.179688 27.761719 33.183594 27.402344 33.171875 C 26.242188 33.132812 25.082031 33.132812 23.921875 33.148438 C 23.253906 33.160156 22.589844 33.179688 21.925781 33.175781 C 21.84375 33.175781 21.765625 33.175781 21.683594 33.152344 C 21.570312 33.125 21.5 33.058594 21.464844 32.953125 C 21.433594 32.859375 21.414062 32.765625 21.402344 32.667969 C 21.371094 32.460938 21.347656 32.253906 21.335938 32.046875 C 21.3125 31.601562 21.277344 31.15625 21.25 30.707031 C 21.238281 30.496094 21.226562 30.28125 21.21875 30.070312 C 21.203125 29.617188 21.167969 29.164062 21.140625 28.710938 C 21.105469 28.171875 21.074219 27.632812 21.039062 27.09375 C 21.007812 26.558594 20.957031 26.027344 20.910156 25.492188 C 20.859375 24.925781 20.804688 24.363281 20.75 23.796875 C 20.691406 23.234375 20.648438 22.667969 20.617188 22.101562 C 20.59375 21.730469 20.570312 21.359375 20.550781 20.988281 C 20.519531 20.496094 20.503906 20.003906 20.484375 19.515625 C 20.4375 18.335938 20.460938 17.160156 20.457031 15.984375 C 20.453125 15.335938 20.464844 14.683594 20.453125 14.03125 C 20.449219 13.78125 20.429688 13.53125 20.421875 13.28125 C 20.417969 13.171875 20.445312 13.113281 20.546875 13.0625 C 20.847656 12.910156 21.140625 12.738281 21.441406 12.589844 C 21.6875 12.464844 21.933594 12.355469 22.183594 12.246094 C 22.9375 11.917969 23.65625 11.53125 24.359375 11.113281 C 25.136719 10.648438 25.910156 10.183594 26.664062 9.679688 C 26.835938 9.5625 27.003906 9.441406 27.175781 9.328125 C 27.25 9.277344 27.269531 9.226562 27.25 9.136719 C 27.078125 8.417969 26.910156 7.703125 26.746094 6.984375 C 26.601562 6.34375 26.382812 5.722656 26.199219 5.097656 C 26.097656 4.746094 25.992188 4.394531 25.949219 4.027344 C 25.9375 3.917969 25.949219 3.894531 26.058594 3.882812 C 26.179688 3.871094 26.300781 3.84375 26.417969 3.859375 C 26.597656 3.882812 26.773438 3.855469 26.953125 3.855469 C 27.914062 3.851562 28.875 3.855469 29.832031 3.851562 C 31.546875 3.851562 33.257812 3.855469 34.96875 3.839844 C 35.433594 3.835938 35.894531 3.828125 36.359375 3.804688 C 36.625 3.792969 36.890625 3.796875 37.15625 3.777344 C 37.761719 3.730469 38.367188 3.765625 38.972656 3.742188 C 40.0625 3.703125 41.152344 3.714844 42.242188 3.722656 C 42.558594 3.722656 42.875 3.738281 43.1875 3.753906 C 43.257812 3.757812 43.332031 3.769531 43.398438 3.789062 C 43.550781 3.832031 43.628906 3.9375 43.632812 4.101562 C 43.632812 4.1875 43.628906 4.277344 43.632812 4.363281 C 43.640625 5.386719 43.640625 6.410156 43.671875 7.433594 C 43.6875 7.988281 43.675781 8.546875 43.703125 9.105469 C 43.738281 9.941406 43.710938 10.777344 43.726562 11.617188 C 43.726562 11.679688 43.707031 11.746094 43.753906 11.804688 C 42.976562 12.722656 42.199219 13.636719 41.386719 14.523438 C 40.703125 15.265625 40.019531 16.007812 39.339844 16.757812 C 38.558594 17.621094 37.832031 18.53125 37.082031 19.421875 C 36.589844 20.011719 36.113281 20.621094 35.589844 21.183594 C 35.242188 21.558594 34.910156 21.941406 34.597656 22.34375 C 34.5 22.46875 34.492188 22.585938 34.5625 22.71875 C 34.605469 22.800781 34.648438 22.882812 34.703125 22.957031 C 34.9375 23.292969 35.21875 23.582031 35.550781 23.816406 C 35.738281 23.949219 35.929688 24.078125 36.148438 24.15625 C 36.222656 24.179688 36.277344 24.1875 36.335938 24.117188 C 36.644531 23.746094 36.984375 23.410156 37.304688 23.050781 C 38 22.265625 38.714844 21.5 39.414062 20.714844 C 40.589844 19.390625 41.753906 18.058594 42.929688 16.734375 C 43.203125 16.425781 43.488281 16.121094 43.785156 15.832031 Z M 34.398438 13.203125 C 34.589844 13.203125 34.921875 13.191406 35.253906 13.183594 C 36.609375 13.15625 37.96875 13.148438 39.324219 13.046875 C 39.625 13.023438 39.929688 13.003906 40.234375 12.976562 C 40.398438 12.960938 40.464844 12.890625 40.449219 12.730469 C 40.429688 12.53125 40.390625 12.332031 40.355469 12.132812 C 40.34375 12.058594 40.300781 12.015625 40.21875 12.023438 C 40.171875 12.027344 40.121094 12.027344 40.074219 12.03125 C 39.71875 12.050781 39.367188 12.078125 39.011719 12.089844 C 38.289062 12.113281 37.5625 12.152344 36.839844 12.207031 C 35.875 12.28125 34.90625 12.339844 33.933594 12.363281 C 33.765625 12.367188 33.597656 12.371094 33.429688 12.378906 C 32.808594 12.410156 32.183594 12.40625 31.566406 12.375 C 30.855469 12.34375 30.148438 12.328125 29.441406 12.367188 C 28.503906 12.425781 27.566406 12.4375 26.628906 12.488281 C 26.253906 12.507812 25.878906 12.511719 25.503906 12.519531 C 25.375 12.519531 25.347656 12.550781 25.351562 12.675781 C 25.351562 12.828125 25.363281 12.980469 25.371094 13.132812 C 25.375 13.296875 25.378906 13.300781 25.546875 13.320312 C 25.597656 13.328125 25.644531 13.332031 25.695312 13.328125 C 26.195312 13.285156 26.695312 13.28125 27.195312 13.277344 C 27.914062 13.273438 28.636719 13.289062 29.355469 13.246094 C 29.792969 13.21875 30.234375 13.199219 30.675781 13.183594 C 31.179688 13.164062 31.679688 13.128906 32.179688 13.152344 C 32.871094 13.183594 33.5625 13.207031 34.398438 13.203125 Z M 32.167969 16.847656 C 33.0625 16.863281 33.972656 16.816406 34.878906 16.796875 C 35.46875 16.78125 36.058594 16.761719 36.644531 16.71875 C 36.800781 16.707031 36.957031 16.6875 37.113281 16.660156 C 37.203125 16.644531 37.230469 16.597656 37.230469 16.515625 C 37.234375 16.328125 37.207031 16.144531 37.1875 15.960938 C 37.179688 15.894531 37.144531 15.863281 37.082031 15.855469 C 37.042969 15.851562 37.003906 15.84375 36.96875 15.84375 C 36.417969 15.867188 35.867188 15.851562 35.316406 15.863281 C 34.621094 15.875 33.921875 15.875 33.226562 15.90625 C 32.320312 15.949219 31.417969 15.945312 30.511719 16 C 30.128906 16.019531 29.742188 16.042969 29.355469 16.054688 C 28.996094 16.070312 28.636719 16.085938 28.277344 16.082031 C 27.929688 16.074219 27.582031 16.0625 27.230469 16.085938 C 26.65625 16.128906 26.078125 16.179688 25.5 16.175781 C 25.46875 16.175781 25.4375 16.175781 25.402344 16.179688 C 25.339844 16.179688 25.300781 16.210938 25.304688 16.28125 C 25.320312 16.445312 25.328125 16.609375 25.351562 16.769531 C 25.367188 16.882812 25.390625 16.90625 25.5 16.898438 C 25.828125 16.871094 26.152344 16.90625 26.480469 16.914062 C 26.785156 16.921875 27.089844 16.890625 27.394531 16.882812 C 28.039062 16.867188 28.679688 16.816406 29.324219 16.824219 C 29.824219 16.828125 30.324219 16.824219 30.828125 16.84375 C 31.269531 16.859375 31.710938 16.847656 32.167969 16.847656 Z M 31.59375 20.863281 C 32.15625 20.863281 32.71875 20.863281 33.277344 20.863281 C 33.496094 20.863281 33.714844 20.855469 33.933594 20.855469 C 34 20.855469 34.035156 20.835938 34.03125 20.761719 C 34.023438 20.53125 34.015625 20.304688 34.011719 20.074219 C 34.011719 20.027344 33.988281 20.003906 33.941406 20.007812 C 33.914062 20.007812 33.886719 20.007812 33.859375 20.007812 C 32.941406 20.03125 32.027344 20.007812 31.113281 20.035156 C 30.441406 20.054688 29.773438 20.082031 29.101562 20.113281 C 28.257812 20.15625 27.414062 20.144531 26.570312 20.121094 C 26.171875 20.113281 25.773438 20.144531 25.378906 20.140625 C 25.367188 20.140625 25.355469 20.140625 25.34375 20.144531 C 25.234375 20.160156 25.210938 20.179688 25.207031 20.289062 C 25.199219 20.5 25.238281 20.703125 25.273438 20.90625 C 25.285156 20.988281 25.339844 21.03125 25.421875 21.027344 C 25.515625 21.027344 25.605469 21.03125 25.699219 21.023438 C 26.160156 20.992188 26.625 20.964844 27.085938 20.960938 C 27.550781 20.957031 28.011719 20.9375 28.476562 20.914062 C 29.1875 20.878906 29.898438 20.820312 30.613281 20.832031 C 30.941406 20.839844 31.269531 20.863281 31.59375 20.863281 Z M 27.601562 24.335938 C 27.09375 24.347656 26.671875 24.34375 26.246094 24.375 C 26.011719 24.390625 25.777344 24.386719 25.542969 24.386719 C 25.417969 24.386719 25.398438 24.40625 25.390625 24.527344 C 25.378906 24.707031 25.371094 24.886719 25.417969 25.066406 C 25.449219 25.1875 25.464844 25.210938 25.589844 25.214844 C 25.699219 25.222656 25.808594 25.214844 25.917969 25.214844 C 26.304688 25.214844 26.691406 25.210938 27.078125 25.183594 C 27.769531 25.132812 28.460938 25.113281 29.152344 25.109375 C 29.316406 25.109375 29.480469 25.132812 29.640625 25.117188 C 29.996094 25.082031 30.347656 25.089844 30.703125 25.105469 C 30.898438 25.113281 31.09375 25.117188 31.292969 25.125 C 31.421875 25.128906 31.554688 25.113281 31.683594 25.097656 C 31.832031 25.078125 31.863281 25.042969 31.851562 24.898438 C 31.84375 24.78125 31.832031 24.667969 31.8125 24.554688 C 31.796875 24.4375 31.777344 24.417969 31.652344 24.417969 C 30.890625 24.417969 30.128906 24.402344 29.367188 24.34375 C 28.753906 24.296875 28.136719 24.34375 27.601562 24.335938 Z M 35.800781 24.597656 C 35.660156 24.511719 35.539062 24.4375 35.417969 24.367188 C 34.929688 24.085938 34.550781 23.6875 34.234375 23.230469 C 34.195312 23.175781 34.171875 23.117188 34.132812 23.0625 C 34.097656 23.007812 34.054688 23.007812 34.015625 23.058594 C 33.945312 23.144531 33.894531 23.242188 33.84375 23.335938 C 33.59375 23.78125 33.40625 24.253906 33.195312 24.714844 C 33.035156 25.058594 32.921875 25.417969 32.847656 25.789062 C 32.835938 25.847656 32.8125 25.90625 32.867188 25.957031 C 32.917969 26.003906 32.96875 25.96875 33.019531 25.953125 C 33.339844 25.84375 33.65625 25.726562 33.960938 25.578125 C 34.457031 25.335938 34.945312 25.085938 35.4375 24.835938 C 35.558594 24.773438 35.671875 24.703125 35.800781 24.597656 Z M 26.046875 8.613281 C 25.984375 8.304688 25.929688 7.988281 25.847656 7.6875 C 25.707031 7.175781 25.550781 6.667969 25.386719 6.164062 C 25.226562 5.671875 25.085938 5.175781 24.96875 4.667969 C 24.921875 4.476562 24.863281 4.289062 24.804688 4.101562 C 24.789062 4.058594 24.792969 3.992188 24.734375 3.984375 C 24.671875 3.976562 24.667969 4.046875 24.644531 4.085938 C 24.59375 4.179688 24.546875 4.28125 24.492188 4.375 C 24.289062 4.710938 24.097656 5.054688 23.90625 5.398438 C 23.722656 5.734375 23.546875 6.074219 23.359375 6.40625 C 23.183594 6.707031 22.992188 7 22.839844 7.316406 C 22.664062 7.679688 22.488281 8.042969 22.308594 8.40625 C 22.046875 8.945312 21.761719 9.476562 21.484375 10.007812 C 21.152344 10.640625 20.792969 11.261719 20.492188 11.910156 C 20.476562 11.945312 20.441406 11.976562 20.476562 12.011719 C 20.503906 12.039062 20.539062 12.015625 20.566406 12 C 20.863281 11.828125 21.183594 11.695312 21.480469 11.523438 C 22.511719 10.929688 23.539062 10.339844 24.5625 9.730469 C 25.035156 9.449219 25.484375 9.132812 25.949219 8.835938 C 26.011719 8.792969 26.054688 8.742188 26.050781 8.660156 C 26.050781 8.644531 26.050781 8.628906 26.046875 8.613281 Z M 43.785156 15.832031 C 43.488281 16.121094 43.203125 16.425781 42.929688 16.734375 C 41.753906 18.058594 40.589844 19.390625 39.414062 20.714844 C 38.714844 21.5 38 22.265625 37.304688 23.050781 C 36.984375 23.410156 36.644531 23.746094 36.335938 24.117188 C 36.277344 24.1875 36.222656 24.179688 36.148438 24.15625 C 35.929688 24.078125 35.738281 23.949219 35.550781 23.816406 C 35.21875 23.582031 34.9375 23.292969 34.703125 22.957031 C 34.648438 22.882812 34.605469 22.800781 34.5625 22.71875 C 34.492188 22.585938 34.5 22.46875 34.597656 22.34375 C 34.910156 21.941406 35.242188 21.558594 35.589844 21.183594 C 36.113281 20.621094 36.589844 20.011719 37.082031 19.421875 C 37.832031 18.53125 38.558594 17.621094 39.339844 16.757812 C 40.019531 16.007812 40.703125 15.265625 41.386719 14.523438 C 42.199219 13.636719 42.976562 12.722656 43.753906 11.804688 C 44.113281 11.40625 44.460938 11 44.828125 10.613281 C 45.375 10.03125 45.917969 9.449219 46.425781 8.832031 C 46.4375 8.816406 46.453125 8.800781 46.46875 8.785156 C 46.519531 8.734375 46.5625 8.738281 46.601562 8.796875 C 46.710938 8.945312 46.835938 9.085938 46.960938 9.222656 C 47.339844 9.652344 47.78125 10.003906 48.238281 10.339844 C 48.308594 10.390625 48.390625 10.425781 48.46875 10.46875 C 48.554688 10.519531 48.558594 10.527344 48.5 10.601562 C 48.421875 10.703125 48.347656 10.804688 48.257812 10.894531 C 47.667969 11.484375 47.148438 12.140625 46.578125 12.75 C 45.65625 13.734375 44.773438 14.757812 43.855469 15.742188 C 43.828125 15.773438 43.808594 15.804688 43.785156 15.832031 Z M 47.984375 7.226562 C 47.621094 7.460938 47.335938 7.777344 47.0625 8.105469 C 46.984375 8.199219 46.984375 8.238281 47.054688 8.339844 C 47.113281 8.425781 47.175781 8.507812 47.242188 8.585938 C 47.640625 9.039062 48.097656 9.429688 48.566406 9.808594 C 48.660156 9.886719 48.769531 9.953125 48.882812 10.003906 C 48.953125 10.035156 49.007812 10.035156 49.058594 9.972656 C 49.207031 9.804688 49.371094 9.652344 49.507812 9.476562 C 49.714844 9.214844 49.859375 8.925781 49.917969 8.59375 C 49.976562 8.285156 49.890625 8.027344 49.699219 7.785156 C 49.507812 7.542969 49.265625 7.359375 49.007812 7.195312 C 48.855469 7.097656 48.683594 7.066406 48.519531 7.066406 C 48.316406 7.066406 48.140625 7.121094 47.984375 7.226562 Z M 35.253906 13.183594 C 36.609375 13.15625 37.96875 13.148438 39.324219 13.046875 C 39.625 13.023438 39.929688 13.003906 40.234375 12.976562 C 40.398438 12.960938 40.464844 12.890625 40.449219 12.730469 C 40.429688 12.53125 40.390625 12.332031 40.355469 12.132812 C 40.34375 12.058594 40.300781 12.015625 40.21875 12.023438 C 40.171875 12.027344 40.121094 12.027344 40.074219 12.03125 C 39.71875 12.050781 39.367188 12.078125 39.011719 12.089844 C 38.289062 12.113281 37.5625 12.152344 36.839844 12.207031 C 35.875 12.28125 34.90625 12.339844 33.933594 12.363281 C 33.765625 12.367188 33.597656 12.371094 33.429688 12.378906 C 32.808594 12.410156 32.183594 12.40625 31.566406 12.375 C 30.855469 12.34375 30.148438 12.328125 29.441406 12.367188 C 28.503906 12.425781 27.566406 12.4375 26.628906 12.488281 C 26.253906 12.507812 25.878906 12.511719 25.503906 12.519531 C 25.375 12.519531 25.347656 12.550781 25.351562 12.675781 C 25.351562 12.828125 25.363281 12.980469 25.371094 13.132812 C 25.375 13.296875 25.378906 13.300781 25.546875 13.320312 C 25.597656 13.328125 25.644531 13.332031 25.695312 13.328125 C 26.195312 13.285156 26.695312 13.28125 27.195312 13.277344 C 27.914062 13.273438 28.636719 13.289062 29.355469 13.246094 C 29.792969 13.21875 30.234375 13.199219 30.675781 13.183594 C 31.179688 13.164062 31.679688 13.128906 32.179688 13.152344 C 32.871094 13.183594 33.5625 13.207031 34.398438 13.203125 C 34.589844 13.203125 34.921875 13.191406 35.253906 13.183594 Z M 34.878906 16.796875 C 35.46875 16.78125 36.058594 16.761719 36.644531 16.71875 C 36.800781 16.707031 36.957031 16.6875 37.113281 16.660156 C 37.203125 16.644531 37.230469 16.597656 37.230469 16.515625 C 37.234375 16.328125 37.207031 16.144531 37.1875 15.960938 C 37.179688 15.894531 37.144531 15.863281 37.082031 15.855469 C 37.042969 15.851562 37.003906 15.84375 36.96875 15.84375 C 36.417969 15.867188 35.867188 15.851562 35.316406 15.863281 C 34.621094 15.875 33.921875 15.875 33.226562 15.90625 C 32.320312 15.949219 31.417969 15.945312 30.511719 16 C 30.128906 16.019531 29.742188 16.042969 29.355469 16.054688 C 28.996094 16.070312 28.636719 16.085938 28.277344 16.082031 C 27.929688 16.074219 27.582031 16.0625 27.230469 16.085938 C 26.65625 16.128906 26.078125 16.179688 25.5 16.175781 C 25.46875 16.175781 25.4375 16.175781 25.402344 16.179688 C 25.339844 16.179688 25.300781 16.210938 25.304688 16.28125 C 25.320312 16.445312 25.328125 16.609375 25.351562 16.769531 C 25.367188 16.882812 25.390625 16.90625 25.5 16.898438 C 25.828125 16.871094 26.152344 16.90625 26.480469 16.914062 C 26.785156 16.921875 27.089844 16.890625 27.394531 16.882812 C 28.039062 16.867188 28.679688 16.816406 29.324219 16.824219 C 29.824219 16.828125 30.324219 16.824219 30.828125 16.84375 C 31.269531 16.859375 31.710938 16.847656 32.167969 16.847656 C 33.0625 16.863281 33.972656 16.816406 34.878906 16.796875 Z M 33.277344 20.863281 C 33.496094 20.863281 33.714844 20.855469 33.933594 20.855469 C 34 20.855469 34.035156 20.835938 34.03125 20.761719 C 34.023438 20.53125 34.015625 20.304688 34.011719 20.074219 C 34.011719 20.027344 33.988281 20.003906 33.941406 20.007812 C 33.914062 20.007812 33.886719 20.007812 33.859375 20.007812 C 32.941406 20.03125 32.027344 20.007812 31.113281 20.035156 C 30.441406 20.054688 29.773438 20.082031 29.101562 20.113281 C 28.257812 20.15625 27.414062 20.144531 26.570312 20.121094 C 26.171875 20.113281 25.773438 20.144531 25.378906 20.140625 C 25.367188 20.140625 25.355469 20.140625 25.34375 20.144531 C 25.234375 20.160156 25.210938 20.179688 25.207031 20.289062 C 25.199219 20.5 25.238281 20.703125 25.273438 20.90625 C 25.285156 20.988281 25.339844 21.03125 25.421875 21.027344 C 25.515625 21.027344 25.605469 21.03125 25.699219 21.023438 C 26.160156 20.992188 26.625 20.964844 27.085938 20.960938 C 27.550781 20.957031 28.011719 20.9375 28.476562 20.914062 C 29.1875 20.878906 29.898438 20.820312 30.613281 20.832031 C 30.941406 20.839844 31.269531 20.863281 31.59375 20.863281 C 32.15625 20.863281 32.71875 20.863281 33.277344 20.863281 Z M 26.246094 24.375 C 26.011719 24.390625 25.777344 24.386719 25.542969 24.386719 C 25.417969 24.386719 25.398438 24.40625 25.390625 24.527344 C 25.378906 24.707031 25.371094 24.886719 25.417969 25.066406 C 25.449219 25.1875 25.464844 25.210938 25.589844 25.214844 C 25.699219 25.222656 25.808594 25.214844 25.917969 25.214844 C 26.304688 25.214844 26.691406 25.210938 27.078125 25.183594 C 27.769531 25.132812 28.460938 25.113281 29.152344 25.109375 C 29.316406 25.109375 29.480469 25.132812 29.640625 25.117188 C 29.996094 25.082031 30.347656 25.089844 30.703125 25.105469 C 30.898438 25.113281 31.09375 25.117188 31.292969 25.125 C 31.421875 25.128906 31.554688 25.113281 31.683594 25.097656 C 31.832031 25.078125 31.863281 25.042969 31.851562 24.898438 C 31.84375 24.78125 31.832031 24.667969 31.8125 24.554688 C 31.796875 24.4375 31.777344 24.417969 31.652344 24.417969 C 30.890625 24.417969 30.128906 24.402344 29.367188 24.34375 C 28.753906 24.296875 28.136719 24.34375 27.601562 24.335938 C 27.09375 24.347656 26.671875 24.34375 26.246094 24.375 Z M 35.417969 24.367188 C 34.929688 24.085938 34.550781 23.6875 34.234375 23.230469 C 34.195312 23.175781 34.171875 23.117188 34.132812 23.0625 C 34.097656 23.007812 34.054688 23.007812 34.015625 23.058594 C 33.945312 23.144531 33.894531 23.242188 33.84375 23.335938 C 33.59375 23.78125 33.40625 24.253906 33.195312 24.714844 C 33.035156 25.058594 32.921875 25.417969 32.847656 25.789062 C 32.835938 25.847656 32.8125 25.90625 32.867188 25.957031 C 32.917969 26.003906 32.96875 25.96875 33.019531 25.953125 C 33.339844 25.84375 33.65625 25.726562 33.960938 25.578125 C 34.457031 25.335938 34.945312 25.085938 35.4375 24.835938 C 35.558594 24.773438 35.671875 24.703125 35.800781 24.597656 C 35.660156 24.511719 35.539062 24.4375 35.417969 24.367188 Z M 35.417969 24.367188 " fill-opacity="1" fill-rule="nonzero"/></g><g clip-path="url(#3a6390f1f3)"><path fill="#ff9459" d="M 43.785156 15.832031 C 43.789062 15.898438 43.792969 15.964844 43.792969 16.03125 C 43.792969 16.871094 43.785156 17.714844 43.800781 18.558594 C 43.8125 19.363281 43.808594 20.167969 43.835938 20.96875 C 43.847656 21.449219 43.835938 21.933594 43.863281 22.414062 C 43.890625 22.816406 43.875 23.222656 43.898438 23.625 C 43.9375 24.351562 43.90625 25.082031 43.925781 25.808594 C 43.945312 26.425781 43.964844 27.042969 43.996094 27.660156 C 44.019531 28.117188 44.035156 28.578125 44.058594 29.035156 C 44.109375 29.9375 44.089844 30.839844 44.078125 31.742188 C 44.074219 32.003906 44.050781 32.265625 44.046875 32.527344 C 44.046875 32.679688 43.996094 32.726562 43.847656 32.757812 C 43.816406 32.761719 43.78125 32.773438 43.75 32.773438 C 43.53125 32.769531 43.316406 32.800781 43.097656 32.8125 C 42.621094 32.839844 42.144531 32.875 41.667969 32.90625 C 41.585938 32.910156 41.503906 32.90625 41.421875 32.910156 C 40.898438 32.933594 40.375 32.945312 39.855469 32.984375 C 39.554688 33.007812 39.257812 32.996094 38.957031 33.015625 C 38.605469 33.042969 38.25 33.058594 37.898438 33.074219 C 37.453125 33.097656 37.007812 33.121094 36.5625 33.167969 C 36.390625 33.183594 36.214844 33.1875 36.042969 33.199219 C 35.679688 33.226562 35.3125 33.222656 34.949219 33.246094 C 34.121094 33.296875 33.292969 33.257812 32.464844 33.28125 C 32.269531 33.289062 32.074219 33.308594 31.878906 33.296875 C 31.292969 33.265625 30.710938 33.289062 30.128906 33.265625 C 29.578125 33.242188 29.03125 33.222656 28.480469 33.195312 C 28.121094 33.179688 27.761719 33.183594 27.402344 33.171875 C 26.242188 33.132812 25.082031 33.132812 23.921875 33.148438 C 23.253906 33.160156 22.589844 33.179688 21.925781 33.175781 C 21.84375 33.175781 21.765625 33.175781 21.683594 33.152344 C 21.570312 33.125 21.5 33.058594 21.464844 32.953125 C 21.433594 32.859375 21.414062 32.765625 21.402344 32.667969 C 21.371094 32.460938 21.347656 32.253906 21.335938 32.046875 C 21.3125 31.601562 21.277344 31.15625 21.25 30.707031 C 21.238281 30.496094 21.226562 30.28125 21.21875 30.070312 C 21.203125 29.617188 21.167969 29.164062 21.140625 28.710938 C 21.105469 28.171875 21.074219 27.632812 21.039062 27.09375 C 21.007812 26.558594 20.957031 26.027344 20.910156 25.492188 C 20.859375 24.925781 20.804688 24.363281 20.75 23.796875 C 20.691406 23.234375 20.648438 22.667969 20.617188 22.101562 C 20.59375 21.730469 20.570312 21.359375 20.550781 20.988281 C 20.519531 20.496094 20.503906 20.003906 20.484375 19.515625 C 20.4375 18.335938 20.460938 17.160156 20.457031 15.984375 C 20.453125 15.335938 20.464844 14.683594 20.453125 14.03125 C 20.449219 13.78125 20.429688 13.53125 20.421875 13.28125 C 20.417969 13.171875 20.445312 13.113281 20.546875 13.0625 C 20.847656 12.910156 21.140625 12.738281 21.441406 12.589844 C 21.6875 12.464844 21.933594 12.355469 22.183594 12.246094 C 22.9375 11.917969 23.65625 11.53125 24.359375 11.113281 C 25.136719 10.648438 25.910156 10.183594 26.664062 9.679688 C 26.835938 9.5625 27.003906 9.441406 27.175781 9.328125 C 27.25 9.277344 27.269531 9.226562 27.25 9.136719 C 27.078125 8.417969 26.910156 7.703125 26.746094 6.984375 C 26.601562 6.34375 26.382812 5.722656 26.199219 5.097656 C 26.097656 4.746094 25.992188 4.394531 25.949219 4.027344 C 25.9375 3.917969 25.949219 3.894531 26.058594 3.882812 C 26.179688 3.871094 26.300781 3.84375 26.417969 3.859375 C 26.597656 3.882812 26.773438 3.855469 26.953125 3.855469 C 27.914062 3.851562 28.875 3.855469 29.832031 3.851562 C 31.546875 3.851562 33.257812 3.855469 34.96875 3.839844 C 35.433594 3.835938 35.894531 3.828125 36.359375 3.804688 C 36.625 3.792969 36.890625 3.796875 37.15625 3.777344 C 37.761719 3.730469 38.367188 3.765625 38.972656 3.742188 C 40.0625 3.703125 41.152344 3.714844 42.242188 3.722656 C 42.558594 3.722656 42.875 3.738281 43.1875 3.753906 C 43.257812 3.757812 43.332031 3.769531 43.398438 3.789062 C 43.550781 3.832031 43.628906 3.9375 43.632812 4.101562 C 43.632812 4.1875 43.628906 4.277344 43.632812 4.363281 C 43.640625 5.386719 43.640625 6.410156 43.671875 7.433594 C 43.6875 7.988281 43.675781 8.546875 43.703125 9.105469 C 43.738281 9.941406 43.710938 10.777344 43.726562 11.617188 C 43.726562 11.679688 43.707031 11.746094 43.753906 11.804688 C 42.976562 12.722656 42.199219 13.636719 41.386719 14.523438 C 40.703125 15.265625 40.019531 16.007812 39.339844 16.757812 C 38.558594 17.621094 37.832031 18.53125 37.082031 19.421875 C 36.589844 20.011719 36.113281 20.621094 35.589844 21.183594 C 35.242188 21.558594 34.910156 21.941406 34.597656 22.34375 C 34.5 22.46875 34.492188 22.585938 34.5625 22.71875 C 34.605469 22.800781 34.648438 22.882812 34.703125 22.957031 C 34.9375 23.292969 35.21875 23.582031 35.550781 23.816406 C 35.738281 23.949219 35.929688 24.078125 36.148438 24.15625 C 36.222656 24.179688 36.277344 24.1875 36.335938 24.117188 C 36.644531 23.746094 36.984375 23.410156 37.304688 23.050781 C 38 22.265625 38.714844 21.5 39.414062 20.714844 C 40.589844 19.390625 41.753906 18.058594 42.929688 16.734375 C 43.203125 16.425781 43.488281 16.121094 43.785156 15.832031 Z M 34.398438 13.203125 C 34.589844 13.203125 34.921875 13.191406 35.253906 13.183594 C 36.609375 13.15625 37.96875 13.148438 39.324219 13.046875 C 39.625 13.023438 39.929688 13.003906 40.234375 12.976562 C 40.398438 12.960938 40.464844 12.890625 40.449219 12.730469 C 40.429688 12.53125 40.390625 12.332031 40.355469 12.132812 C 40.34375 12.058594 40.300781 12.015625 40.21875 12.023438 C 40.171875 12.027344 40.121094 12.027344 40.074219 12.03125 C 39.71875 12.050781 39.367188 12.078125 39.011719 12.089844 C 38.289062 12.113281 37.5625 12.152344 36.839844 12.207031 C 35.875 12.28125 34.90625 12.339844 33.933594 12.363281 C 33.765625 12.367188 33.597656 12.371094 33.429688 12.378906 C 32.808594 12.410156 32.183594 12.40625 31.566406 12.375 C 30.855469 12.34375 30.148438 12.328125 29.441406 12.367188 C 28.503906 12.425781 27.566406 12.4375 26.628906 12.488281 C 26.253906 12.507812 25.878906 12.511719 25.503906 12.519531 C 25.375 12.519531 25.347656 12.550781 25.351562 12.675781 C 25.351562 12.828125 25.363281 12.980469 25.371094 13.132812 C 25.375 13.296875 25.378906 13.300781 25.546875 13.320312 C 25.597656 13.328125 25.644531 13.332031 25.695312 13.328125 C 26.195312 13.285156 26.695312 13.28125 27.195312 13.277344 C 27.914062 13.273438 28.636719 13.289062 29.355469 13.246094 C 29.792969 13.21875 30.234375 13.199219 30.675781 13.183594 C 31.179688 13.164062 31.679688 13.128906 32.179688 13.152344 C 32.871094 13.183594 33.5625 13.207031 34.398438 13.203125 Z M 32.167969 16.847656 C 33.0625 16.863281 33.972656 16.816406 34.878906 16.796875 C 35.46875 16.78125 36.058594 16.761719 36.644531 16.71875 C 36.800781 16.707031 36.957031 16.6875 37.113281 16.660156 C 37.203125 16.644531 37.230469 16.597656 37.230469 16.515625 C 37.234375 16.328125 37.207031 16.144531 37.1875 15.960938 C 37.179688 15.894531 37.144531 15.863281 37.082031 15.855469 C 37.042969 15.851562 37.003906 15.84375 36.96875 15.84375 C 36.417969 15.867188 35.867188 15.851562 35.316406 15.863281 C 34.621094 15.875 33.921875 15.875 33.226562 15.90625 C 32.320312 15.949219 31.417969 15.945312 30.511719 16 C 30.128906 16.019531 29.742188 16.042969 29.355469 16.054688 C 28.996094 16.070312 28.636719 16.085938 28.277344 16.082031 C 27.929688 16.074219 27.582031 16.0625 27.230469 16.085938 C 26.65625 16.128906 26.078125 16.179688 25.5 16.175781 C 25.46875 16.175781 25.4375 16.175781 25.402344 16.179688 C 25.339844 16.179688 25.300781 16.210938 25.304688 16.28125 C 25.320312 16.445312 25.328125 16.609375 25.351562 16.769531 C 25.367188 16.882812 25.390625 16.90625 25.5 16.898438 C 25.828125 16.871094 26.152344 16.90625 26.480469 16.914062 C 26.785156 16.921875 27.089844 16.890625 27.394531 16.882812 C 28.039062 16.867188 28.679688 16.816406 29.324219 16.824219 C 29.824219 16.828125 30.324219 16.824219 30.828125 16.84375 C 31.269531 16.859375 31.710938 16.847656 32.167969 16.847656 Z M 31.59375 20.863281 C 32.15625 20.863281 32.71875 20.863281 33.277344 20.863281 C 33.496094 20.863281 33.714844 20.855469 33.933594 20.855469 C 34 20.855469 34.035156 20.835938 34.03125 20.761719 C 34.023438 20.53125 34.015625 20.304688 34.011719 20.074219 C 34.011719 20.027344 33.988281 20.003906 33.941406 20.007812 C 33.914062 20.007812 33.886719 20.007812 33.859375 20.007812 C 32.941406 20.03125 32.027344 20.007812 31.113281 20.035156 C 30.441406 20.054688 29.773438 20.082031 29.101562 20.113281 C 28.257812 20.15625 27.414062 20.144531 26.570312 20.121094 C 26.171875 20.113281 25.773438 20.144531 25.378906 20.140625 C 25.367188 20.140625 25.355469 20.140625 25.34375 20.144531 C 25.234375 20.160156 25.210938 20.179688 25.207031 20.289062 C 25.199219 20.5 25.238281 20.703125 25.273438 20.90625 C 25.285156 20.988281 25.339844 21.03125 25.421875 21.027344 C 25.515625 21.027344 25.605469 21.03125 25.699219 21.023438 C 26.160156 20.992188 26.625 20.964844 27.085938 20.960938 C 27.550781 20.957031 28.011719 20.9375 28.476562 20.914062 C 29.1875 20.878906 29.898438 20.820312 30.613281 20.832031 C 30.941406 20.839844 31.269531 20.863281 31.59375 20.863281 Z M 27.601562 24.335938 C 27.09375 24.347656 26.671875 24.34375 26.246094 24.375 C 26.011719 24.390625 25.777344 24.386719 25.542969 24.386719 C 25.417969 24.386719 25.398438 24.40625 25.390625 24.527344 C 25.378906 24.707031 25.371094 24.886719 25.417969 25.066406 C 25.449219 25.1875 25.464844 25.210938 25.589844 25.214844 C 25.699219 25.222656 25.808594 25.214844 25.917969 25.214844 C 26.304688 25.214844 26.691406 25.210938 27.078125 25.183594 C 27.769531 25.132812 28.460938 25.113281 29.152344 25.109375 C 29.316406 25.109375 29.480469 25.132812 29.640625 25.117188 C 29.996094 25.082031 30.347656 25.089844 30.703125 25.105469 C 30.898438 25.113281 31.09375 25.117188 31.292969 25.125 C 31.421875 25.128906 31.554688 25.113281 31.683594 25.097656 C 31.832031 25.078125 31.863281 25.042969 31.851562 24.898438 C 31.84375 24.78125 31.832031 24.667969 31.8125 24.554688 C 31.796875 24.4375 31.777344 24.417969 31.652344 24.417969 C 30.890625 24.417969 30.128906 24.402344 29.367188 24.34375 C 28.753906 24.296875 28.136719 24.34375 27.601562 24.335938 Z M 35.800781 24.597656 C 35.660156 24.511719 35.539062 24.4375 35.417969 24.367188 C 34.929688 24.085938 34.550781 23.6875 34.234375 23.230469 C 34.195312 23.175781 34.171875 23.117188 34.132812 23.0625 C 34.097656 23.007812 34.054688 23.007812 34.015625 23.058594 C 33.945312 23.144531 33.894531 23.242188 33.84375 23.335938 C 33.59375 23.78125 33.40625 24.253906 33.195312 24.714844 C 33.035156 25.058594 32.921875 25.417969 32.847656 25.789062 C 32.835938 25.847656 32.8125 25.90625 32.867188 25.957031 C 32.917969 26.003906 32.96875 25.96875 33.019531 25.953125 C 33.339844 25.84375 33.65625 25.726562 33.960938 25.578125 C 34.457031 25.335938 34.945312 25.085938 35.4375 24.835938 C 35.558594 24.773438 35.671875 24.703125 35.800781 24.597656 Z M 26.046875 8.613281 C 25.984375 8.304688 25.929688 7.988281 25.847656 7.6875 C 25.707031 7.175781 25.550781 6.667969 25.386719 6.164062 C 25.226562 5.671875 25.085938 5.175781 24.96875 4.667969 C 24.921875 4.476562 24.863281 4.289062 24.804688 4.101562 C 24.789062 4.058594 24.792969 3.992188 24.734375 3.984375 C 24.671875 3.976562 24.667969 4.046875 24.644531 4.085938 C 24.59375 4.179688 24.546875 4.28125 24.492188 4.375 C 24.289062 4.710938 24.097656 5.054688 23.90625 5.398438 C 23.722656 5.734375 23.546875 6.074219 23.359375 6.40625 C 23.183594 6.707031 22.992188 7 22.839844 7.316406 C 22.664062 7.679688 22.488281 8.042969 22.308594 8.40625 C 22.046875 8.945312 21.761719 9.476562 21.484375 10.007812 C 21.152344 10.640625 20.792969 11.261719 20.492188 11.910156 C 20.476562 11.945312 20.441406 11.976562 20.476562 12.011719 C 20.503906 12.039062 20.539062 12.015625 20.566406 12 C 20.863281 11.828125 21.183594 11.695312 21.480469 11.523438 C 22.511719 10.929688 23.539062 10.339844 24.5625 9.730469 C 25.035156 9.449219 25.484375 9.132812 25.949219 8.835938 C 26.011719 8.792969 26.054688 8.742188 26.050781 8.660156 C 26.050781 8.644531 26.050781 8.628906 26.046875 8.613281 Z M 26.046875 8.613281 " fill-opacity="1" fill-rule="nonzero"/></g><path fill="#1b1b1b" d="M 43.785156 15.832031 C 43.488281 16.121094 43.203125 16.425781 42.929688 16.734375 C 41.753906 18.058594 40.589844 19.390625 39.414062 20.714844 C 38.714844 21.5 38 22.265625 37.304688 23.050781 C 36.984375 23.410156 36.644531 23.746094 36.335938 24.117188 C 36.277344 24.1875 36.222656 24.179688 36.148438 24.15625 C 35.929688 24.078125 35.738281 23.949219 35.550781 23.816406 C 35.21875 23.582031 34.9375 23.292969 34.703125 22.957031 C 34.648438 22.882812 34.605469 22.800781 34.5625 22.71875 C 34.492188 22.585938 34.5 22.46875 34.597656 22.34375 C 34.910156 21.941406 35.242188 21.558594 35.589844 21.183594 C 36.113281 20.621094 36.589844 20.011719 37.082031 19.421875 C 37.832031 18.53125 38.558594 17.621094 39.339844 16.757812 C 40.019531 16.007812 40.703125 15.265625 41.386719 14.523438 C 42.199219 13.636719 42.976562 12.722656 43.753906 11.804688 C 44.113281 11.40625 44.460938 11 44.828125 10.613281 C 45.375 10.03125 45.917969 9.449219 46.425781 8.832031 C 46.4375 8.816406 46.453125 8.800781 46.46875 8.785156 C 46.519531 8.734375 46.5625 8.738281 46.601562 8.796875 C 46.710938 8.945312 46.835938 9.085938 46.960938 9.222656 C 47.339844 9.652344 47.78125 10.003906 48.238281 10.339844 C 48.308594 10.390625 48.390625 10.425781 48.46875 10.46875 C 48.554688 10.519531 48.558594 10.527344 48.5 10.601562 C 48.421875 10.703125 48.347656 10.804688 48.257812 10.894531 C 47.667969 11.484375 47.148438 12.140625 46.578125 12.75 C 45.65625 13.734375 44.773438 14.757812 43.855469 15.742188 C 43.828125 15.773438 43.808594 15.804688 43.785156 15.832031 Z M 47.984375 7.226562 C 47.621094 7.460938 47.335938 7.777344 47.0625 8.105469 C 46.984375 8.199219 46.984375 8.238281 47.054688 8.339844 C 47.113281 8.425781 47.175781 8.507812 47.242188 8.585938 C 47.640625 9.039062 48.097656 9.429688 48.566406 9.808594 C 48.660156 9.886719 48.769531 9.953125 48.882812 10.003906 C 48.953125 10.035156 49.007812 10.035156 49.058594 9.972656 C 49.207031 9.804688 49.371094 9.652344 49.507812 9.476562 C 49.714844 9.214844 49.859375 8.925781 49.917969 8.59375 C 49.976562 8.285156 49.890625 8.027344 49.699219 7.785156 C 49.507812 7.542969 49.265625 7.359375 49.007812 7.195312 C 48.855469 7.097656 48.683594 7.066406 48.519531 7.066406 C 48.316406 7.066406 48.140625 7.121094 47.984375 7.226562 Z M 35.253906 13.183594 C 36.609375 13.15625 37.96875 13.148438 39.324219 13.046875 C 39.625 13.023438 39.929688 13.003906 40.234375 12.976562 C 40.398438 12.960938 40.464844 12.890625 40.449219 12.730469 C 40.429688 12.53125 40.390625 12.332031 40.355469 12.132812 C 40.34375 12.058594 40.300781 12.015625 40.21875 12.023438 C 40.171875 12.027344 40.121094 12.027344 40.074219 12.03125 C 39.71875 12.050781 39.367188 12.078125 39.011719 12.089844 C 38.289062 12.113281 37.5625 12.152344 36.839844 12.207031 C 35.875 12.28125 34.90625 12.339844 33.933594 12.363281 C 33.765625 12.367188 33.597656 12.371094 33.429688 12.378906 C 32.808594 12.410156 32.183594 12.40625 31.566406 12.375 C 30.855469 12.34375 30.148438 12.328125 29.441406 12.367188 C 28.503906 12.425781 27.566406 12.4375 26.628906 12.488281 C 26.253906 12.507812 25.878906 12.511719 25.503906 12.519531 C 25.375 12.519531 25.347656 12.550781 25.351562 12.675781 C 25.351562 12.828125 25.363281 12.980469 25.371094 13.132812 C 25.375 13.296875 25.378906 13.300781 25.546875 13.320312 C 25.597656 13.328125 25.644531 13.332031 25.695312 13.328125 C 26.195312 13.285156 26.695312 13.28125 27.195312 13.277344 C 27.914062 13.273438 28.636719 13.289062 29.355469 13.246094 C 29.792969 13.21875 30.234375 13.199219 30.675781 13.183594 C 31.179688 13.164062 31.679688 13.128906 32.179688 13.152344 C 32.871094 13.183594 33.5625 13.207031 34.398438 13.203125 C 34.589844 13.203125 34.921875 13.191406 35.253906 13.183594 Z M 34.878906 16.796875 C 35.46875 16.78125 36.058594 16.761719 36.644531 16.71875 C 36.800781 16.707031 36.957031 16.6875 37.113281 16.660156 C 37.203125 16.644531 37.230469 16.597656 37.230469 16.515625 C 37.234375 16.328125 37.207031 16.144531 37.1875 15.960938 C 37.179688 15.894531 37.144531 15.863281 37.082031 15.855469 C 37.042969 15.851562 37.003906 15.84375 36.96875 15.84375 C 36.417969 15.867188 35.867188 15.851562 35.316406 15.863281 C 34.621094 15.875 33.921875 15.875 33.226562 15.90625 C 32.320312 15.949219 31.417969 15.945312 30.511719 16 C 30.128906 16.019531 29.742188 16.042969 29.355469 16.054688 C 28.996094 16.070312 28.636719 16.085938 28.277344 16.082031 C 27.929688 16.074219 27.582031 16.0625 27.230469 16.085938 C 26.65625 16.128906 26.078125 16.179688 25.5 16.175781 C 25.46875 16.175781 25.4375 16.175781 25.402344 16.179688 C 25.339844 16.179688 25.300781 16.210938 25.304688 16.28125 C 25.320312 16.445312 25.328125 16.609375 25.351562 16.769531 C 25.367188 16.882812 25.390625 16.90625 25.5 16.898438 C 25.828125 16.871094 26.152344 16.90625 26.480469 16.914062 C 26.785156 16.921875 27.089844 16.890625 27.394531 16.882812 C 28.039062 16.867188 28.679688 16.816406 29.324219 16.824219 C 29.824219 16.828125 30.324219 16.824219 30.828125 16.84375 C 31.269531 16.859375 31.710938 16.847656 32.167969 16.847656 C 33.0625 16.863281 33.972656 16.816406 34.878906 16.796875 Z M 33.277344 20.863281 C 33.496094 20.863281 33.714844 20.855469 33.933594 20.855469 C 34 20.855469 34.035156 20.835938 34.03125 20.761719 C 34.023438 20.53125 34.015625 20.304688 34.011719 20.074219 C 34.011719 20.027344 33.988281 20.003906 33.941406 20.007812 C 33.914062 20.007812 33.886719 20.007812 33.859375 20.007812 C 32.941406 20.03125 32.027344 20.007812 31.113281 20.035156 C 30.441406 20.054688 29.773438 20.082031 29.101562 20.113281 C 28.257812 20.15625 27.414062 20.144531 26.570312 20.121094 C 26.171875 20.113281 25.773438 20.144531 25.378906 20.140625 C 25.367188 20.140625 25.355469 20.140625 25.34375 20.144531 C 25.234375 20.160156 25.210938 20.179688 25.207031 20.289062 C 25.199219 20.5 25.238281 20.703125 25.273438 20.90625 C 25.285156 20.988281 25.339844 21.03125 25.421875 21.027344 C 25.515625 21.027344 25.605469 21.03125 25.699219 21.023438 C 26.160156 20.992188 26.625 20.964844 27.085938 20.960938 C 27.550781 20.957031 28.011719 20.9375 28.476562 20.914062 C 29.1875 20.878906 29.898438 20.820312 30.613281 20.832031 C 30.941406 20.839844 31.269531 20.863281 31.59375 20.863281 C 32.15625 20.863281 32.71875 20.863281 33.277344 20.863281 Z M 26.246094 24.375 C 26.011719 24.390625 25.777344 24.386719 25.542969 24.386719 C 25.417969 24.386719 25.398438 24.40625 25.390625 24.527344 C 25.378906 24.707031 25.371094 24.886719 25.417969 25.066406 C 25.449219 25.1875 25.464844 25.210938 25.589844 25.214844 C 25.699219 25.222656 25.808594 25.214844 25.917969 25.214844 C 26.304688 25.214844 26.691406 25.210938 27.078125 25.183594 C 27.769531 25.132812 28.460938 25.113281 29.152344 25.109375 C 29.316406 25.109375 29.480469 25.132812 29.640625 25.117188 C 29.996094 25.082031 30.347656 25.089844 30.703125 25.105469 C 30.898438 25.113281 31.09375 25.117188 31.292969 25.125 C 31.421875 25.128906 31.554688 25.113281 31.683594 25.097656 C 31.832031 25.078125 31.863281 25.042969 31.851562 24.898438 C 31.84375 24.78125 31.832031 24.667969 31.8125 24.554688 C 31.796875 24.4375 31.777344 24.417969 31.652344 24.417969 C 30.890625 24.417969 30.128906 24.402344 29.367188 24.34375 C 28.753906 24.296875 28.136719 24.34375 27.601562 24.335938 C 27.09375 24.347656 26.671875 24.34375 26.246094 24.375 Z M 35.417969 24.367188 C 34.929688 24.085938 34.550781 23.6875 34.234375 23.230469 C 34.195312 23.175781 34.171875 23.117188 34.132812 23.0625 C 34.097656 23.007812 34.054688 23.007812 34.015625 23.058594 C 33.945312 23.144531 33.894531 23.242188 33.84375 23.335938 C 33.59375 23.78125 33.40625 24.253906 33.195312 24.714844 C 33.035156 25.058594 32.921875 25.417969 32.847656 25.789062 C 32.835938 25.847656 32.8125 25.90625 32.867188 25.957031 C 32.917969 26.003906 32.96875 25.96875 33.019531 25.953125 C 33.339844 25.84375 33.65625 25.726562 33.960938 25.578125 C 34.457031 25.335938 34.945312 25.085938 35.4375 24.835938 C 35.558594 24.773438 35.671875 24.703125 35.800781 24.597656 C 35.660156 24.511719 35.539062 24.4375 35.417969 24.367188 Z M 35.417969 24.367188 " fill-opacity="1" fill-rule="nonzero"/></svg>