<svg xmlns="http://www.w3.org/2000/svg" xmlns:xlink="http://www.w3.org/1999/xlink" width="185" zoomAndPan="magnify" viewBox="0 0 138.75 63.749997" height="85" preserveAspectRatio="xMidYMid meet" version="1.0"><defs><g/><clipPath id="40be541298"><path d="M 81.460938 4 L 135.347656 4 L 135.347656 58 L 81.460938 58 Z M 81.460938 4 " clip-rule="nonzero"/></clipPath><clipPath id="bdc5cf5d9d"><path d="M 143.652344 44.484375 L 92.539062 66.976562 L 71.074219 18.636719 L 122.1875 -3.855469 Z M 143.652344 44.484375 " clip-rule="nonzero"/></clipPath><clipPath id="64cb4b77e5"><path d="M 143.652344 44.484375 L 92.539062 66.976562 L 71.074219 18.636719 L 122.1875 -3.855469 Z M 143.652344 44.484375 " clip-rule="nonzero"/></clipPath></defs><g clip-path="url(#40be541298)"><g clip-path="url(#bdc5cf5d9d)"><g clip-path="url(#64cb4b77e5)"><path fill="#ff9459" d="M 99.941406 11.917969 C 110.652344 7.203125 123.144531 11.964844 127.847656 22.550781 C 132.542969 33.132812 127.675781 45.535156 116.960938 50.25 C 108.617188 53.921875 99.199219 51.835938 93.21875 45.734375 L 93.984375 45.398438 L 96.859375 44.128906 L 87.03125 38.273438 L 84.769531 49.453125 L 87.824219 48.109375 L 87.898438 48.078125 C 95.3125 56.90625 108.011719 60.167969 119.183594 55.25 C 132.695312 49.308594 138.835938 33.667969 132.910156 20.320312 C 126.980469 6.96875 111.230469 0.96875 97.71875 6.910156 C 88.753906 10.859375 83.039062 19.078125 81.941406 28.0625 L 87.546875 27.933594 C 88.632812 21.105469 93.085938 14.933594 99.941406 11.917969 Z M 99.941406 11.917969 " fill-opacity="1" fill-rule="nonzero"/></g></g></g><path fill="#1b1b1b" d="M 98.351562 29.859375 C 99.488281 30.042969 100.363281 30.46875 100.96875 31.125 C 101.578125 31.789062 101.882812 32.605469 101.882812 33.582031 C 101.882812 34.335938 101.683594 35.03125 101.285156 35.667969 C 100.886719 36.304688 100.28125 36.8125 99.472656 37.191406 C 98.660156 37.570312 97.667969 37.761719 96.492188 37.761719 C 95.570312 37.761719 94.667969 37.640625 93.777344 37.402344 C 92.894531 37.164062 92.144531 36.820312 91.519531 36.378906 L 92.703125 34.082031 C 93.191406 34.449219 93.761719 34.734375 94.410156 34.945312 C 95.0625 35.148438 95.734375 35.25 96.421875 35.25 C 97.175781 35.25 97.769531 35.105469 98.199219 34.816406 C 98.632812 34.523438 98.851562 34.113281 98.851562 33.582031 C 98.851562 32.519531 98.039062 31.988281 96.421875 31.988281 L 95.039062 31.988281 L 95.039062 30.007812 L 97.71875 26.992188 L 92.175781 26.992188 L 92.175781 24.585938 L 101.285156 24.585938 L 101.285156 26.527344 Z M 98.351562 29.859375 " fill-opacity="1" fill-rule="nonzero"/><path fill="#1b1b1b" d="M 108.6875 29.414062 C 109.511719 29.414062 110.265625 29.585938 110.945312 29.917969 C 111.628906 30.25 112.171875 30.726562 112.570312 31.335938 C 112.96875 31.941406 113.167969 32.648438 113.167969 33.457031 C 113.167969 34.316406 112.945312 35.074219 112.511719 35.726562 C 112.082031 36.378906 111.488281 36.882812 110.734375 37.238281 C 109.984375 37.589844 109.15625 37.761719 108.242188 37.761719 C 106.417969 37.761719 104.992188 37.210938 103.960938 36.097656 C 102.933594 34.988281 102.417969 33.402344 102.417969 31.335938 C 102.417969 29.871094 102.695312 28.613281 103.25 27.5625 C 103.8125 26.515625 104.589844 25.722656 105.589844 25.179688 C 106.585938 24.636719 107.742188 24.363281 109.0625 24.363281 C 109.753906 24.363281 110.417969 24.441406 111.050781 24.597656 C 111.6875 24.753906 112.234375 24.96875 112.6875 25.246094 L 111.5625 27.449219 C 110.921875 27.023438 110.113281 26.808594 109.132812 26.808594 C 108.023438 26.808594 107.148438 27.128906 106.5 27.773438 C 105.859375 28.410156 105.519531 29.34375 105.472656 30.566406 C 106.234375 29.800781 107.308594 29.414062 108.6875 29.414062 Z M 108.066406 35.527344 C 108.714844 35.527344 109.238281 35.359375 109.632812 35.015625 C 110.039062 34.667969 110.242188 34.195312 110.242188 33.59375 C 110.242188 33.007812 110.039062 32.535156 109.632812 32.1875 C 109.238281 31.832031 108.703125 31.652344 108.03125 31.652344 C 107.378906 31.652344 106.839844 31.835938 106.417969 32.199219 C 105.996094 32.566406 105.789062 33.03125 105.789062 33.59375 C 105.789062 34.164062 105.988281 34.628906 106.394531 34.992188 C 106.808594 35.351562 107.367188 35.527344 108.066406 35.527344 Z M 108.066406 35.527344 " fill-opacity="1" fill-rule="nonzero"/><path fill="#1b1b1b" d="M 118.984375 37.761719 C 117.90625 37.761719 116.941406 37.5 116.09375 36.972656 C 115.253906 36.4375 114.59375 35.667969 114.117188 34.667969 C 113.640625 33.660156 113.40625 32.460938 113.40625 31.070312 C 113.40625 29.671875 113.640625 28.472656 114.117188 27.472656 C 114.59375 26.464844 115.253906 25.695312 116.09375 25.167969 C 116.941406 24.628906 117.90625 24.363281 118.984375 24.363281 C 120.058594 24.363281 121.019531 24.628906 121.859375 25.167969 C 122.707031 25.695312 123.371094 26.464844 123.847656 27.472656 C 124.320312 28.472656 124.5625 29.671875 124.5625 31.070312 C 124.5625 32.460938 124.320312 33.660156 123.847656 34.667969 C 123.371094 35.667969 122.707031 36.4375 121.859375 36.972656 C 121.019531 37.5 120.058594 37.761719 118.984375 37.761719 Z M 118.984375 35.226562 C 119.777344 35.226562 120.402344 34.886719 120.855469 34.210938 C 121.304688 33.53125 121.53125 32.484375 121.53125 31.070312 C 121.53125 29.648438 121.304688 28.601562 120.855469 27.925781 C 120.402344 27.246094 119.777344 26.902344 118.984375 26.902344 C 118.203125 26.902344 117.585938 27.246094 117.136719 27.925781 C 116.683594 28.601562 116.457031 29.648438 116.457031 31.070312 C 116.457031 32.484375 116.683594 33.53125 117.136719 34.210938 C 117.585938 34.886719 118.203125 35.226562 118.984375 35.226562 Z M 118.984375 35.226562 " fill-opacity="1" fill-rule="nonzero"/><g fill="#1b1b1b" fill-opacity="1"><g transform="translate(4.09821, 38.282573)"><g><path d="M 11.65625 -2.421875 L 11.65625 0 L 1.546875 0 L 1.546875 -13.046875 L 11.40625 -13.046875 L 11.40625 -10.625 L 4.546875 -10.625 L 4.546875 -7.796875 L 10.609375 -7.796875 L 10.609375 -5.4375 L 4.546875 -5.4375 L 4.546875 -2.421875 Z M 11.65625 -2.421875 "/></g></g></g><g fill="#1b1b1b" fill-opacity="1"><g transform="translate(16.734772, 38.282573)"><g><path d="M 4.71875 0.15625 C 3.882812 0.15625 3.066406 0.0507812 2.265625 -0.15625 C 1.472656 -0.363281 0.84375 -0.625 0.375 -0.9375 L 1.34375 -3.015625 C 1.789062 -2.734375 2.332031 -2.5 2.96875 -2.3125 C 3.601562 -2.132812 4.222656 -2.046875 4.828125 -2.046875 C 6.054688 -2.046875 6.671875 -2.351562 6.671875 -2.96875 C 6.671875 -3.25 6.503906 -3.453125 6.171875 -3.578125 C 5.835938 -3.703125 5.320312 -3.804688 4.625 -3.890625 C 3.800781 -4.015625 3.125 -4.15625 2.59375 -4.3125 C 2.0625 -4.476562 1.597656 -4.765625 1.203125 -5.171875 C 0.804688 -5.585938 0.609375 -6.175781 0.609375 -6.9375 C 0.609375 -7.570312 0.789062 -8.132812 1.15625 -8.625 C 1.53125 -9.113281 2.066406 -9.492188 2.765625 -9.765625 C 3.472656 -10.035156 4.300781 -10.171875 5.25 -10.171875 C 5.957031 -10.171875 6.660156 -10.09375 7.359375 -9.9375 C 8.066406 -9.789062 8.648438 -9.578125 9.109375 -9.296875 L 8.140625 -7.234375 C 7.265625 -7.734375 6.300781 -7.984375 5.25 -7.984375 C 4.632812 -7.984375 4.171875 -7.894531 3.859375 -7.71875 C 3.546875 -7.539062 3.390625 -7.316406 3.390625 -7.046875 C 3.390625 -6.734375 3.554688 -6.515625 3.890625 -6.390625 C 4.234375 -6.265625 4.769531 -6.148438 5.5 -6.046875 C 6.320312 -5.898438 6.992188 -5.75 7.515625 -5.59375 C 8.035156 -5.445312 8.488281 -5.164062 8.875 -4.75 C 9.257812 -4.34375 9.453125 -3.769531 9.453125 -3.03125 C 9.453125 -2.414062 9.265625 -1.863281 8.890625 -1.375 C 8.515625 -0.894531 7.96875 -0.519531 7.25 -0.25 C 6.539062 0.0195312 5.695312 0.15625 4.71875 0.15625 Z M 4.71875 0.15625 "/></g></g></g><g fill="#1b1b1b" fill-opacity="1"><g transform="translate(26.762034, 38.282573)"><g><path d="M 7.8125 -0.484375 C 7.519531 -0.273438 7.164062 -0.113281 6.75 0 C 6.332031 0.101562 5.894531 0.15625 5.4375 0.15625 C 4.25 0.15625 3.328125 -0.144531 2.671875 -0.75 C 2.023438 -1.363281 1.703125 -2.265625 1.703125 -3.453125 L 1.703125 -7.5625 L 0.15625 -7.5625 L 0.15625 -9.8125 L 1.703125 -9.8125 L 1.703125 -12.25 L 4.609375 -12.25 L 4.609375 -9.8125 L 7.109375 -9.8125 L 7.109375 -7.5625 L 4.609375 -7.5625 L 4.609375 -3.484375 C 4.609375 -3.066406 4.710938 -2.738281 4.921875 -2.5 C 5.140625 -2.269531 5.453125 -2.15625 5.859375 -2.15625 C 6.316406 -2.15625 6.707031 -2.28125 7.03125 -2.53125 Z M 7.8125 -0.484375 "/></g></g></g><g fill="#1b1b1b" fill-opacity="1"><g transform="translate(35.00007, 38.282573)"><g><path d="M 11.4375 -10.03125 L 11.4375 0 L 8.6875 0 L 8.6875 -1.1875 C 8.300781 -0.757812 7.835938 -0.425781 7.296875 -0.1875 C 6.765625 0.0390625 6.191406 0.15625 5.578125 0.15625 C 4.253906 0.15625 3.207031 -0.222656 2.4375 -0.984375 C 1.664062 -1.742188 1.28125 -2.867188 1.28125 -4.359375 L 1.28125 -10.03125 L 4.1875 -10.03125 L 4.1875 -4.796875 C 4.1875 -3.179688 4.863281 -2.375 6.21875 -2.375 C 6.914062 -2.375 7.472656 -2.597656 7.890625 -3.046875 C 8.316406 -3.503906 8.53125 -4.175781 8.53125 -5.0625 L 8.53125 -10.03125 Z M 11.4375 -10.03125 "/></g></g></g><g fill="#1b1b1b" fill-opacity="1"><g transform="translate(47.934831, 38.282573)"><g><path d="M 11.5625 -13.828125 L 11.5625 0 L 8.78125 0 L 8.78125 -1.15625 C 8.0625 -0.28125 7.015625 0.15625 5.640625 0.15625 C 4.703125 0.15625 3.847656 -0.0546875 3.078125 -0.484375 C 2.316406 -0.910156 1.71875 -1.515625 1.28125 -2.296875 C 0.851562 -3.078125 0.640625 -3.984375 0.640625 -5.015625 C 0.640625 -6.046875 0.851562 -6.953125 1.28125 -7.734375 C 1.71875 -8.515625 2.316406 -9.113281 3.078125 -9.53125 C 3.847656 -9.957031 4.703125 -10.171875 5.640625 -10.171875 C 6.921875 -10.171875 7.925781 -9.769531 8.65625 -8.96875 L 8.65625 -13.828125 Z M 6.15625 -2.234375 C 6.882812 -2.234375 7.488281 -2.484375 7.96875 -2.984375 C 8.457031 -3.492188 8.703125 -4.171875 8.703125 -5.015625 C 8.703125 -5.859375 8.457031 -6.53125 7.96875 -7.03125 C 7.488281 -7.539062 6.882812 -7.796875 6.15625 -7.796875 C 5.40625 -7.796875 4.785156 -7.539062 4.296875 -7.03125 C 3.816406 -6.53125 3.578125 -5.859375 3.578125 -5.015625 C 3.578125 -4.171875 3.816406 -3.492188 4.296875 -2.984375 C 4.785156 -2.484375 5.40625 -2.234375 6.15625 -2.234375 Z M 6.15625 -2.234375 "/></g></g></g><g fill="#1b1b1b" fill-opacity="1"><g transform="translate(60.962778, 38.282573)"><g><path d="M 1.34375 -10.03125 L 4.25 -10.03125 L 4.25 0 L 1.34375 0 Z M 2.796875 -11.421875 C 2.265625 -11.421875 1.828125 -11.578125 1.484375 -11.890625 C 1.148438 -12.203125 0.984375 -12.585938 0.984375 -13.046875 C 0.984375 -13.503906 1.148438 -13.890625 1.484375 -14.203125 C 1.828125 -14.515625 2.265625 -14.671875 2.796875 -14.671875 C 3.328125 -14.671875 3.757812 -14.519531 4.09375 -14.21875 C 4.4375 -13.925781 4.609375 -13.554688 4.609375 -13.109375 C 4.609375 -12.617188 4.4375 -12.210938 4.09375 -11.890625 C 3.757812 -11.578125 3.328125 -11.421875 2.796875 -11.421875 Z M 2.796875 -11.421875 "/></g></g></g><g fill="#1b1b1b" fill-opacity="1"><g transform="translate(66.703343, 38.282573)"><g><path d="M 6.109375 0.15625 C 5.054688 0.15625 4.109375 -0.0625 3.265625 -0.5 C 2.429688 -0.945312 1.773438 -1.5625 1.296875 -2.34375 C 0.828125 -3.125 0.59375 -4.015625 0.59375 -5.015625 C 0.59375 -6.003906 0.828125 -6.890625 1.296875 -7.671875 C 1.773438 -8.460938 2.429688 -9.078125 3.265625 -9.515625 C 4.109375 -9.953125 5.054688 -10.171875 6.109375 -10.171875 C 7.171875 -10.171875 8.117188 -9.953125 8.953125 -9.515625 C 9.785156 -9.078125 10.4375 -8.460938 10.90625 -7.671875 C 11.375 -6.890625 11.609375 -6.003906 11.609375 -5.015625 C 11.609375 -4.015625 11.375 -3.125 10.90625 -2.34375 C 10.4375 -1.5625 9.785156 -0.945312 8.953125 -0.5 C 8.117188 -0.0625 7.171875 0.15625 6.109375 0.15625 Z M 6.109375 -2.234375 C 6.859375 -2.234375 7.472656 -2.484375 7.953125 -2.984375 C 8.429688 -3.492188 8.671875 -4.171875 8.671875 -5.015625 C 8.671875 -5.859375 8.429688 -6.53125 7.953125 -7.03125 C 7.472656 -7.539062 6.859375 -7.796875 6.109375 -7.796875 C 5.367188 -7.796875 4.753906 -7.539062 4.265625 -7.03125 C 3.785156 -6.53125 3.546875 -5.859375 3.546875 -5.015625 C 3.546875 -4.171875 3.785156 -3.492188 4.265625 -2.984375 C 4.753906 -2.484375 5.367188 -2.234375 6.109375 -2.234375 Z M 6.109375 -2.234375 "/></g></g></g></svg>