<svg xmlns="http://www.w3.org/2000/svg" xmlns:xlink="http://www.w3.org/1999/xlink" width="1250" zoomAndPan="magnify" viewBox="0 0 937.5 172.499995" height="230" preserveAspectRatio="xMidYMid meet" version="1.0"><defs><clipPath id="aa64f564e3"><path d="M 1.105469 0 L 935.894531 0 L 935.894531 172 L 1.105469 172 Z M 1.105469 0 " clip-rule="nonzero"/></clipPath><clipPath id="8852049e5c"><path d="M 427.222656 39.023438 L 511.933594 39.023438 L 511.933594 139.175781 L 427.222656 139.175781 Z M 427.222656 39.023438 " clip-rule="nonzero"/></clipPath><clipPath id="e9077795b4"><path d="M 499.179688 39.023438 L 577.5 39.023438 L 577.5 139.175781 L 499.179688 139.175781 Z M 499.179688 39.023438 " clip-rule="nonzero"/></clipPath><clipPath id="339e62613d"><path d="M 339.480469 59.355469 L 357.011719 59.355469 L 357.011719 113.78125 L 339.480469 113.78125 Z M 339.480469 59.355469 " clip-rule="nonzero"/></clipPath><clipPath id="b96aa073f6"><path d="M 580.535156 57.523438 L 598.074219 57.523438 L 598.074219 115.902344 L 580.535156 115.902344 Z M 580.535156 57.523438 " clip-rule="nonzero"/></clipPath><clipPath id="6350a24d9d"><path d="M 574 65 L 607.46875 65 L 607.46875 108 L 574 108 Z M 574 65 " clip-rule="nonzero"/></clipPath></defs><g clip-path="url(#aa64f564e3)"><path fill="#ffffff" d="M 1.105469 0 L 936.394531 0 L 936.394531 178.828125 L 1.105469 178.828125 Z M 1.105469 0 " fill-opacity="1" fill-rule="nonzero"/><path fill="#ffffff" d="M 1.105469 0 L 936.394531 0 L 936.394531 172.09375 L 1.105469 172.09375 Z M 1.105469 0 " fill-opacity="1" fill-rule="nonzero"/><path fill="#ffffff" d="M 1.105469 0 L 936.394531 0 L 936.394531 172.09375 L 1.105469 172.09375 Z M 1.105469 0 " fill-opacity="1" fill-rule="nonzero"/></g><path stroke-linecap="butt" transform="matrix(0, -0.643181, 0.641982, 0, 346.848717, 153.162455)" fill="none" stroke-linejoin="miter" d="M -0.00249926 0.497291 L 210.620679 0.497291 " stroke="#000000" stroke-width="1" stroke-opacity="1" stroke-miterlimit="4"/><path stroke-linecap="butt" transform="matrix(0, -0.64164, 0.641982, 0, 588.275154, 152.520489)" fill="none" stroke-linejoin="miter" d="M -0.00459457 0.496269 L 209.115326 0.496269 " stroke="#000000" stroke-width="1" stroke-opacity="1" stroke-miterlimit="4"/><path fill="#d9d9d9" d="M 371.875 65.371094 C 360.972656 79.09375 357.027344 102.679688 371.875 118.035156 C 386.722656 133.394531 411.367188 127.363281 428.765625 130.101562 C 446.160156 132.84375 467.613281 132.84375 472 108.710938 C 476.410156 84.574219 465.949219 78.542969 436.230469 61.523438 C 406.511719 44.507812 392.792969 39.023438 371.875 65.371094 Z M 371.875 65.371094 " fill-opacity="1" fill-rule="nonzero"/><g clip-path="url(#8852049e5c)"><path fill="#a6a6a6" d="M 458.925781 39.023438 C 447.636719 38.679688 430.945312 48.25 428.101562 61.425781 C 424.570312 77.792969 433.367188 72.523438 435.515625 86.050781 C 439.53125 111.222656 436.414062 128.84375 467.101562 137.230469 C 535.046875 155.753906 520.363281 40.761719 458.925781 39.023438 Z M 458.925781 39.023438 " fill-opacity="1" fill-rule="nonzero"/></g><g clip-path="url(#e9077795b4)"><path fill="#d9d9d9" d="M 502.183594 59.136719 C 493.6875 72.570312 505.652344 75.632812 508.726562 87.761719 C 511.992188 100.414062 501.792969 113.453125 509.769531 125.257812 C 528.925781 153.6875 568.804688 134.0625 575.734375 107.066406 C 577.109375 101.652344 578.808594 94.347656 575.734375 89.070312 C 571.746094 82.089844 562.726562 84.175781 560.371094 80.789062 C 555.53125 73.746094 560.761719 68.070312 556.839844 59.398438 C 554.226562 53.53125 547.429688 57.964844 544.355469 55.226562 C 539.714844 51.050781 542.199219 44.203125 535.59375 40.75 C 522.914062 33.96875 508.460938 49.164062 502.183594 59.136719 Z M 502.183594 59.136719 " fill-opacity="1" fill-rule="nonzero"/></g><path stroke-linecap="butt" transform="matrix(0.641212, 0, 0, 0.641982, 346.851287, 18.594398)" fill="none" stroke-linejoin="miter" d="M 0.000429903 0.504019 L 377.46556 0.504019 " stroke="#000000" stroke-width="1" stroke-opacity="1" stroke-miterlimit="4"/><path stroke-linecap="butt" transform="matrix(0.64378, 0, 0, 0.641982, 346.851287, 152.844891)" fill="none" stroke-linejoin="miter" d="M 0.000428189 0.503251 L 66.823782 0.503251 " stroke="#000000" stroke-width="1" stroke-opacity="1" stroke-miterlimit="4"/><path stroke-linecap="butt" transform="matrix(0.64378, 0, 0, 0.641982, 545.701431, 152.202894)" fill="none" stroke-linejoin="miter" d="M 0.00263088 0.505387 L 66.819917 0.505387 " stroke="#000000" stroke-width="1" stroke-opacity="1" stroke-miterlimit="4"/><g clip-path="url(#339e62613d)"><path fill="#ffffff" d="M 339.480469 59.355469 L 357.519531 59.355469 L 357.519531 113.46875 L 339.480469 113.46875 Z M 339.480469 59.355469 " fill-opacity="1" fill-rule="nonzero"/></g><g clip-path="url(#b96aa073f6)"><path fill="#ffffff" d="M 580.535156 57.523438 L 598.574219 57.523438 L 598.574219 115.503906 L 580.535156 115.503906 Z M 580.535156 57.523438 " fill-opacity="1" fill-rule="nonzero"/></g><path fill="#000000" d="M 371.542969 102.132812 C 369.347656 94.761719 368.15625 87.128906 367.089844 79.5625 C 366.894531 78.039062 367.027344 77.90625 368.550781 77.972656 C 370.613281 78.039062 372.667969 78.039062 374.726562 77.769531 C 375.324219 77.640625 375.855469 77.574219 376.386719 77.304688 C 376.71875 77.175781 377.046875 76.976562 377.046875 76.511719 C 377.117188 75.980469 376.71875 75.78125 376.320312 75.582031 C 375.589844 75.25 374.859375 75.316406 374.0625 75.382812 C 372.007812 75.582031 369.945312 75.382812 367.890625 75.316406 C 366.960938 75.316406 366.496094 74.917969 366.429688 73.988281 C 366.429688 73.722656 366.363281 73.390625 366.363281 73.058594 C 365.699219 65.824219 365.101562 58.519531 364.503906 51.21875 C 364.238281 47.703125 364.371094 48.167969 361.121094 48.167969 C 358.863281 48.167969 358.863281 48.234375 358.265625 50.421875 C 358.128906 50.820312 358 51.285156 357.867188 51.683594 C 355.410156 58.589844 352.488281 65.292969 349.902344 72.128906 C 349.503906 73.125 348.972656 73.457031 347.910156 73.257812 C 345.519531 72.859375 343.0625 72.859375 340.605469 73.058594 C 337.417969 73.257812 334.5 74.320312 331.914062 76.246094 C 331.449219 76.578125 330.917969 77.042969 330.519531 77.507812 C 330.054688 78.039062 330.25 78.566406 330.917969 78.765625 C 331.980469 79.097656 333.039062 79.164062 334.035156 78.699219 C 334.566406 78.4375 335.097656 78.167969 335.5625 77.90625 C 339.277344 75.714844 343.261719 75.582031 347.378906 76.179688 C 347.910156 76.246094 348.175781 76.445312 347.976562 76.976562 C 347.910156 77.304688 347.773438 77.574219 347.710938 77.90625 C 344.324219 86.535156 341.667969 95.429688 339.148438 104.324219 C 339.015625 104.789062 338.878906 105.253906 338.75 105.785156 C 338.683594 106.113281 338.878906 106.316406 339.148438 106.511719 C 340.671875 107.375 341.734375 107.042969 342.335938 105.386719 C 342.597656 104.722656 342.863281 103.992188 343.0625 103.261719 C 344.058594 100.078125 345.054688 96.824219 346.050781 93.570312 C 347.644531 88.328125 349.371094 83.082031 351.296875 77.90625 C 351.761719 76.511719 351.824219 76.511719 353.285156 76.644531 C 354.347656 76.710938 355.410156 76.839844 356.472656 76.976562 C 358.066406 77.109375 358.066406 77.109375 358.265625 78.699219 C 358.730469 82.351562 359.328125 86.003906 360.191406 89.585938 C 361.515625 94.832031 363.175781 99.941406 365.699219 104.722656 C 367.492188 108.175781 370.277344 109.503906 373.996094 109.234375 C 375.523438 109.167969 376.652344 108.574219 377.582031 107.441406 C 378.308594 106.511719 378.90625 105.453125 379.371094 104.390625 C 382.027344 98.878906 384.417969 93.171875 386.40625 87.398438 C 387.007812 85.800781 387.472656 84.210938 387.867188 82.550781 C 388.070312 81.691406 387.800781 81.226562 387.007812 81.023438 C 386.542969 80.957031 386.144531 80.957031 385.679688 80.824219 C 385.015625 80.625 384.617188 80.890625 384.417969 81.554688 C 384.351562 81.820312 384.285156 82.152344 384.152344 82.417969 C 381.761719 89.585938 378.839844 96.492188 375.257812 103.0625 C 374.726562 104.058594 374.128906 105.054688 373.199219 105.980469 C 372.269531 104.652344 371.941406 103.394531 371.542969 102.132812 Z M 357.070312 62.703125 C 357.664062 63.101562 357.402344 63.566406 357.402344 63.964844 C 357.46875 66.949219 357.46875 69.941406 357.664062 72.925781 C 357.800781 74.1875 357.730469 74.253906 356.539062 74.1875 C 355.34375 74.121094 354.148438 74.054688 352.886719 73.589844 C 354.28125 69.941406 355.675781 66.355469 357.070312 62.703125 Z M 357.070312 62.703125 " fill-opacity="1" fill-rule="nonzero"/><path fill="#000000" d="M 435.195312 84.609375 C 434.464844 84.277344 433.867188 84.277344 433.46875 85.140625 C 433.203125 85.800781 432.875 86.535156 432.539062 87.195312 C 430.8125 90.714844 429.089844 94.296875 426.964844 97.617188 C 426.5 98.285156 426.035156 98.945312 425.371094 99.410156 C 424.773438 99.875 424.242188 99.875 423.710938 99.277344 C 423.050781 98.480469 422.714844 97.550781 422.519531 96.554688 C 422.121094 93.769531 421.71875 90.980469 421.65625 88.191406 C 421.589844 86.136719 421.320312 84.078125 420.792969 82.085938 C 419.664062 78.167969 416.476562 76.976562 413.09375 79.164062 C 412.492188 79.5625 411.960938 79.960938 411.496094 80.425781 C 410.167969 81.691406 409.171875 83.082031 408.242188 84.542969 C 407.914062 85.007812 407.777344 85.605469 407.117188 85.871094 C 406.984375 84.011719 406.851562 82.21875 406.71875 80.492188 C 406.519531 78.101562 406.121094 75.714844 405.191406 73.523438 C 403.464844 69.207031 399.417969 67.8125 395.367188 70.070312 C 393.441406 71.132812 392.046875 72.726562 390.785156 74.453125 C 390.523438 74.917969 390.320312 75.515625 389.59375 75.980469 C 389.59375 75.382812 389.59375 75.117188 389.59375 74.785156 C 389.726562 72.660156 389.59375 70.535156 389.460938 68.410156 C 389.328125 66.820312 389.328125 66.753906 387.667969 66.820312 C 386.738281 66.882812 385.875 67.085938 385.011719 67.019531 C 384.015625 67.019531 383.550781 67.484375 383.421875 68.410156 C 383.355469 68.742188 383.285156 69.011719 383.285156 69.339844 C 381.890625 78.039062 381.359375 86.730469 381.890625 95.5625 C 381.960938 97.820312 382.15625 100.140625 382.621094 102.464844 C 382.820312 103.722656 383.023438 103.859375 384.351562 103.925781 C 385.28125 103.992188 386.207031 103.992188 387.136719 103.992188 C 388.460938 103.925781 388.53125 103.859375 388.664062 102.597656 C 388.730469 101.335938 388.925781 100.078125 388.996094 98.878906 C 389.261719 91.910156 391.316406 85.335938 393.574219 78.835938 C 394.171875 77.109375 394.96875 75.445312 396.03125 73.988281 C 396.429688 73.390625 396.828125 72.859375 397.425781 72.460938 C 398.351562 71.800781 399.152344 71.929688 399.746094 72.992188 C 400.347656 74.054688 400.675781 75.316406 400.945312 76.511719 C 401.875 80.625 402.070312 84.808594 402.070312 89.054688 C 402.136719 92.90625 402.070312 96.757812 402.070312 100.671875 C 402.070312 102.265625 402.136719 102.332031 403.796875 102.464844 C 406.984375 102.664062 406.453125 102.863281 407.050781 100.007812 C 407.914062 95.691406 409.109375 91.445312 410.902344 87.332031 C 411.632812 85.539062 412.628906 84.011719 414.023438 82.683594 C 414.683594 82.019531 415.082031 82.152344 415.347656 83.015625 C 415.679688 83.878906 415.878906 84.808594 415.945312 85.734375 C 416.277344 88.191406 416.542969 90.582031 417.140625 92.972656 C 417.605469 95.097656 418.269531 97.222656 419.332031 99.148438 C 421.125 102.398438 425.636719 102.863281 427.761719 100.273438 C 428.292969 99.613281 428.953125 98.945312 429.417969 98.21875 C 432.140625 94.5 433.804688 90.25 435.527344 86.003906 C 435.726562 85.472656 435.925781 84.871094 435.195312 84.609375 Z M 435.195312 84.609375 " fill-opacity="1" fill-rule="nonzero"/><path fill="#000000" d="M 468.050781 85.800781 C 466.988281 85.335938 466.789062 85.40625 466.125 86.730469 C 464.664062 89.585938 463.335938 92.507812 461.878906 95.296875 C 460.148438 98.683594 458.492188 102.066406 456.300781 105.117188 C 455.96875 105.648438 455.703125 106.316406 454.972656 106.511719 C 454.574219 105.71875 454.574219 104.988281 454.574219 104.1875 C 454.507812 101.601562 454.574219 98.945312 454.773438 96.359375 C 455.171875 89.257812 455.574219 82.21875 455.636719 75.117188 C 455.636719 74.320312 455.636719 73.523438 455.4375 72.726562 C 455.304688 72.328125 455.171875 71.929688 454.710938 71.929688 C 452.851562 71.929688 450.992188 71.730469 449.199219 72.328125 C 448.601562 72.527344 448.203125 72.59375 447.605469 72.460938 C 446.148438 72.128906 444.6875 71.863281 443.15625 72.195312 C 438.511719 73.058594 435.65625 76.046875 433.867188 80.160156 C 432.335938 83.613281 431.871094 87.261719 432.140625 90.980469 C 432.207031 92.773438 432.539062 94.566406 433.265625 96.292969 C 433.933594 98.015625 435.261719 98.75 437.050781 98.75 C 438.511719 98.8125 439.773438 98.285156 440.769531 97.222656 C 441.695312 96.15625 442.5625 94.964844 443.292969 93.703125 C 444.019531 92.441406 444.753906 91.179688 445.546875 89.851562 C 446.011719 90.25 445.8125 90.652344 445.878906 90.980469 C 446.011719 93.570312 446.078125 96.222656 446.542969 98.8125 C 446.941406 101.667969 447.472656 104.523438 448.867188 107.113281 C 450.722656 110.5625 455.574219 111.160156 458.226562 108.238281 C 459.21875 107.179688 460.019531 105.980469 460.679688 104.652344 C 463.539062 99.148438 466.257812 93.503906 468.78125 87.796875 C 469.378906 86.46875 469.3125 86.335938 468.050781 85.800781 Z M 447.605469 77.175781 C 447.539062 77.90625 447.40625 78.699219 447.078125 79.367188 C 444.820312 84.675781 442.363281 89.851562 439.375 94.761719 C 438.910156 95.496094 438.578125 96.621094 437.515625 96.359375 C 436.453125 96.089844 436.984375 94.898438 436.851562 94.101562 C 436.851562 93.769531 436.851562 93.371094 436.851562 92.972656 C 436.984375 88.191406 437.914062 83.546875 440.503906 79.367188 C 441.234375 78.234375 442.03125 77.109375 443.027344 76.113281 C 443.554688 75.582031 444.152344 75.183594 444.949219 74.980469 C 446.675781 74.515625 447.804688 75.382812 447.605469 77.175781 Z M 447.605469 77.175781 " fill-opacity="1" fill-rule="nonzero"/><path fill="#000000" d="M 475.285156 77.835938 C 475.351562 75.648438 475.480469 73.457031 475.546875 71.265625 C 475.546875 70.269531 475.480469 69.273438 475.417969 68.277344 C 475.351562 67.484375 474.953125 67.019531 474.085938 67.152344 C 473.160156 67.21875 472.164062 67.285156 471.234375 67.347656 C 469.375 67.550781 469.375 67.550781 468.910156 69.339844 C 468.777344 69.738281 468.710938 70.070312 468.648438 70.46875 C 467.449219 77.441406 466.585938 84.476562 466.324219 91.511719 C 466.054688 99.742188 466.585938 107.90625 467.515625 116.074219 C 467.652344 117.46875 467.980469 118.859375 468.3125 120.324219 C 468.445312 121.183594 468.976562 121.582031 469.90625 121.449219 C 470.90625 121.382812 471.898438 121.316406 472.894531 121.25 C 474.6875 121.117188 475.015625 120.851562 474.753906 119.125 C 474.023438 113.351562 474.488281 107.644531 474.289062 101.867188 C 474.222656 100.605469 474.289062 100.542969 475.617188 100.671875 C 480.859375 101.007812 484.84375 98.8125 487.898438 94.761719 C 489.757812 92.308594 491.214844 89.652344 491.945312 86.730469 C 492.34375 85.273438 493.074219 84.742188 494.46875 84.476562 C 496.460938 84.078125 498.449219 83.480469 500.441406 83.015625 C 501.039062 82.882812 501.304688 82.550781 501.238281 81.953125 C 501.105469 81.289062 500.773438 80.957031 500.042969 81.023438 C 499.910156 81.023438 499.710938 81.023438 499.511719 81.089844 C 498.117188 81.355469 496.65625 81.554688 495.261719 81.820312 C 493.007812 82.285156 493.007812 82.285156 492.808594 79.960938 C 492.609375 77.90625 492.078125 76.046875 490.949219 74.320312 C 488.625 70.667969 484.441406 69.738281 480.796875 72.0625 C 479.332031 72.992188 478.136719 74.253906 477.078125 75.714844 C 476.613281 76.445312 476.082031 77.109375 475.617188 77.835938 C 475.480469 77.835938 475.417969 77.835938 475.285156 77.835938 Z M 481.257812 75.714844 C 481.65625 75.050781 482.1875 74.515625 482.785156 74.054688 C 484.113281 73.125 485.242188 73.257812 486.171875 74.585938 C 486.4375 74.980469 486.636719 75.445312 486.832031 75.910156 C 487.5625 78.101562 487.5 80.359375 487.433594 82.617188 C 487.433594 83.28125 487.035156 83.613281 486.4375 83.746094 C 482.917969 84.675781 479.53125 85.9375 476.28125 87.726562 C 477.273438 83.347656 479.066406 79.433594 481.257812 75.714844 Z M 486.4375 87 C 485.308594 90.652344 483.511719 93.96875 480.660156 96.6875 C 480.261719 97.085938 479.796875 97.421875 479.332031 97.6875 C 478.007812 98.347656 476.941406 98.347656 476.011719 97.484375 C 474.953125 96.554688 474.621094 95.429688 475.015625 94.101562 C 475.285156 93.371094 475.683594 92.707031 476.148438 92.175781 C 478.9375 89.191406 482.519531 87.660156 486.300781 86.46875 C 486.367188 86.730469 486.503906 86.867188 486.4375 87 Z M 486.4375 87 " fill-opacity="1" fill-rule="nonzero"/><path fill="#000000" d="M 514.246094 85.472656 C 514.710938 85.539062 515.109375 85.671875 515.507812 85.734375 C 519.355469 86.664062 523.140625 85.9375 526.859375 85.007812 C 527.65625 84.808594 527.855469 84.40625 527.65625 83.613281 C 527.523438 82.882812 526.992188 82.816406 526.394531 82.949219 C 525.664062 83.148438 524.933594 83.214844 524.207031 83.414062 C 519.558594 84.609375 515.839844 83.082031 512.589844 79.832031 C 512.058594 79.300781 511.527344 78.765625 510.996094 78.234375 C 510.332031 77.507812 509.601562 76.839844 508.804688 76.246094 C 506.8125 74.785156 505.285156 74.785156 503.359375 76.308594 C 502.167969 77.175781 501.304688 78.300781 500.503906 79.496094 C 497.917969 83.480469 496.589844 87.863281 496.191406 92.574219 C 495.929688 95.164062 496.324219 97.6875 497.519531 100.007812 C 498.648438 102.199219 500.308594 103.722656 502.699219 104.257812 C 507.410156 105.386719 510.996094 103.527344 512.851562 99.078125 C 514.511719 94.964844 515.109375 90.78125 513.980469 86.402344 C 513.917969 86.199219 513.980469 85.9375 513.917969 85.605469 C 514.179688 85.539062 514.179688 85.472656 514.246094 85.472656 Z M 507.476562 81.15625 C 510.996094 87 511.722656 93.105469 508.738281 99.34375 C 508.273438 100.207031 507.808594 101.007812 507.078125 101.667969 C 506.214844 102.464844 505.417969 102.398438 504.6875 101.402344 C 504.222656 100.804688 504.027344 100.140625 503.757812 99.410156 C 502.964844 96.554688 502.964844 93.703125 503.359375 90.847656 C 503.757812 88.191406 504.222656 85.539062 505.085938 83.015625 C 505.417969 82.019531 505.820312 81.023438 506.480469 80.226562 C 507.011719 80.425781 507.277344 80.824219 507.476562 81.15625 Z M 507.476562 81.15625 " fill-opacity="1" fill-rule="nonzero"/><path fill="#000000" d="M 522.144531 82.351562 C 522.542969 87.261719 523.40625 92.109375 525.132812 96.824219 C 525.996094 99.34375 527.191406 101.734375 528.914062 103.859375 C 530.175781 105.453125 531.835938 106.382812 533.894531 106.578125 C 537.082031 106.910156 539.667969 105.980469 541.660156 103.460938 C 542.257812 102.730469 542.789062 101.933594 543.320312 101.203125 C 546.175781 96.757812 547.632812 91.777344 549.558594 86.933594 C 549.625 86.730469 549.625 86.535156 549.625 86.402344 C 549.691406 86.136719 549.558594 85.871094 549.363281 85.734375 C 548.296875 85.007812 547.105469 85.335938 546.574219 86.46875 C 546.4375 86.867188 546.304688 87.195312 546.175781 87.53125 C 544.316406 91.582031 542.722656 95.761719 540.53125 99.613281 C 539.867188 100.804688 539.136719 102 538.078125 102.929688 C 536.082031 104.789062 534.621094 104.523438 533.429688 102.132812 C 533.363281 102 533.230469 101.800781 533.164062 101.601562 C 531.636719 97.550781 530.707031 93.371094 530.511719 89.054688 C 530.441406 88.328125 530.640625 87.726562 531.105469 87.128906 C 535.621094 80.957031 538.804688 74.121094 541.59375 67.085938 C 542.855469 63.898438 543.652344 60.578125 543.851562 57.195312 C 544.046875 54.804688 543.851562 52.480469 542.921875 50.226562 C 541.59375 47.101562 538.609375 45.511719 535.289062 46.175781 C 532.632812 46.703125 530.640625 48.234375 528.980469 50.289062 C 527.054688 52.746094 525.796875 55.535156 524.800781 58.386719 C 522.675781 64.429688 522.011719 70.601562 521.878906 77.441406 C 521.945312 78.699219 521.945312 80.492188 522.144531 82.351562 Z M 529.84375 81.886719 C 529.3125 72.328125 530.175781 62.902344 533.5625 53.875 C 534.027344 52.679688 534.492188 51.554688 535.222656 50.488281 C 536.285156 48.960938 537.148438 49.027344 538.011719 50.753906 C 539.074219 52.8125 539.402344 55.003906 539.269531 57.328125 C 539.074219 62.105469 537.941406 66.6875 536.082031 71.066406 C 534.691406 74.453125 533.230469 77.769531 531.503906 80.957031 C 531.105469 81.554688 530.773438 82.21875 530.308594 82.949219 C 529.777344 82.550781 529.84375 82.21875 529.84375 81.886719 Z M 529.84375 81.886719 " fill-opacity="1" fill-rule="nonzero"/><path fill="#000000" d="M 581.953125 85.800781 C 580.890625 85.335938 580.691406 85.40625 580.027344 86.730469 C 578.566406 89.585938 577.238281 92.507812 575.78125 95.296875 C 574.050781 98.683594 572.394531 102.066406 570.203125 105.117188 C 569.871094 105.648438 569.605469 106.316406 568.875 106.511719 C 568.476562 105.71875 568.476562 104.988281 568.476562 104.1875 C 568.410156 101.601562 568.476562 98.945312 568.675781 96.359375 C 569.074219 89.257812 569.472656 82.21875 569.539062 75.117188 C 569.539062 74.320312 569.539062 73.523438 569.339844 72.726562 C 569.207031 72.328125 569.074219 71.929688 568.609375 71.929688 C 566.753906 71.929688 564.894531 71.730469 563.101562 72.328125 C 562.503906 72.527344 562.105469 72.59375 561.507812 72.460938 C 560.046875 72.128906 558.585938 71.863281 557.058594 72.195312 C 552.414062 73.058594 549.558594 76.046875 547.765625 80.160156 C 546.238281 83.613281 545.773438 87.261719 546.042969 90.980469 C 546.109375 92.773438 546.4375 94.566406 547.167969 96.292969 C 547.832031 98.015625 549.160156 98.75 550.953125 98.75 C 552.414062 98.8125 553.675781 98.285156 554.671875 97.222656 C 555.597656 96.15625 556.464844 94.964844 557.191406 93.703125 C 557.921875 92.441406 558.652344 91.179688 559.449219 89.851562 C 559.914062 90.25 559.714844 90.652344 559.78125 90.980469 C 559.914062 93.570312 559.980469 96.222656 560.445312 98.8125 C 560.84375 101.667969 561.375 104.523438 562.769531 107.113281 C 564.625 110.5625 569.472656 111.160156 572.128906 108.238281 C 573.121094 107.179688 573.921875 105.980469 574.582031 104.652344 C 577.4375 99.148438 580.160156 93.503906 582.679688 87.796875 C 583.28125 86.46875 583.214844 86.335938 581.953125 85.800781 Z M 561.507812 77.175781 C 561.4375 77.90625 561.308594 78.699219 560.976562 79.367188 C 558.71875 84.675781 556.261719 89.851562 553.277344 94.761719 C 552.8125 95.496094 552.476562 96.621094 551.417969 96.359375 C 550.355469 96.089844 550.886719 94.898438 550.753906 94.101562 C 550.753906 93.769531 550.753906 93.371094 550.753906 92.972656 C 550.886719 88.191406 551.816406 83.546875 554.402344 79.367188 C 555.136719 78.234375 555.933594 77.109375 556.929688 76.113281 C 557.457031 75.582031 558.054688 75.183594 558.851562 74.980469 C 560.578125 74.515625 561.707031 75.382812 561.507812 77.175781 Z M 561.507812 77.175781 " fill-opacity="1" fill-rule="nonzero"/><g clip-path="url(#6350a24d9d)"><path fill="#000000" d="M 587.0625 75.382812 C 588.789062 79.496094 590.511719 83.613281 591.839844 87.796875 C 592.570312 90.117188 592.570312 90.117188 590.3125 91.179688 C 587.792969 92.375 585.46875 93.769531 583.808594 96.089844 C 581.019531 100.140625 582.480469 105.054688 587.125 106.648438 C 590.648438 107.839844 594.03125 107.507812 597.21875 105.453125 C 598.941406 104.324219 600.136719 102.730469 600.667969 100.671875 C 601.132812 98.8125 601.332031 96.890625 601.003906 94.898438 C 600.800781 93.902344 600.667969 92.972656 600.472656 91.976562 C 600.136719 90.25 600.136719 90.25 601.796875 89.585938 C 602.726562 89.257812 603.65625 88.859375 604.585938 88.457031 C 606.246094 87.59375 607.835938 86.535156 609.296875 85.40625 C 609.695312 85.074219 610.160156 84.742188 609.898438 84.144531 C 609.5625 83.546875 608.96875 83.414062 608.300781 83.546875 C 607.707031 83.679688 607.242188 84.011719 606.84375 84.34375 C 604.984375 85.605469 603.058594 86.601562 601.003906 87.398438 C 599.472656 88.058594 599.40625 88.058594 598.941406 86.46875 C 597.015625 80.625 594.097656 75.316406 590.910156 70.136719 C 590.117188 68.808594 589.050781 67.683594 587.792969 66.753906 C 585.933594 65.359375 584.605469 65.890625 584.074219 68.082031 C 583.675781 69.671875 583.34375 71.265625 583.011719 72.859375 C 580.886719 82.417969 579.09375 92.109375 575.910156 101.402344 C 575.445312 102.597656 575.113281 103.792969 574.714844 104.988281 C 574.382812 105.785156 574.714844 106.046875 575.511719 106.183594 C 576.972656 106.445312 577.371094 106.316406 578.035156 104.722656 C 581.085938 97.152344 583.542969 89.386719 585.070312 81.421875 C 585.46875 79.164062 585.730469 76.910156 586.464844 74.386719 C 586.796875 74.917969 586.996094 75.117188 587.0625 75.382812 Z M 593.632812 102.597656 C 592.769531 104.921875 590.777344 105.453125 588.855469 103.992188 C 586.996094 102.597656 586.332031 100.40625 587.191406 98.152344 C 588.121094 95.625 590.117188 94.167969 592.371094 92.972656 C 593.035156 92.707031 593.367188 92.972656 593.5 93.570312 C 593.898438 95.296875 594.230469 97.019531 594.230469 98.945312 C 594.296875 100.078125 594.097656 101.402344 593.632812 102.597656 Z M 593.632812 102.597656 " fill-opacity="1" fill-rule="nonzero"/></g><path fill="#000000" d="M 410.207031 155.21875 L 410.207031 149.472656 L 409.691406 149.472656 L 409.691406 155.21875 Z M 410.207031 155.21875 " fill-opacity="1" fill-rule="nonzero"/><path fill="#000000" d="M 413.023438 155.21875 L 413.023438 149.972656 L 415.808594 155.21875 L 416.609375 155.21875 L 416.609375 149.472656 L 416.097656 149.472656 L 416.097656 154.742188 L 413.300781 149.472656 L 412.503906 149.472656 L 412.503906 155.21875 Z M 413.023438 155.21875 " fill-opacity="1" fill-rule="nonzero"/><path fill="#000000" d="M 420.433594 155.21875 C 422.328125 155.21875 423.367188 154.1875 423.367188 152.371094 C 423.367188 150.519531 422.335938 149.472656 420.4375 149.472656 L 418.902344 149.472656 L 418.902344 155.21875 Z M 419.421875 149.941406 L 420.4375 149.941406 C 421.90625 149.941406 422.855469 150.648438 422.855469 152.371094 C 422.855469 154.171875 421.804688 154.75 420.433594 154.75 L 419.421875 154.75 Z M 419.421875 149.941406 " fill-opacity="1" fill-rule="nonzero"/><path fill="#000000" d="M 427.4375 155.296875 C 428.847656 155.296875 429.488281 154.496094 429.488281 153.1875 L 429.488281 149.472656 L 428.964844 149.472656 L 428.964844 153.1875 C 428.964844 154.207031 428.515625 154.828125 427.4375 154.828125 C 426.363281 154.828125 425.910156 154.207031 425.910156 153.1875 L 425.910156 149.472656 L 425.390625 149.472656 L 425.390625 153.1875 C 425.390625 154.496094 426.03125 155.296875 427.4375 155.296875 Z M 427.4375 155.296875 " fill-opacity="1" fill-rule="nonzero"/><path fill="#000000" d="M 432.25 155.21875 L 432.25 150.007812 L 434.109375 155.21875 L 434.757812 155.21875 L 436.617188 150.027344 L 436.617188 155.21875 L 437.132812 155.21875 L 437.132812 149.472656 L 436.296875 149.472656 L 434.433594 154.691406 L 432.566406 149.472656 L 431.730469 149.472656 L 431.730469 155.21875 Z M 432.25 155.21875 " fill-opacity="1" fill-rule="nonzero"/><path fill="#000000" d="M 443.082031 155.21875 L 443.082031 154.75 L 439.941406 154.75 L 439.941406 152.570312 L 442.695312 152.570312 L 442.695312 152.101562 L 439.941406 152.101562 L 439.941406 149.941406 L 443.082031 149.941406 L 443.082031 149.472656 L 439.421875 149.472656 L 439.421875 155.21875 Z M 443.082031 155.21875 " fill-opacity="1" fill-rule="nonzero"/><path fill="#000000" d="M 445.625 155.21875 L 445.625 149.972656 L 448.410156 155.21875 L 449.210938 155.21875 L 449.210938 149.472656 L 448.699219 149.472656 L 448.699219 154.742188 L 445.902344 149.472656 L 445.105469 149.472656 L 445.105469 155.21875 Z M 445.625 155.21875 " fill-opacity="1" fill-rule="nonzero"/><path fill="#000000" d="M 453.550781 155.21875 L 453.550781 149.941406 L 455.578125 149.941406 L 455.578125 149.472656 L 451.019531 149.472656 L 451.019531 149.941406 L 453.035156 149.941406 L 453.035156 155.21875 Z M 453.550781 155.21875 " fill-opacity="1" fill-rule="nonzero"/><path fill="#000000" d="M 457.4375 155.21875 L 458.015625 153.667969 L 460.726562 153.667969 L 461.304688 155.21875 L 461.839844 155.21875 L 459.675781 149.472656 L 459.070312 149.472656 L 456.902344 155.21875 Z M 459.371094 150.007812 L 460.558594 153.203125 L 458.183594 153.203125 Z M 459.371094 150.007812 " fill-opacity="1" fill-rule="nonzero"/><path fill="#000000" d="M 466.375 152.621094 C 467.054688 152.410156 467.464844 151.875 467.464844 151.09375 C 467.464844 150.027344 466.746094 149.472656 465.640625 149.472656 L 463.65625 149.472656 L 463.65625 155.21875 L 464.171875 155.21875 L 464.171875 152.722656 L 465.640625 152.722656 C 465.71875 152.722656 465.792969 152.722656 465.859375 152.710938 L 466.945312 155.21875 L 467.515625 155.21875 Z M 464.171875 152.265625 L 464.171875 149.941406 L 465.574219 149.941406 C 466.445312 149.941406 466.953125 150.371094 466.953125 151.109375 C 466.953125 151.855469 466.464844 152.265625 465.574219 152.265625 Z M 464.171875 152.265625 " fill-opacity="1" fill-rule="nonzero"/><path fill="#000000" d="M 470.082031 155.21875 L 470.082031 149.472656 L 469.5625 149.472656 L 469.5625 155.21875 Z M 470.082031 155.21875 " fill-opacity="1" fill-rule="nonzero"/><path fill="#000000" d="M 472.441406 155.21875 L 473.019531 153.667969 L 475.730469 153.667969 L 476.308594 155.21875 L 476.84375 155.21875 L 474.675781 149.472656 L 474.070312 149.472656 L 471.90625 155.21875 Z M 474.371094 150.007812 L 475.5625 153.203125 L 473.183594 153.203125 Z M 474.371094 150.007812 " fill-opacity="1" fill-rule="nonzero"/><path fill="#000000" d="M 483.453125 155.296875 C 484.078125 155.296875 484.703125 155.097656 485.175781 154.671875 L 485.617188 155.21875 L 486.242188 155.21875 L 485.507812 154.324219 C 485.890625 153.789062 486.117188 153.179688 486.191406 152.410156 L 485.703125 152.410156 C 485.617188 153.402344 485.363281 153.765625 485.214844 153.992188 L 483.820312 152.320312 C 484.570312 151.933594 485.214844 151.351562 485.214844 150.703125 C 485.214844 149.917969 484.59375 149.402344 483.820312 149.402344 C 482.992188 149.402344 482.339844 149.914062 482.339844 150.746094 C 482.339844 151.28125 482.609375 151.644531 483.128906 152.1875 C 482.25 152.636719 481.691406 153.089844 481.691406 153.886719 C 481.691406 154.789062 482.441406 155.296875 483.453125 155.296875 Z M 483.550781 152.011719 C 483.128906 151.53125 482.828125 151.167969 482.828125 150.726562 C 482.828125 150.207031 483.253906 149.835938 483.820312 149.835938 C 484.355469 149.835938 484.722656 150.226562 484.722656 150.726562 C 484.722656 151.304688 484.160156 151.644531 483.550781 152.011719 Z M 483.457031 154.855469 C 482.699219 154.855469 482.179688 154.503906 482.179688 153.863281 C 482.179688 153.203125 482.742188 152.839844 483.390625 152.511719 L 484.890625 154.324219 C 484.523438 154.652344 484.054688 154.855469 483.457031 154.855469 Z M 483.457031 154.855469 " fill-opacity="1" fill-rule="nonzero"/><path fill="#000000" d="M 493.875 155.296875 C 495.101562 155.296875 495.914062 154.625 496.105469 153.59375 L 495.554688 153.59375 C 495.398438 154.382812 494.757812 154.828125 493.863281 154.828125 C 492.484375 154.828125 491.800781 153.75 491.800781 152.34375 C 491.800781 150.941406 492.484375 149.867188 493.863281 149.867188 C 494.757812 149.867188 495.402344 150.308594 495.554688 150.996094 L 496.105469 150.996094 C 495.925781 150.0625 495.101562 149.402344 493.875 149.402344 C 492.101562 149.402344 491.28125 150.785156 491.28125 152.34375 C 491.28125 153.902344 492.101562 155.296875 493.875 155.296875 Z M 493.875 155.296875 " fill-opacity="1" fill-rule="nonzero"/><path fill="#000000" d="M 498.175781 155.21875 L 498.753906 153.667969 L 501.464844 153.667969 L 502.042969 155.21875 L 502.578125 155.21875 L 500.414062 149.472656 L 499.808594 149.472656 L 497.640625 155.21875 Z M 500.109375 150.007812 L 501.296875 153.203125 L 498.921875 153.203125 Z M 500.109375 150.007812 " fill-opacity="1" fill-rule="nonzero"/><path fill="#000000" d="M 507.546875 155.21875 L 507.546875 154.75 L 504.914062 154.75 L 504.914062 149.472656 L 504.394531 149.472656 L 504.394531 155.21875 Z M 507.546875 155.21875 " fill-opacity="1" fill-rule="nonzero"/><path fill="#000000" d="M 513.304688 155.21875 L 513.304688 154.75 L 509.617188 154.75 L 513.320312 149.890625 L 513.320312 149.472656 L 509.15625 149.472656 L 509.15625 149.941406 L 512.679688 149.941406 L 508.976562 154.8125 L 508.976562 155.21875 Z M 513.304688 155.21875 " fill-opacity="1" fill-rule="nonzero"/><path fill="#000000" d="M 515.316406 155.21875 L 515.894531 153.667969 L 518.605469 153.667969 L 519.183594 155.21875 L 519.71875 155.21875 L 517.550781 149.472656 L 516.949219 149.472656 L 514.78125 155.21875 Z M 517.25 150.007812 L 518.4375 153.203125 L 516.0625 153.203125 Z M 517.25 150.007812 " fill-opacity="1" fill-rule="nonzero"/><path fill="#000000" d="M 523.0625 155.21875 C 524.957031 155.21875 525.996094 154.1875 525.996094 152.371094 C 525.996094 150.519531 524.964844 149.472656 523.066406 149.472656 L 521.535156 149.472656 L 521.535156 155.21875 Z M 522.050781 149.941406 L 523.066406 149.941406 C 524.535156 149.941406 525.484375 150.648438 525.484375 152.371094 C 525.484375 154.171875 524.433594 154.75 523.0625 154.75 L 522.050781 154.75 Z M 522.050781 149.941406 " fill-opacity="1" fill-rule="nonzero"/><path fill="#000000" d="M 530.46875 155.296875 C 532.238281 155.296875 533.078125 153.90625 533.078125 152.34375 C 533.078125 150.777344 532.238281 149.402344 530.46875 149.402344 C 528.699219 149.402344 527.855469 150.777344 527.855469 152.34375 C 527.855469 153.90625 528.699219 155.296875 530.46875 155.296875 Z M 530.46875 154.828125 C 529.089844 154.828125 528.375 153.75 528.375 152.34375 C 528.375 150.941406 529.089844 149.867188 530.46875 149.867188 C 531.847656 149.867188 532.5625 150.941406 532.5625 152.34375 C 532.5625 153.75 531.847656 154.828125 530.46875 154.828125 Z M 530.46875 154.828125 " fill-opacity="1" fill-rule="nonzero"/></svg>