<svg xmlns="http://www.w3.org/2000/svg" xmlns:xlink="http://www.w3.org/1999/xlink" width="1250" zoomAndPan="magnify" viewBox="0 0 937.5 172.499995" height="230" preserveAspectRatio="xMidYMid meet" version="1.0"><defs><clipPath id="be567d410d"><path d="M 1.105469 0 L 935.894531 0 L 935.894531 172 L 1.105469 172 Z M 1.105469 0 " clip-rule="nonzero"/></clipPath><clipPath id="5ae6be4af9"><path d="M 270.261719 46 L 347 46 L 347 119 L 270.261719 119 Z M 270.261719 46 " clip-rule="nonzero"/></clipPath><clipPath id="b381b8169a"><path d="M 343 23.523438 L 382 23.523438 L 382 119 L 343 119 Z M 343 23.523438 " clip-rule="nonzero"/></clipPath><clipPath id="a324ac84d8"><path d="M 513 23.523438 L 593 23.523438 L 593 119 L 513 119 Z M 513 23.523438 " clip-rule="nonzero"/></clipPath><clipPath id="07b7b51bd2"><path d="M 591 46 L 667.574219 46 L 667.574219 119 L 591 119 Z M 591 46 " clip-rule="nonzero"/></clipPath><clipPath id="b83f8027cc"><path d="M 344 139 L 347 139 L 347 155.210938 L 344 155.210938 Z M 344 139 " clip-rule="nonzero"/></clipPath><clipPath id="efd18c89a1"><path d="M 362 139 L 370 139 L 370 155.210938 L 362 155.210938 Z M 362 139 " clip-rule="nonzero"/></clipPath><clipPath id="8c3ee7ac20"><path d="M 386 139 L 394 139 L 394 155.210938 L 386 155.210938 Z M 386 139 " clip-rule="nonzero"/></clipPath><clipPath id="e481e06d41"><path d="M 410 139 L 418 139 L 418 155.210938 L 410 155.210938 Z M 410 139 " clip-rule="nonzero"/></clipPath><clipPath id="b584d5d0db"><path d="M 433 139 L 444 139 L 444 155.210938 L 433 155.210938 Z M 433 139 " clip-rule="nonzero"/></clipPath><clipPath id="633cfc0232"><path d="M 459 139 L 467 139 L 467 155.210938 L 459 155.210938 Z M 459 139 " clip-rule="nonzero"/></clipPath><clipPath id="2f93e2800c"><path d="M 482 139 L 490 139 L 490 155.210938 L 482 155.210938 Z M 482 139 " clip-rule="nonzero"/></clipPath><clipPath id="f8b78a8e16"><path d="M 504 139 L 512 139 L 512 155.210938 L 504 155.210938 Z M 504 139 " clip-rule="nonzero"/></clipPath><clipPath id="ba1f8b8438"><path d="M 526 139 L 536 139 L 536 155.210938 L 526 155.210938 Z M 526 139 " clip-rule="nonzero"/></clipPath><clipPath id="13bf8f581c"><path d="M 550 139 L 560 139 L 560 155.210938 L 550 155.210938 Z M 550 139 " clip-rule="nonzero"/></clipPath><clipPath id="ccf8e6780b"><path d="M 574 139 L 577 139 L 577 155.210938 L 574 155.210938 Z M 574 139 " clip-rule="nonzero"/></clipPath><clipPath id="b2e188e9cf"><path d="M 592 139 L 602 139 L 602 155.210938 L 592 155.210938 Z M 592 139 " clip-rule="nonzero"/></clipPath></defs><g clip-path="url(#be567d410d)"><path fill="#ffffff" d="M 1.105469 0 L 936.394531 0 L 936.394531 178.828125 L 1.105469 178.828125 Z M 1.105469 0 " fill-opacity="1" fill-rule="nonzero"/><path fill="#ffffff" d="M 1.105469 0 L 936.394531 0 L 936.394531 172.09375 L 1.105469 172.09375 Z M 1.105469 0 " fill-opacity="1" fill-rule="nonzero"/><path fill="#ffffff" d="M 1.105469 0 L 936.394531 0 L 936.394531 172.09375 L 1.105469 172.09375 Z M 1.105469 0 " fill-opacity="1" fill-rule="nonzero"/></g><g clip-path="url(#5ae6be4af9)"><path fill="#a6a6a6" d="M 293.070312 118.011719 C 303.429688 118.011719 311.566406 111.710938 314.15625 102.816406 L 315.640625 102.816406 C 316.992188 111.464844 323.039062 118.011719 331.792969 118.011719 C 340.796875 118.011719 345.484375 110.351562 346.46875 100.222656 L 345.238281 100.222656 C 344.621094 102.445312 343.511719 104.054688 341.410156 104.054688 C 338.207031 104.054688 336.480469 100.71875 335.496094 95.285156 L 331.421875 71.9375 C 328.464844 55.757812 318.472656 46.613281 300.46875 46.613281 C 287.394531 46.613281 277.15625 52.789062 277.15625 61.558594 C 277.15625 67.863281 282.464844 72.675781 288.878906 72.675781 C 295.414062 72.675781 299.355469 67.613281 299.355469 62.546875 C 299.355469 61.191406 298.992188 59.707031 298.371094 58.71875 L 297.011719 58.84375 C 297.386719 61.316406 295.164062 62.917969 292.082031 62.917969 C 289 62.917969 286.285156 60.570312 286.285156 56.867188 C 286.285156 52.539062 289.492188 49.578125 294.796875 49.578125 C 301.335938 49.578125 305.773438 54.148438 307.125 62.054688 L 310.582031 81.941406 L 309.105469 81.941406 C 306.386719 77.992188 299.605469 74.65625 293.070312 74.65625 C 279.503906 74.65625 270.5 83.054688 270.5 96.273438 C 270.5 109.738281 279.503906 118.011719 293.070312 118.011719 Z M 302.933594 108.5 C 296.894531 108.5 292.945312 103.066406 292.945312 94.910156 C 292.945312 86.761719 296.894531 81.445312 302.933594 81.445312 C 308.855469 81.445312 313.046875 87.003906 313.046875 94.910156 C 313.046875 102.941406 308.855469 108.5 302.933594 108.5 Z M 302.933594 108.5 " fill-opacity="1" fill-rule="nonzero"/></g><g clip-path="url(#b381b8169a)"><path fill="#a6a6a6" d="M 365.824219 118.011719 C 375.441406 118.011719 380.128906 110.726562 381.363281 100.347656 L 380.128906 100.105469 C 379.636719 102.328125 378.160156 104.054688 376.058594 104.054688 C 372.726562 104.054688 370.878906 100.71875 370.878906 95.160156 L 370.878906 23.515625 L 369.644531 23.515625 C 363.234375 27.589844 352.257812 29.691406 343.503906 29.8125 L 343.503906 31.050781 C 345.722656 33.027344 347.941406 37.722656 347.941406 51.800781 L 347.941406 99.359375 C 347.941406 110.601562 354.726562 118.011719 365.824219 118.011719 Z M 365.824219 118.011719 " fill-opacity="1" fill-rule="nonzero"/></g><path fill="#a6a6a6" d="M 401.582031 118.011719 C 411.945312 118.011719 420.082031 111.710938 422.671875 102.816406 L 424.152344 102.816406 C 425.507812 111.464844 431.550781 118.011719 440.308594 118.011719 C 449.3125 118.011719 454 110.351562 454.984375 100.222656 L 453.75 100.222656 C 453.136719 102.445312 452.027344 104.054688 449.925781 104.054688 C 446.71875 104.054688 444.996094 100.71875 444.007812 95.285156 L 439.9375 71.9375 C 436.976562 55.757812 426.988281 46.613281 408.980469 46.613281 C 395.910156 46.613281 385.671875 52.789062 385.671875 61.558594 C 385.671875 67.863281 390.980469 72.675781 397.390625 72.675781 C 403.925781 72.675781 407.871094 67.613281 407.871094 62.546875 C 407.871094 61.191406 407.503906 59.707031 406.886719 58.71875 L 405.527344 58.84375 C 405.898438 61.316406 403.679688 62.917969 400.597656 62.917969 C 397.515625 62.917969 394.800781 60.570312 394.800781 56.867188 C 394.800781 52.539062 398.007812 49.578125 403.3125 49.578125 C 409.847656 49.578125 414.289062 54.148438 415.640625 62.054688 L 419.09375 81.941406 L 417.617188 81.941406 C 414.902344 77.992188 408.121094 74.65625 401.582031 74.65625 C 388.015625 74.65625 379.011719 83.054688 379.011719 96.273438 C 379.011719 109.738281 388.015625 118.011719 401.582031 118.011719 Z M 411.449219 108.5 C 405.410156 108.5 401.460938 103.066406 401.460938 94.910156 C 401.460938 86.761719 405.410156 81.445312 411.449219 81.445312 C 417.371094 81.445312 421.5625 87.003906 421.5625 94.910156 C 421.5625 102.941406 417.371094 108.5 411.449219 108.5 Z M 411.449219 108.5 " fill-opacity="1" fill-rule="nonzero"/><path fill="#a6a6a6" d="M 483.21875 118.011719 C 501.21875 118.011719 515.40625 111.339844 515.40625 97.011719 C 515.40625 73.789062 476.0625 71.8125 476.0625 58.101562 C 476.0625 53.039062 480.128906 49.453125 488.890625 49.453125 C 498.632812 49.453125 505.167969 58.597656 506.527344 67.488281 L 507.636719 67.488281 L 510.222656 51.0625 C 505.292969 49.328125 494.808594 46.613281 482.847656 46.613281 C 467.925781 46.613281 455.34375 52.171875 455.34375 65.019531 C 455.34375 85.402344 492.589844 82.558594 492.589844 102.695312 C 492.589844 110.476562 485.3125 115.421875 478.53125 115.421875 C 469.402344 115.421875 464.714844 110.601562 464.714844 105.289062 C 464.714844 101.089844 467.308594 98.246094 471.375 98.246094 C 474.828125 98.246094 477.296875 100.347656 477.296875 102.941406 L 478.65625 102.941406 C 479.269531 101.953125 479.765625 100.105469 479.765625 98.621094 C 479.765625 92.320312 473.964844 86.636719 465.707031 86.636719 C 457.195312 86.636719 450.78125 92.195312 450.78125 100.46875 C 450.78125 110.972656 461.507812 118.011719 483.21875 118.011719 Z M 483.21875 118.011719 " fill-opacity="1" fill-rule="nonzero"/><g clip-path="url(#a324ac84d8)"><path fill="#a6a6a6" d="M 571.386719 118.011719 C 590.378906 118.011719 595.679688 97.011719 591.242188 77.496094 L 589.761719 77.496094 C 589.761719 86.265625 584.335938 93.675781 575.703125 93.675781 C 566.332031 93.675781 560.410156 87.875 558.066406 77.867188 L 558.929688 77 C 561.398438 79.105469 566.332031 80.957031 570.152344 80.957031 C 579.527344 80.957031 586.1875 74.53125 586.1875 63.167969 C 586.1875 53.652344 578.417969 46.613281 565.339844 46.613281 C 554 46.613281 544.746094 53.902344 542.898438 63.167969 L 541.417969 63.167969 L 541.417969 23.515625 L 540.058594 23.515625 C 533.894531 27.589844 522.671875 29.691406 513.917969 29.8125 L 513.917969 31.050781 C 516.261719 33.027344 518.480469 36.484375 518.480469 50.566406 L 518.480469 81.941406 C 518.480469 100.84375 516.507812 112.574219 513.917969 114.921875 L 513.917969 116.285156 L 545.980469 116.285156 L 545.980469 114.921875 C 543.390625 112.574219 541.417969 100.84375 541.417969 81.941406 L 541.417969 79.84375 C 541.417969 67.988281 547.339844 54.886719 556.21875 54.886719 C 561.644531 54.886719 564.355469 58.84375 564.355469 64.527344 C 564.355469 69.714844 560.285156 73.789062 556.710938 73.914062 L 555.597656 73.789062 C 555.234375 71.074219 552.890625 69.339844 550.792969 69.339844 C 547.953125 69.339844 546.105469 71.320312 546.105469 73.546875 C 546.105469 76.136719 548.203125 77.867188 551.035156 77.867188 C 552.640625 77.867188 553.378906 77.246094 554.121094 76.757812 L 555.109375 77.621094 C 551.902344 83.425781 549.925781 88.488281 550.171875 97.011719 C 550.421875 108.378906 557.820312 118.011719 571.386719 118.011719 Z M 571.386719 118.011719 " fill-opacity="1" fill-rule="nonzero"/></g><g clip-path="url(#07b7b51bd2)"><path fill="#a6a6a6" d="M 613.925781 118.011719 C 624.285156 118.011719 632.421875 111.710938 635.015625 102.816406 L 636.496094 102.816406 C 637.847656 111.464844 643.894531 118.011719 652.648438 118.011719 C 661.652344 118.011719 666.339844 110.351562 667.328125 100.222656 L 666.09375 100.222656 C 665.476562 102.445312 664.367188 104.054688 662.265625 104.054688 C 659.0625 104.054688 657.335938 100.71875 656.351562 95.285156 L 652.277344 71.9375 C 649.320312 55.757812 639.328125 46.613281 621.324219 46.613281 C 608.25 46.613281 598.015625 52.789062 598.015625 61.558594 C 598.015625 67.863281 603.320312 72.675781 609.734375 72.675781 C 616.269531 72.675781 620.214844 67.613281 620.214844 62.546875 C 620.214844 61.191406 619.847656 59.707031 619.226562 58.71875 L 617.871094 58.84375 C 618.242188 61.316406 616.019531 62.917969 612.9375 62.917969 C 609.855469 62.917969 607.140625 60.570312 607.140625 56.867188 C 607.140625 52.539062 610.347656 49.578125 615.65625 49.578125 C 622.191406 49.578125 626.628906 54.148438 627.984375 62.054688 L 631.4375 81.941406 L 629.960938 81.941406 C 627.246094 77.992188 620.460938 74.65625 613.925781 74.65625 C 600.359375 74.65625 591.355469 83.054688 591.355469 96.273438 C 591.355469 109.738281 600.359375 118.011719 613.925781 118.011719 Z M 623.789062 108.5 C 617.75 108.5 613.800781 103.066406 613.800781 94.910156 C 613.800781 86.761719 617.75 81.445312 623.789062 81.445312 C 629.710938 81.445312 633.902344 87.003906 633.902344 94.910156 C 633.902344 102.941406 629.710938 108.5 623.789062 108.5 Z M 623.789062 108.5 " fill-opacity="1" fill-rule="nonzero"/></g><g clip-path="url(#b83f8027cc)"><path fill="#d9d9d9" d="M 344.441406 153.761719 L 344.441406 139.714844 L 344.898438 139.714844 C 345.667969 139.714844 346.121094 139.773438 346.257812 139.882812 C 346.394531 139.980469 346.464844 140.355469 346.464844 141.019531 L 346.464844 155.0625 L 345.96875 155.0625 C 345.195312 155.0625 344.753906 155.015625 344.628906 154.917969 C 344.503906 154.808594 344.441406 154.421875 344.441406 153.761719 Z M 344.441406 153.761719 " fill-opacity="1" fill-rule="nonzero"/></g><g clip-path="url(#efd18c89a1)"><path fill="#d9d9d9" d="M 367.945312 150.367188 L 367.945312 139.714844 L 368.421875 139.714844 C 369.191406 139.714844 369.640625 139.773438 369.761719 139.882812 C 369.886719 139.980469 369.949219 140.355469 369.949219 141.019531 L 369.949219 155.0625 L 369.308594 155.0625 C 368.605469 155.0625 368.164062 155.015625 367.988281 154.917969 C 367.820312 154.808594 367.636719 154.457031 367.429688 153.863281 L 364.683594 144.660156 L 364.578125 144.660156 L 364.578125 153.761719 C 364.578125 154.421875 364.519531 154.808594 364.394531 154.917969 C 364.269531 155.015625 363.820312 155.0625 363.050781 155.0625 L 362.597656 155.0625 L 362.597656 139.714844 L 363.074219 139.714844 C 363.773438 139.714844 364.199219 139.769531 364.351562 139.859375 C 364.503906 139.957031 364.695312 140.304688 364.929688 140.894531 L 367.84375 150.367188 Z M 367.945312 150.367188 " fill-opacity="1" fill-rule="nonzero"/></g><g clip-path="url(#8c3ee7ac20)"><path fill="#d9d9d9" d="M 393.734375 142.671875 C 393.859375 143.492188 393.925781 144.171875 393.941406 144.722656 C 393.964844 145.257812 393.980469 145.976562 393.980469 146.871094 L 393.980469 148.714844 C 393.980469 149.761719 393.945312 150.527344 393.878906 151.007812 C 393.804688 151.480469 393.734375 151.933594 393.652344 152.375 C 393.570312 152.804688 393.457031 153.132812 393.320312 153.367188 C 393.195312 153.589844 393.035156 153.835938 392.847656 154.113281 C 392.648438 154.390625 392.4375 154.597656 392.207031 154.734375 C 391.597656 155.054688 390.914062 155.207031 390.160156 155.207031 L 386.113281 155.0625 L 386.113281 139.675781 L 390.160156 139.445312 C 390.890625 139.445312 391.507812 139.601562 392.019531 139.902344 C 392.527344 140.191406 392.90625 140.523438 393.15625 140.894531 C 393.414062 141.257812 393.609375 141.847656 393.734375 142.671875 Z M 390.160156 153.304688 C 390.625 153.304688 390.972656 153.148438 391.195312 152.828125 C 391.328125 152.636719 391.441406 152.457031 391.523438 152.292969 C 391.617188 152.125 391.691406 151.871094 391.730469 151.527344 C 391.78125 151.183594 391.824219 150.894531 391.855469 150.65625 C 391.894531 150.410156 391.921875 150.058594 391.9375 149.601562 C 391.949219 149.136719 391.957031 148.765625 391.957031 148.484375 L 391.957031 146.046875 C 391.957031 145.050781 391.925781 144.402344 391.875 144.082031 C 391.835938 143.75 391.78125 143.417969 391.730469 143.085938 C 391.691406 142.757812 391.617188 142.507812 391.523438 142.34375 C 391.441406 142.175781 391.328125 142.011719 391.195312 141.847656 C 390.972656 141.515625 390.625 141.351562 390.160156 141.351562 L 387.972656 141.351562 L 388.136719 141.886719 L 388.136719 152.789062 L 387.953125 153.304688 Z M 390.160156 153.304688 " fill-opacity="1" fill-rule="nonzero"/></g><g clip-path="url(#e481e06d41)"><path fill="#d9d9d9" d="M 415.855469 148.671875 L 415.855469 139.714844 L 416.390625 139.714844 C 417.132812 139.714844 417.574219 139.773438 417.710938 139.882812 C 417.847656 139.980469 417.917969 140.355469 417.917969 141.019531 L 417.917969 148.671875 C 417.917969 150.855469 417.863281 152.136719 417.753906 152.519531 C 417.65625 152.890625 417.546875 153.253906 417.421875 153.59375 C 417.300781 153.941406 417.140625 154.191406 416.949219 154.339844 C 416.769531 154.480469 416.546875 154.640625 416.289062 154.816406 C 415.832031 155.074219 415.078125 155.207031 414.035156 155.207031 C 413.210938 155.207031 412.632812 155.136719 412.300781 155 C 411.980469 154.867188 411.730469 154.746094 411.539062 154.648438 C 411.359375 154.554688 411.199219 154.394531 411.0625 154.175781 C 410.925781 153.941406 410.804688 153.753906 410.710938 153.617188 C 410.613281 153.480469 410.535156 153.238281 410.484375 152.890625 C 410.429688 152.535156 410.382812 152.261719 410.339844 152.0625 C 410.308594 151.855469 410.289062 151.519531 410.277344 151.050781 C 410.261719 150.570312 410.257812 150.203125 410.257812 149.953125 L 410.257812 139.714844 L 410.773438 139.714844 C 411.527344 139.714844 411.972656 139.773438 412.097656 139.882812 C 412.230469 139.980469 412.300781 140.355469 412.300781 141.019531 L 412.300781 149.355469 C 412.300781 150.902344 412.394531 151.949219 412.589844 152.5 C 412.78125 153.035156 413.261719 153.304688 414.035156 153.304688 C 414.335938 153.304688 414.59375 153.28125 414.800781 153.222656 C 415.007812 153.15625 415.179688 153.015625 415.316406 152.808594 C 415.453125 152.589844 415.554688 152.390625 415.628906 152.210938 C 415.710938 152.03125 415.761719 151.710938 415.792969 151.257812 C 415.832031 150.59375 415.855469 149.738281 415.855469 148.671875 Z M 415.855469 148.671875 " fill-opacity="1" fill-rule="nonzero"/></g><g clip-path="url(#b584d5d0db)"><path fill="#d9d9d9" d="M 435.84375 144.039062 L 435.84375 153.761719 C 435.84375 154.421875 435.773438 154.808594 435.636719 154.917969 C 435.515625 155.015625 435.070312 155.0625 434.316406 155.0625 L 433.839844 155.0625 L 433.839844 139.714844 L 434.335938 139.714844 C 435.023438 139.714844 435.453125 139.769531 435.617188 139.859375 C 435.78125 139.957031 436 140.296875 436.277344 140.875 L 438.589844 146.191406 L 439.023438 146.191406 L 441.875 139.714844 L 442.203125 139.714844 C 442.957031 139.714844 443.40625 139.773438 443.546875 139.882812 C 443.679688 139.980469 443.753906 140.355469 443.753906 141.019531 L 443.753906 155.0625 L 443.277344 155.0625 C 442.503906 155.0625 442.058594 155.015625 441.9375 154.917969 C 441.8125 154.808594 441.75 154.421875 441.75 153.761719 L 441.730469 144.058594 L 441.667969 144.058594 L 440.078125 147.886719 L 439.519531 148.941406 L 438.117188 148.941406 L 437.539062 147.886719 L 435.90625 144.039062 Z M 435.84375 144.039062 " fill-opacity="1" fill-rule="nonzero"/></g><g clip-path="url(#633cfc0232)"><path fill="#d9d9d9" d="M 466.601562 153.160156 L 466.601562 155.0625 L 459.910156 155.0625 L 459.910156 139.714844 L 466.375 139.714844 L 466.375 141.515625 L 461.8125 141.515625 L 461.996094 142.054688 L 461.996094 145.320312 L 461.8125 145.859375 L 466.128906 145.859375 L 466.128906 147.742188 L 461.832031 147.742188 L 461.996094 148.238281 L 461.996094 152.621094 L 461.8125 153.160156 Z M 466.601562 153.160156 " fill-opacity="1" fill-rule="nonzero"/></g><g clip-path="url(#2f93e2800c)"><path fill="#d9d9d9" d="M 487.4375 150.367188 L 487.4375 139.714844 L 487.910156 139.714844 C 488.679688 139.714844 489.128906 139.773438 489.253906 139.882812 C 489.378906 139.980469 489.4375 140.355469 489.4375 141.019531 L 489.4375 155.0625 L 488.800781 155.0625 C 488.097656 155.0625 487.652344 155.015625 487.476562 154.917969 C 487.3125 154.808594 487.125 154.457031 486.921875 153.863281 L 484.171875 144.660156 L 484.070312 144.660156 L 484.070312 153.761719 C 484.070312 154.421875 484.007812 154.808594 483.882812 154.917969 C 483.761719 155.015625 483.3125 155.0625 482.542969 155.0625 L 482.089844 155.0625 L 482.089844 139.714844 L 482.5625 139.714844 C 483.265625 139.714844 483.6875 139.769531 483.84375 139.859375 C 483.992188 139.957031 484.183594 140.304688 484.421875 140.894531 L 487.332031 150.367188 Z M 487.4375 150.367188 " fill-opacity="1" fill-rule="nonzero"/></g><g clip-path="url(#f8b78a8e16)"><path fill="#d9d9d9" d="M 511.632812 141.515625 L 509.03125 141.515625 L 509.21875 142.054688 L 509.21875 153.761719 C 509.21875 154.421875 509.144531 154.808594 509.011719 154.917969 C 508.886719 155.015625 508.4375 155.0625 507.667969 155.0625 L 507.152344 155.0625 L 507.152344 142.054688 L 507.296875 141.515625 L 504.757812 141.515625 L 504.757812 139.714844 L 511.632812 139.714844 Z M 511.632812 141.515625 " fill-opacity="1" fill-rule="nonzero"/></g><g clip-path="url(#ba1f8b8438)"><path fill="#d9d9d9" d="M 534.445312 155.0625 C 533.730469 155.0625 533.296875 155.011719 533.144531 154.898438 C 532.992188 154.789062 532.855469 154.410156 532.730469 153.761719 L 532.007812 150.160156 L 529.324219 150.160156 L 528.457031 155.0625 L 527.960938 155.0625 C 527.269531 155.0625 526.835938 155.03125 526.660156 154.960938 C 526.480469 154.878906 526.394531 154.691406 526.394531 154.402344 C 526.394531 154.101562 527.464844 149.203125 529.613281 139.714844 L 531.660156 139.714844 L 535.148438 155.0625 Z M 530.542969 143.582031 L 529.757812 147.742188 L 529.574219 148.113281 L 531.761719 148.113281 C 531.746094 148.101562 531.710938 148.03125 531.660156 147.90625 C 531.601562 147.78125 531.574219 147.714844 531.574219 147.699219 L 530.75 143.582031 Z M 530.542969 143.582031 " fill-opacity="1" fill-rule="nonzero"/></g><g clip-path="url(#13bf8f581c)"><path fill="#d9d9d9" d="M 551.285156 155.0625 L 550.769531 155.0625 L 550.769531 139.695312 L 553.804688 139.445312 C 555.082031 139.445312 555.960938 139.632812 556.445312 140.003906 C 556.636719 140.144531 556.796875 140.273438 556.921875 140.398438 C 557.046875 140.511719 557.148438 140.675781 557.230469 140.894531 L 557.417969 141.496094 C 557.511719 141.773438 557.5625 142.128906 557.5625 142.570312 L 557.5625 143.8125 C 557.5625 145.855469 557.261719 147.132812 556.675781 147.636719 C 556.425781 147.875 556.09375 148.011719 555.683594 148.050781 L 559.070312 155.0625 L 558.367188 155.0625 C 557.648438 155.0625 557.160156 154.996094 556.902344 154.855469 C 556.652344 154.722656 556.425781 154.410156 556.21875 153.925781 L 553.597656 148.113281 L 552.605469 148.113281 L 552.792969 148.652344 L 552.8125 153.761719 C 552.8125 154.421875 552.738281 154.808594 552.605469 154.917969 C 552.480469 155.015625 552.039062 155.0625 551.285156 155.0625 Z M 553.84375 146.210938 C 554.613281 146.210938 555.082031 146.0625 555.25 145.753906 C 555.414062 145.441406 555.496094 144.929688 555.496094 144.226562 C 555.496094 143.511719 555.488281 143.054688 555.476562 142.859375 C 555.476562 142.667969 555.441406 142.445312 555.371094 142.199219 C 555.316406 141.949219 555.234375 141.785156 555.125 141.703125 C 554.835938 141.46875 554.40625 141.351562 553.84375 141.351562 L 552.605469 141.351562 L 552.792969 141.886719 L 552.792969 145.714844 L 552.625 146.210938 Z M 553.84375 146.210938 " fill-opacity="1" fill-rule="nonzero"/></g><g clip-path="url(#ccf8e6780b)"><path fill="#d9d9d9" d="M 574.679688 153.761719 L 574.679688 139.714844 L 575.132812 139.714844 C 575.902344 139.714844 576.355469 139.773438 576.496094 139.882812 C 576.628906 139.980469 576.703125 140.355469 576.703125 141.019531 L 576.703125 155.0625 L 576.207031 155.0625 C 575.433594 155.0625 574.988281 155.015625 574.863281 154.917969 C 574.742188 154.808594 574.679688 154.421875 574.679688 153.761719 Z M 574.679688 153.761719 " fill-opacity="1" fill-rule="nonzero"/></g><g clip-path="url(#b2e188e9cf)"><path fill="#d9d9d9" d="M 600.371094 155.0625 C 599.652344 155.0625 599.21875 155.011719 599.070312 154.898438 C 598.914062 154.789062 598.78125 154.410156 598.65625 153.761719 L 597.933594 150.160156 L 595.25 150.160156 L 594.378906 155.0625 L 593.886719 155.0625 C 593.195312 155.0625 592.761719 155.03125 592.585938 154.960938 C 592.402344 154.878906 592.316406 154.691406 592.316406 154.402344 C 592.316406 154.101562 593.390625 149.203125 595.539062 139.714844 L 597.582031 139.714844 L 601.070312 155.0625 Z M 596.464844 143.582031 L 595.683594 147.742188 L 595.496094 148.113281 L 597.683594 148.113281 C 597.667969 148.101562 597.632812 148.03125 597.582031 147.90625 C 597.523438 147.78125 597.5 147.714844 597.5 147.699219 L 596.671875 143.582031 Z M 596.464844 143.582031 " fill-opacity="1" fill-rule="nonzero"/></g></svg>