<svg xmlns="http://www.w3.org/2000/svg" xmlns:xlink="http://www.w3.org/1999/xlink" width="500" zoomAndPan="magnify" viewBox="0 0 375 374.999991" height="500" preserveAspectRatio="xMidYMid meet" version="1.0"><defs><g/><clipPath id="a2736ff7d5"><path d="M 136.035156 125.664062 L 235 125.664062 L 235 242.664062 L 136.035156 242.664062 Z M 136.035156 125.664062 " clip-rule="nonzero"/></clipPath><clipPath id="54150a337d"><path d="M 220.097656 125.664062 L 311.597656 125.664062 L 311.597656 242.664062 L 220.097656 242.664062 Z M 220.097656 125.664062 " clip-rule="nonzero"/></clipPath><clipPath id="11ef031ad1"><path d="M 33.527344 149.414062 L 54.011719 149.414062 L 54.011719 213 L 33.527344 213 Z M 33.527344 149.414062 " clip-rule="nonzero"/></clipPath><clipPath id="4e65f3aa18"><path d="M 315.144531 147.277344 L 335.632812 147.277344 L 335.632812 215.476562 L 315.144531 215.476562 Z M 315.144531 147.277344 " clip-rule="nonzero"/></clipPath></defs><path stroke-linecap="butt" transform="matrix(0.000000000000000046, -0.751391, 0.75, 0.000000000000000046, 42.137169, 259.006332)" fill="none" stroke-linejoin="miter" d="M -0.00197062 0.4994 L 210.617806 0.4994 " stroke="#000000" stroke-width="1" stroke-opacity="1" stroke-miterlimit="4"/><path stroke-linecap="butt" transform="matrix(0.000000000000000046, -0.749608, 0.75, 0.000000000000000046, 324.185345, 258.256332)" fill="none" stroke-linejoin="miter" d="M -0.00197524 0.497665 L 209.117826 0.497665 " stroke="#000000" stroke-width="1" stroke-opacity="1" stroke-miterlimit="4"/><path fill="#d9d9d9" d="M 71.375 156.441406 C 58.636719 172.476562 54.027344 200.027344 71.375 217.96875 C 88.71875 235.914062 117.511719 228.867188 137.835938 232.066406 C 158.160156 235.269531 183.21875 235.269531 188.347656 207.074219 C 193.5 178.878906 181.277344 171.832031 146.558594 151.949219 C 111.839844 132.070312 95.8125 125.664062 71.375 156.441406 Z M 71.375 156.441406 " fill-opacity="1" fill-rule="nonzero"/><g clip-path="url(#a2736ff7d5)"><path fill="#a6a6a6" d="M 173.070312 125.664062 C 159.882812 125.261719 140.382812 136.441406 137.0625 151.835938 C 132.9375 170.957031 143.214844 164.800781 145.722656 180.601562 C 150.414062 210.011719 146.773438 230.59375 182.621094 240.394531 C 262 262.03125 244.847656 127.691406 173.070312 125.664062 Z M 173.070312 125.664062 " fill-opacity="1" fill-rule="nonzero"/></g><g clip-path="url(#54150a337d)"><path fill="#d9d9d9" d="M 223.609375 149.160156 C 213.683594 164.855469 227.660156 168.433594 231.25 182.601562 C 235.066406 197.382812 223.152344 212.617188 232.46875 226.40625 C 254.847656 259.621094 301.4375 236.691406 309.535156 205.152344 C 311.140625 198.828125 313.125 190.296875 309.535156 184.128906 C 304.875 175.976562 294.335938 178.414062 291.585938 174.453125 C 285.933594 166.226562 292.042969 159.597656 287.460938 149.464844 C 284.40625 142.609375 276.464844 147.789062 272.875 144.589844 C 267.453125 139.714844 270.355469 131.714844 262.640625 127.679688 C 247.824219 119.757812 230.941406 137.507812 223.609375 149.160156 Z M 223.609375 149.160156 " fill-opacity="1" fill-rule="nonzero"/></g><path stroke-linecap="butt" transform="matrix(0.7491, 0, 0, 0.75, 42.140791, 101.795684)" fill="none" stroke-linejoin="miter" d="M -0.000220976 0.501588 L 377.468573 0.501588 " stroke="#000000" stroke-width="1" stroke-opacity="1" stroke-miterlimit="4"/><path stroke-linecap="butt" transform="matrix(0.752105, 0, 0, 0.75, 42.140791, 258.634934)" fill="none" stroke-linejoin="miter" d="M -0.000220093 0.502379 L 66.822673 0.502379 " stroke="#000000" stroke-width="1" stroke-opacity="1" stroke-miterlimit="4"/><path stroke-linecap="butt" transform="matrix(0.752105, 0, 0, 0.75, 274.447722, 257.884934)" fill="none" stroke-linejoin="miter" d="M 0.00199051 0.502379 L 66.81969 0.502379 " stroke="#000000" stroke-width="1" stroke-opacity="1" stroke-miterlimit="4"/><g clip-path="url(#11ef031ad1)"><path fill="#ffffff" d="M 33.527344 149.414062 L 54.601562 149.414062 L 54.601562 212.632812 L 33.527344 212.632812 Z M 33.527344 149.414062 " fill-opacity="1" fill-rule="nonzero"/></g><g clip-path="url(#4e65f3aa18)"><path fill="#ffffff" d="M 315.144531 147.277344 L 336.21875 147.277344 L 336.21875 215.011719 L 315.144531 215.011719 Z M 315.144531 147.277344 " fill-opacity="1" fill-rule="nonzero"/></g><g fill="#000000" fill-opacity="1"><g transform="translate(29.261668, 202.026543)"><g><path d="M 41.722656 -2.636719 C 39.160156 -11.246094 37.765625 -20.164062 36.523438 -29.003906 C 36.292969 -30.785156 36.449219 -30.941406 38.230469 -30.863281 C 40.636719 -30.785156 43.039062 -30.785156 45.441406 -31.097656 C 46.140625 -31.25 46.761719 -31.328125 47.382812 -31.640625 C 47.769531 -31.792969 48.15625 -32.027344 48.15625 -32.570312 C 48.234375 -33.191406 47.769531 -33.421875 47.304688 -33.65625 C 46.453125 -34.042969 45.597656 -33.964844 44.667969 -33.886719 C 42.265625 -33.65625 39.859375 -33.886719 37.457031 -33.964844 C 36.371094 -33.964844 35.828125 -34.429688 35.75 -35.515625 C 35.75 -35.828125 35.671875 -36.214844 35.671875 -36.601562 C 34.898438 -45.054688 34.199219 -53.585938 33.5 -62.117188 C 33.191406 -66.226562 33.34375 -65.683594 29.546875 -65.683594 C 26.910156 -65.683594 26.910156 -65.605469 26.210938 -63.046875 C 26.054688 -62.582031 25.902344 -62.039062 25.746094 -61.574219 C 22.875 -53.507812 19.464844 -45.675781 16.441406 -37.6875 C 15.976562 -36.523438 15.355469 -36.136719 14.113281 -36.371094 C 11.320312 -36.835938 8.453125 -36.835938 5.582031 -36.601562 C 1.859375 -36.371094 -1.550781 -35.128906 -4.574219 -32.878906 C -5.117188 -32.492188 -5.738281 -31.949219 -6.203125 -31.40625 C -6.746094 -30.785156 -6.515625 -30.167969 -5.738281 -29.933594 C -4.496094 -29.546875 -3.257812 -29.46875 -2.09375 -30.011719 C -1.472656 -30.320312 -0.851562 -30.632812 -0.308594 -30.941406 C 4.03125 -33.5 8.683594 -33.65625 13.492188 -32.957031 C 14.113281 -32.878906 14.425781 -32.648438 14.191406 -32.027344 C 14.113281 -31.640625 13.957031 -31.328125 13.882812 -30.941406 C 9.925781 -20.859375 6.824219 -10.46875 3.878906 -0.078125 C 3.722656 0.464844 3.566406 1.007812 3.414062 1.628906 C 3.335938 2.015625 3.566406 2.25 3.878906 2.480469 C 5.660156 3.488281 6.902344 3.101562 7.601562 1.164062 C 7.910156 0.386719 8.21875 -0.464844 8.453125 -1.316406 C 9.617188 -5.039062 10.777344 -8.839844 11.941406 -12.640625 C 13.804688 -18.765625 15.820312 -24.894531 18.070312 -30.941406 C 18.613281 -32.570312 18.6875 -32.570312 20.394531 -32.414062 C 21.636719 -32.335938 22.875 -32.183594 24.117188 -32.027344 C 25.980469 -31.871094 25.980469 -31.871094 26.210938 -30.011719 C 26.753906 -25.746094 27.453125 -21.480469 28.460938 -17.292969 C 30.011719 -11.167969 31.949219 -5.195312 34.898438 0.386719 C 36.992188 4.421875 40.246094 5.972656 44.589844 5.660156 C 46.375 5.582031 47.691406 4.886719 48.777344 3.566406 C 49.628906 2.480469 50.328125 1.242188 50.871094 0 C 53.972656 -6.4375 56.765625 -13.105469 59.089844 -19.851562 C 59.789062 -21.714844 60.332031 -23.574219 60.796875 -25.511719 C 61.03125 -26.519531 60.71875 -27.0625 59.789062 -27.296875 C 59.246094 -27.375 58.78125 -27.375 58.238281 -27.53125 C 57.464844 -27.761719 56.996094 -27.453125 56.765625 -26.675781 C 56.6875 -26.367188 56.609375 -25.980469 56.453125 -25.667969 C 53.664062 -17.292969 50.25 -9.226562 46.0625 -1.550781 C 45.441406 -0.386719 44.746094 0.777344 43.660156 1.859375 C 42.574219 0.308594 42.1875 -1.164062 41.722656 -2.636719 Z M 24.816406 -48.699219 C 25.511719 -48.234375 25.203125 -47.691406 25.203125 -47.226562 C 25.28125 -43.738281 25.28125 -40.246094 25.511719 -36.757812 C 25.667969 -35.285156 25.589844 -35.207031 24.195312 -35.285156 C 22.800781 -35.363281 21.402344 -35.441406 19.929688 -35.980469 C 21.558594 -40.246094 23.1875 -44.433594 24.816406 -48.699219 Z M 24.816406 -48.699219 "/></g></g></g><g fill="#000000" fill-opacity="1"><g transform="translate(84.162977, 202.026543)"><g><path d="M 61.183594 -23.109375 C 60.332031 -23.496094 59.632812 -23.496094 59.167969 -22.488281 C 58.859375 -21.714844 58.472656 -20.859375 58.082031 -20.085938 C 56.066406 -15.976562 54.050781 -11.789062 51.570312 -7.910156 C 51.027344 -7.132812 50.484375 -6.359375 49.707031 -5.816406 C 49.011719 -5.273438 48.390625 -5.273438 47.769531 -5.972656 C 46.996094 -6.902344 46.605469 -7.988281 46.375 -9.152344 C 45.910156 -12.40625 45.441406 -15.664062 45.367188 -18.921875 C 45.289062 -21.324219 44.976562 -23.730469 44.359375 -26.054688 C 43.039062 -30.632812 39.316406 -32.027344 35.363281 -29.46875 C 34.664062 -29.003906 34.042969 -28.539062 33.5 -27.996094 C 31.949219 -26.519531 30.785156 -24.894531 29.699219 -23.1875 C 29.3125 -22.644531 29.15625 -21.945312 28.382812 -21.636719 C 28.226562 -23.808594 28.074219 -25.902344 27.917969 -27.917969 C 27.683594 -30.710938 27.21875 -33.5 26.132812 -36.058594 C 24.117188 -41.101562 19.386719 -42.730469 14.65625 -40.09375 C 12.40625 -38.851562 10.777344 -36.992188 9.304688 -34.972656 C 8.996094 -34.429688 8.761719 -33.734375 7.910156 -33.191406 C 7.910156 -33.886719 7.910156 -34.199219 7.910156 -34.585938 C 8.066406 -37.066406 7.910156 -39.550781 7.753906 -42.03125 C 7.601562 -43.890625 7.601562 -43.96875 5.660156 -43.890625 C 4.574219 -43.816406 3.566406 -43.582031 2.558594 -43.660156 C 1.394531 -43.660156 0.851562 -43.117188 0.699219 -42.03125 C 0.621094 -41.644531 0.542969 -41.332031 0.542969 -40.945312 C -1.085938 -30.785156 -1.707031 -20.628906 -1.085938 -10.3125 C -1.007812 -7.675781 -0.777344 -4.964844 -0.234375 -2.25 C 0 -0.777344 0.234375 -0.621094 1.785156 -0.542969 C 2.871094 -0.464844 3.953125 -0.464844 5.039062 -0.464844 C 6.589844 -0.542969 6.667969 -0.621094 6.824219 -2.09375 C 6.902344 -3.566406 7.132812 -5.039062 7.210938 -6.4375 C 7.523438 -14.578125 9.925781 -22.257812 12.5625 -29.855469 C 13.261719 -31.871094 14.191406 -33.8125 15.433594 -35.515625 C 15.898438 -36.214844 16.363281 -36.835938 17.0625 -37.300781 C 18.144531 -38.074219 19.078125 -37.921875 19.773438 -36.679688 C 20.472656 -35.441406 20.859375 -33.964844 21.171875 -32.570312 C 22.257812 -27.761719 22.488281 -22.875 22.488281 -17.914062 C 22.566406 -13.414062 22.488281 -8.917969 22.488281 -4.34375 C 22.488281 -2.480469 22.566406 -2.402344 24.503906 -2.25 C 28.226562 -2.015625 27.605469 -1.785156 28.304688 -5.117188 C 29.3125 -10.160156 30.710938 -15.121094 32.804688 -19.929688 C 33.65625 -22.023438 34.820312 -23.808594 36.449219 -25.359375 C 37.222656 -26.132812 37.6875 -25.980469 38 -24.96875 C 38.386719 -23.960938 38.617188 -22.875 38.695312 -21.792969 C 39.085938 -18.921875 39.394531 -16.128906 40.09375 -13.339844 C 40.636719 -10.855469 41.410156 -8.375 42.652344 -6.125 C 44.746094 -2.328125 50.019531 -1.785156 52.5 -4.808594 C 53.121094 -5.582031 53.894531 -6.359375 54.4375 -7.210938 C 57.617188 -11.554688 59.558594 -16.519531 61.574219 -21.480469 C 61.804688 -22.101562 62.039062 -22.800781 61.183594 -23.109375 Z M 61.183594 -23.109375 "/></g></g></g><g fill="#000000" fill-opacity="1"><g transform="translate(142.166058, 202.026543)"><g><path d="M 41.566406 -21.714844 C 40.324219 -22.257812 40.09375 -22.179688 39.316406 -20.628906 C 37.609375 -17.292969 36.058594 -13.882812 34.355469 -10.625 C 32.335938 -6.667969 30.398438 -2.714844 27.839844 0.851562 C 27.453125 1.472656 27.140625 2.25 26.289062 2.480469 C 25.824219 1.550781 25.824219 0.699219 25.824219 -0.234375 C 25.746094 -3.257812 25.824219 -6.359375 26.054688 -9.382812 C 26.519531 -17.679688 26.988281 -25.902344 27.0625 -34.199219 C 27.0625 -35.128906 27.0625 -36.058594 26.832031 -36.992188 C 26.675781 -37.457031 26.519531 -37.921875 25.980469 -37.921875 C 23.808594 -37.921875 21.636719 -38.152344 19.542969 -37.457031 C 18.84375 -37.222656 18.378906 -37.144531 17.679688 -37.300781 C 15.976562 -37.6875 14.269531 -38 12.484375 -37.609375 C 7.058594 -36.601562 3.722656 -33.113281 1.628906 -28.304688 C -0.15625 -24.273438 -0.699219 -20.007812 -0.386719 -15.664062 C -0.308594 -13.570312 0.078125 -11.476562 0.929688 -9.460938 C 1.707031 -7.445312 3.257812 -6.589844 5.351562 -6.589844 C 7.058594 -6.515625 8.53125 -7.132812 9.695312 -8.375 C 10.777344 -9.617188 11.789062 -11.011719 12.640625 -12.484375 C 13.492188 -13.957031 14.347656 -15.433594 15.277344 -16.984375 C 15.820312 -16.519531 15.585938 -16.050781 15.664062 -15.664062 C 15.820312 -12.640625 15.898438 -9.539062 16.441406 -6.515625 C 16.90625 -3.179688 17.527344 0.15625 19.15625 3.179688 C 21.324219 7.210938 26.988281 7.910156 30.089844 4.496094 C 31.25 3.257812 32.183594 1.859375 32.957031 0.308594 C 36.292969 -6.125 39.472656 -12.71875 42.417969 -19.386719 C 43.117188 -20.9375 43.039062 -21.09375 41.566406 -21.714844 Z M 17.679688 -31.792969 C 17.601562 -30.941406 17.449219 -30.011719 17.0625 -29.234375 C 14.425781 -23.03125 11.554688 -16.984375 8.066406 -11.246094 C 7.523438 -10.390625 7.132812 -9.074219 5.894531 -9.382812 C 4.652344 -9.695312 5.273438 -11.089844 5.117188 -12.019531 C 5.117188 -12.40625 5.117188 -12.871094 5.117188 -13.339844 C 5.273438 -18.921875 6.359375 -24.351562 9.382812 -29.234375 C 10.238281 -30.554688 11.167969 -31.871094 12.332031 -33.035156 C 12.949219 -33.65625 13.648438 -34.121094 14.578125 -34.355469 C 16.59375 -34.898438 17.914062 -33.886719 17.679688 -31.792969 Z M 17.679688 -31.792969 "/></g></g></g><g fill="#000000" fill-opacity="1"><g transform="translate(182.10133, 202.026543)"><g><path d="M 10.082031 -31.019531 C 10.160156 -33.578125 10.3125 -36.136719 10.390625 -38.695312 C 10.390625 -39.859375 10.3125 -41.023438 10.238281 -42.1875 C 10.160156 -43.117188 9.695312 -43.660156 8.683594 -43.503906 C 7.601562 -43.425781 6.4375 -43.347656 5.351562 -43.273438 C 3.179688 -43.039062 3.179688 -43.039062 2.636719 -40.945312 C 2.480469 -40.480469 2.402344 -40.09375 2.328125 -39.628906 C 0.929688 -31.484375 -0.078125 -23.265625 -0.386719 -15.042969 C -0.699219 -5.429688 -0.078125 4.109375 1.007812 13.648438 C 1.164062 15.277344 1.550781 16.90625 1.9375 18.613281 C 2.09375 19.621094 2.714844 20.085938 3.800781 19.929688 C 4.964844 19.851562 6.125 19.773438 7.289062 19.695312 C 9.382812 19.542969 9.769531 19.230469 9.460938 17.214844 C 8.609375 10.46875 9.152344 3.800781 8.917969 -2.945312 C 8.839844 -4.421875 8.917969 -4.496094 10.46875 -4.34375 C 16.59375 -3.953125 21.25 -6.515625 24.816406 -11.246094 C 26.988281 -14.113281 28.691406 -17.214844 29.546875 -20.628906 C 30.011719 -22.332031 30.863281 -22.953125 32.492188 -23.265625 C 34.820312 -23.730469 37.144531 -24.425781 39.472656 -24.96875 C 40.171875 -25.125 40.480469 -25.511719 40.402344 -26.210938 C 40.246094 -26.988281 39.859375 -27.375 39.007812 -27.296875 C 38.851562 -27.296875 38.617188 -27.296875 38.386719 -27.21875 C 36.757812 -26.910156 35.050781 -26.675781 33.421875 -26.367188 C 30.785156 -25.824219 30.785156 -25.824219 30.554688 -28.539062 C 30.320312 -30.941406 29.699219 -33.113281 28.382812 -35.128906 C 25.667969 -39.394531 20.78125 -40.480469 16.519531 -37.765625 C 14.8125 -36.679688 13.414062 -35.207031 12.175781 -33.5 C 11.632812 -32.648438 11.011719 -31.871094 10.46875 -31.019531 C 10.3125 -31.019531 10.238281 -31.019531 10.082031 -31.019531 Z M 17.0625 -33.5 C 17.527344 -34.277344 18.144531 -34.898438 18.84375 -35.441406 C 20.394531 -36.523438 21.714844 -36.371094 22.800781 -34.820312 C 23.109375 -34.355469 23.34375 -33.8125 23.574219 -33.269531 C 24.425781 -30.710938 24.351562 -28.074219 24.273438 -25.4375 C 24.273438 -24.660156 23.808594 -24.273438 23.109375 -24.117188 C 19 -23.03125 15.042969 -21.558594 11.246094 -19.464844 C 12.40625 -24.582031 14.5 -29.15625 17.0625 -33.5 Z M 23.109375 -20.316406 C 21.792969 -16.050781 19.695312 -12.175781 16.363281 -8.996094 C 15.898438 -8.53125 15.355469 -8.140625 14.8125 -7.832031 C 13.261719 -7.058594 12.019531 -7.058594 10.933594 -8.066406 C 9.695312 -9.152344 9.304688 -10.46875 9.769531 -12.019531 C 10.082031 -12.871094 10.546875 -13.648438 11.089844 -14.269531 C 14.347656 -17.757812 18.535156 -19.542969 22.953125 -20.9375 C 23.03125 -20.628906 23.1875 -20.472656 23.109375 -20.316406 Z M 23.109375 -20.316406 "/></g></g></g><g fill="#000000" fill-opacity="1"><g transform="translate(218.702198, 202.026543)"><g><path d="M 19 -22.101562 C 19.542969 -22.023438 20.007812 -21.867188 20.472656 -21.792969 C 24.96875 -20.707031 29.390625 -21.558594 33.734375 -22.644531 C 34.664062 -22.875 34.898438 -23.34375 34.664062 -24.273438 C 34.507812 -25.125 33.886719 -25.203125 33.191406 -25.046875 C 32.335938 -24.816406 31.484375 -24.738281 30.632812 -24.503906 C 25.203125 -23.109375 20.859375 -24.894531 17.0625 -28.691406 C 16.441406 -29.3125 15.820312 -29.933594 15.199219 -30.554688 C 14.425781 -31.40625 13.570312 -32.183594 12.640625 -32.878906 C 10.3125 -34.585938 8.53125 -34.585938 6.28125 -32.804688 C 4.886719 -31.792969 3.878906 -30.476562 2.945312 -29.082031 C -0.078125 -24.425781 -1.628906 -19.308594 -2.09375 -13.804688 C -2.402344 -10.777344 -1.9375 -7.832031 -0.542969 -5.117188 C 0.777344 -2.558594 2.714844 -0.777344 5.507812 -0.15625 C 11.011719 1.164062 15.199219 -1.007812 17.371094 -6.203125 C 19.308594 -11.011719 20.007812 -15.898438 18.6875 -21.015625 C 18.613281 -21.25 18.6875 -21.558594 18.613281 -21.945312 C 18.921875 -22.023438 18.921875 -22.101562 19 -22.101562 Z M 11.089844 -27.140625 C 15.199219 -20.316406 16.050781 -13.183594 12.5625 -5.894531 C 12.019531 -4.886719 11.476562 -3.953125 10.625 -3.179688 C 9.617188 -2.25 8.683594 -2.328125 7.832031 -3.488281 C 7.289062 -4.1875 7.058594 -4.964844 6.746094 -5.816406 C 5.816406 -9.152344 5.816406 -12.484375 6.28125 -15.820312 C 6.746094 -18.921875 7.289062 -22.023438 8.296875 -24.96875 C 8.683594 -26.132812 9.152344 -27.296875 9.925781 -28.226562 C 10.546875 -27.996094 10.855469 -27.53125 11.089844 -27.140625 Z M 11.089844 -27.140625 "/></g></g></g><g fill="#000000" fill-opacity="1"><g transform="translate(249.642339, 202.026543)"><g><path d="M -2.714844 -25.746094 C -2.25 -20.007812 -1.242188 -14.347656 0.777344 -8.839844 C 1.785156 -5.894531 3.179688 -3.101562 5.195312 -0.621094 C 6.667969 1.242188 8.609375 2.328125 11.011719 2.558594 C 14.734375 2.945312 17.757812 1.859375 20.085938 -1.085938 C 20.78125 -1.9375 21.402344 -2.871094 22.023438 -3.722656 C 25.359375 -8.917969 27.0625 -14.734375 29.3125 -20.394531 C 29.390625 -20.628906 29.390625 -20.859375 29.390625 -21.015625 C 29.46875 -21.324219 29.3125 -21.636719 29.082031 -21.792969 C 27.839844 -22.644531 26.445312 -22.257812 25.824219 -20.9375 C 25.667969 -20.472656 25.511719 -20.085938 25.359375 -19.695312 C 23.1875 -14.964844 21.324219 -10.082031 18.765625 -5.582031 C 17.992188 -4.1875 17.136719 -2.792969 15.898438 -1.707031 C 13.570312 0.464844 11.863281 0.15625 10.46875 -2.636719 C 10.390625 -2.792969 10.238281 -3.023438 10.160156 -3.257812 C 8.375 -7.988281 7.289062 -12.871094 7.058594 -17.914062 C 6.980469 -18.765625 7.210938 -19.464844 7.753906 -20.164062 C 13.027344 -27.375 16.75 -35.363281 20.007812 -43.582031 C 21.480469 -47.304688 22.410156 -51.183594 22.644531 -55.136719 C 22.875 -57.929688 22.644531 -60.644531 21.558594 -63.277344 C 20.007812 -66.925781 16.519531 -68.785156 12.640625 -68.007812 C 9.539062 -67.390625 7.210938 -65.605469 5.273438 -63.203125 C 3.023438 -60.332031 1.550781 -57.074219 0.386719 -53.742188 C -2.09375 -46.683594 -2.871094 -39.472656 -3.023438 -31.484375 C -2.945312 -30.011719 -2.945312 -27.917969 -2.714844 -25.746094 Z M 6.28125 -26.289062 C 5.660156 -37.457031 6.667969 -48.46875 10.625 -59.015625 C 11.167969 -60.410156 11.710938 -61.726562 12.5625 -62.96875 C 13.804688 -64.753906 14.8125 -64.675781 15.820312 -62.660156 C 17.0625 -60.253906 17.449219 -57.695312 17.292969 -54.980469 C 17.0625 -49.398438 15.742188 -44.046875 13.570312 -38.929688 C 11.941406 -34.972656 10.238281 -31.097656 8.21875 -27.375 C 7.753906 -26.675781 7.367188 -25.902344 6.824219 -25.046875 C 6.203125 -25.511719 6.28125 -25.902344 6.28125 -26.289062 Z M 6.28125 -26.289062 "/></g></g></g><g fill="#000000" fill-opacity="1"><g transform="translate(275.231935, 202.026543)"><g><path d="M 41.566406 -21.714844 C 40.324219 -22.257812 40.09375 -22.179688 39.316406 -20.628906 C 37.609375 -17.292969 36.058594 -13.882812 34.355469 -10.625 C 32.335938 -6.667969 30.398438 -2.714844 27.839844 0.851562 C 27.453125 1.472656 27.140625 2.25 26.289062 2.480469 C 25.824219 1.550781 25.824219 0.699219 25.824219 -0.234375 C 25.746094 -3.257812 25.824219 -6.359375 26.054688 -9.382812 C 26.519531 -17.679688 26.988281 -25.902344 27.0625 -34.199219 C 27.0625 -35.128906 27.0625 -36.058594 26.832031 -36.992188 C 26.675781 -37.457031 26.519531 -37.921875 25.980469 -37.921875 C 23.808594 -37.921875 21.636719 -38.152344 19.542969 -37.457031 C 18.84375 -37.222656 18.378906 -37.144531 17.679688 -37.300781 C 15.976562 -37.6875 14.269531 -38 12.484375 -37.609375 C 7.058594 -36.601562 3.722656 -33.113281 1.628906 -28.304688 C -0.15625 -24.273438 -0.699219 -20.007812 -0.386719 -15.664062 C -0.308594 -13.570312 0.078125 -11.476562 0.929688 -9.460938 C 1.707031 -7.445312 3.257812 -6.589844 5.351562 -6.589844 C 7.058594 -6.515625 8.53125 -7.132812 9.695312 -8.375 C 10.777344 -9.617188 11.789062 -11.011719 12.640625 -12.484375 C 13.492188 -13.957031 14.347656 -15.433594 15.277344 -16.984375 C 15.820312 -16.519531 15.585938 -16.050781 15.664062 -15.664062 C 15.820312 -12.640625 15.898438 -9.539062 16.441406 -6.515625 C 16.90625 -3.179688 17.527344 0.15625 19.15625 3.179688 C 21.324219 7.210938 26.988281 7.910156 30.089844 4.496094 C 31.25 3.257812 32.183594 1.859375 32.957031 0.308594 C 36.292969 -6.125 39.472656 -12.71875 42.417969 -19.386719 C 43.117188 -20.9375 43.039062 -21.09375 41.566406 -21.714844 Z M 17.679688 -31.792969 C 17.601562 -30.941406 17.449219 -30.011719 17.0625 -29.234375 C 14.425781 -23.03125 11.554688 -16.984375 8.066406 -11.246094 C 7.523438 -10.390625 7.132812 -9.074219 5.894531 -9.382812 C 4.652344 -9.695312 5.273438 -11.089844 5.117188 -12.019531 C 5.117188 -12.40625 5.117188 -12.871094 5.117188 -13.339844 C 5.273438 -18.921875 6.359375 -24.351562 9.382812 -29.234375 C 10.238281 -30.554688 11.167969 -31.871094 12.332031 -33.035156 C 12.949219 -33.65625 13.648438 -34.121094 14.578125 -34.355469 C 16.59375 -34.898438 17.914062 -33.886719 17.679688 -31.792969 Z M 17.679688 -31.792969 "/></g></g></g><g fill="#000000" fill-opacity="1"><g transform="translate(315.167207, 202.026543)"><g><path d="M 7.601562 -33.886719 C 9.617188 -29.082031 11.632812 -24.273438 13.183594 -19.386719 C 14.035156 -16.671875 14.035156 -16.671875 11.398438 -15.433594 C 8.453125 -14.035156 5.738281 -12.40625 3.800781 -9.695312 C 0.542969 -4.964844 2.25 0.777344 7.675781 2.636719 C 11.789062 4.03125 15.742188 3.644531 19.464844 1.242188 C 21.480469 -0.078125 22.875 -1.9375 23.496094 -4.34375 C 24.039062 -6.515625 24.273438 -8.761719 23.886719 -11.089844 C 23.652344 -12.253906 23.496094 -13.339844 23.265625 -14.5 C 22.875 -16.519531 22.875 -16.519531 24.816406 -17.292969 C 25.902344 -17.679688 26.988281 -18.144531 28.074219 -18.613281 C 30.011719 -19.621094 31.871094 -20.859375 33.578125 -22.179688 C 34.042969 -22.566406 34.585938 -22.953125 34.277344 -23.652344 C 33.886719 -24.351562 33.191406 -24.503906 32.414062 -24.351562 C 31.71875 -24.195312 31.175781 -23.808594 30.710938 -23.417969 C 28.539062 -21.945312 26.289062 -20.78125 23.886719 -19.851562 C 22.101562 -19.078125 22.023438 -19.078125 21.480469 -20.9375 C 19.230469 -27.761719 15.820312 -33.964844 12.097656 -40.015625 C 11.167969 -41.566406 9.925781 -42.882812 8.453125 -43.96875 C 6.28125 -45.597656 4.730469 -44.976562 4.109375 -42.417969 C 3.644531 -40.558594 3.257812 -38.695312 2.871094 -36.835938 C 0.386719 -25.667969 -1.707031 -14.347656 -5.429688 -3.488281 C -5.972656 -2.09375 -6.359375 -0.699219 -6.824219 0.699219 C -7.210938 1.628906 -6.824219 1.9375 -5.894531 2.09375 C -4.1875 2.402344 -3.722656 2.25 -2.945312 0.386719 C 0.621094 -8.453125 3.488281 -17.527344 5.273438 -26.832031 C 5.738281 -29.46875 6.046875 -32.105469 6.902344 -35.050781 C 7.289062 -34.429688 7.523438 -34.199219 7.601562 -33.886719 Z M 15.277344 -2.09375 C 14.269531 0.621094 11.941406 1.242188 9.695312 -0.464844 C 7.523438 -2.09375 6.746094 -4.652344 7.753906 -7.289062 C 8.839844 -10.238281 11.167969 -11.941406 13.804688 -13.339844 C 14.578125 -13.648438 14.964844 -13.339844 15.121094 -12.640625 C 15.585938 -10.625 15.976562 -8.609375 15.976562 -6.359375 C 16.050781 -5.039062 15.820312 -3.488281 15.277344 -2.09375 Z M 15.277344 -2.09375 "/></g></g></g><g fill="#000000" fill-opacity="1"><g transform="translate(114.857138, 261.408241)"><g><path d="M 1.300781 0 L 1.300781 -6.710938 L 0.695312 -6.710938 L 0.695312 0 Z M 1.300781 0 "/></g></g></g><g fill="#000000" fill-opacity="1"><g transform="translate(118.146209, 261.408241)"><g><path d="M 1.300781 0 L 1.300781 -6.128906 L 4.554688 0 L 5.488281 0 L 5.488281 -6.710938 L 4.890625 -6.710938 L 4.890625 -0.554688 L 1.625 -6.710938 L 0.695312 -6.710938 L 0.695312 0 Z M 1.300781 0 "/></g></g></g><g fill="#000000" fill-opacity="1"><g transform="translate(125.62108, 261.408241)"><g><path d="M 2.480469 0 C 4.695312 0 5.910156 -1.203125 5.910156 -3.324219 C 5.910156 -5.488281 4.703125 -6.710938 2.488281 -6.710938 L 0.695312 -6.710938 L 0.695312 0 Z M 1.300781 -6.164062 L 2.488281 -6.164062 C 4.203125 -6.164062 5.3125 -5.339844 5.3125 -3.324219 C 5.3125 -1.222656 4.082031 -0.546875 2.480469 -0.546875 L 1.300781 -0.546875 Z M 1.300781 -6.164062 "/></g></g></g><g fill="#000000" fill-opacity="1"><g transform="translate(133.263032, 261.408241)"><g><path d="M 3.023438 0.0898438 C 4.667969 0.0898438 5.417969 -0.84375 5.417969 -2.375 L 5.417969 -6.710938 L 4.808594 -6.710938 L 4.808594 -2.375 C 4.808594 -1.179688 4.28125 -0.457031 3.023438 -0.457031 C 1.769531 -0.457031 1.238281 -1.179688 1.238281 -2.375 L 1.238281 -6.710938 L 0.632812 -6.710938 L 0.632812 -2.375 C 0.632812 -0.84375 1.378906 0.0898438 3.023438 0.0898438 Z M 3.023438 0.0898438 "/></g></g></g><g fill="#000000" fill-opacity="1"><g transform="translate(140.605996, 261.408241)"><g><path d="M 1.300781 0 L 1.300781 -6.085938 L 3.472656 0 L 4.230469 0 L 6.402344 -6.066406 L 6.402344 0 L 7.007812 0 L 7.007812 -6.710938 L 6.03125 -6.710938 L 3.851562 -0.617188 L 1.671875 -6.710938 L 0.695312 -6.710938 L 0.695312 0 Z M 1.300781 0 "/></g></g></g><g fill="#000000" fill-opacity="1"><g transform="translate(149.593383, 261.408241)"><g><path d="M 4.96875 0 L 4.96875 -0.546875 L 1.300781 -0.546875 L 1.300781 -3.09375 L 4.519531 -3.09375 L 4.519531 -3.640625 L 1.300781 -3.640625 L 1.300781 -6.164062 L 4.96875 -6.164062 L 4.96875 -6.710938 L 0.695312 -6.710938 L 0.695312 0 Z M 4.96875 0 "/></g></g></g><g fill="#000000" fill-opacity="1"><g transform="translate(156.232854, 261.408241)"><g><path d="M 1.300781 0 L 1.300781 -6.128906 L 4.554688 0 L 5.488281 0 L 5.488281 -6.710938 L 4.890625 -6.710938 L 4.890625 -0.554688 L 1.625 -6.710938 L 0.695312 -6.710938 L 0.695312 0 Z M 1.300781 0 "/></g></g></g><g fill="#000000" fill-opacity="1"><g transform="translate(163.707723, 261.408241)"><g><path d="M 3.085938 0 L 3.085938 -6.164062 L 5.453125 -6.164062 L 5.453125 -6.710938 L 0.125 -6.710938 L 0.125 -6.164062 L 2.480469 -6.164062 L 2.480469 0 Z M 3.085938 0 "/></g></g></g><g fill="#000000" fill-opacity="1"><g transform="translate(170.567034, 261.408241)"><g><path d="M 0.765625 0 L 1.441406 -1.8125 L 4.609375 -1.8125 L 5.285156 0 L 5.910156 0 L 3.378906 -6.710938 L 2.671875 -6.710938 L 0.140625 0 Z M 3.023438 -6.085938 L 4.414062 -2.355469 L 1.636719 -2.355469 Z M 3.023438 -6.085938 "/></g></g></g><g fill="#000000" fill-opacity="1"><g transform="translate(177.901202, 261.408241)"><g><path d="M 3.871094 -3.035156 C 4.667969 -3.28125 5.144531 -3.90625 5.144531 -4.820312 C 5.144531 -6.066406 4.308594 -6.710938 3.015625 -6.710938 L 0.695312 -6.710938 L 0.695312 0 L 1.300781 0 L 1.300781 -2.917969 L 3.015625 -2.917969 C 3.105469 -2.917969 3.191406 -2.917969 3.269531 -2.929688 L 4.539062 0 L 5.207031 0 Z M 1.300781 -3.449219 L 1.300781 -6.164062 L 2.9375 -6.164062 C 3.957031 -6.164062 4.546875 -5.664062 4.546875 -4.800781 C 4.546875 -3.929688 3.976562 -3.449219 2.9375 -3.449219 Z M 1.300781 -3.449219 "/></g></g></g><g fill="#000000" fill-opacity="1"><g transform="translate(184.80448, 261.408241)"><g><path d="M 1.300781 0 L 1.300781 -6.710938 L 0.695312 -6.710938 L 0.695312 0 Z M 1.300781 0 "/></g></g></g><g fill="#000000" fill-opacity="1"><g transform="translate(188.093555, 261.408241)"><g><path d="M 0.765625 0 L 1.441406 -1.8125 L 4.609375 -1.8125 L 5.285156 0 L 5.910156 0 L 3.378906 -6.710938 L 2.671875 -6.710938 L 0.140625 0 Z M 3.023438 -6.085938 L 4.414062 -2.355469 L 1.636719 -2.355469 Z M 3.023438 -6.085938 "/></g></g></g><g fill="#000000" fill-opacity="1"><g transform="translate(195.427723, 261.408241)"><g/></g></g><g fill="#000000" fill-opacity="1"><g transform="translate(199.174067, 261.408241)"><g><path d="M 2.550781 0.0898438 C 3.28125 0.0898438 4.011719 -0.140625 4.5625 -0.640625 L 5.082031 0 L 5.8125 0 L 4.953125 -1.046875 C 5.398438 -1.671875 5.664062 -2.382812 5.75 -3.28125 L 5.179688 -3.28125 C 5.082031 -2.121094 4.785156 -1.699219 4.609375 -1.433594 L 2.980469 -3.386719 C 3.859375 -3.835938 4.609375 -4.519531 4.609375 -5.277344 C 4.609375 -6.191406 3.886719 -6.796875 2.980469 -6.796875 C 2.015625 -6.796875 1.25 -6.199219 1.25 -5.222656 C 1.25 -4.597656 1.566406 -4.175781 2.171875 -3.542969 C 1.144531 -3.015625 0.492188 -2.488281 0.492188 -1.554688 C 0.492188 -0.5 1.371094 0.0898438 2.550781 0.0898438 Z M 2.664062 -3.746094 C 2.171875 -4.308594 1.820312 -4.730469 1.820312 -5.25 C 1.820312 -5.855469 2.320312 -6.289062 2.980469 -6.289062 C 3.605469 -6.289062 4.035156 -5.832031 4.035156 -5.25 C 4.035156 -4.574219 3.378906 -4.175781 2.664062 -3.746094 Z M 2.558594 -0.421875 C 1.671875 -0.421875 1.0625 -0.835938 1.0625 -1.582031 C 1.0625 -2.355469 1.722656 -2.777344 2.480469 -3.164062 L 4.230469 -1.046875 C 3.800781 -0.660156 3.253906 -0.421875 2.558594 -0.421875 Z M 2.558594 -0.421875 "/></g></g></g><g fill="#000000" fill-opacity="1"><g transform="translate(206.684115, 261.408241)"><g/></g></g><g fill="#000000" fill-opacity="1"><g transform="translate(210.430459, 261.408241)"><g><path d="M 3.472656 0.0898438 C 4.90625 0.0898438 5.855469 -0.695312 6.078125 -1.898438 L 5.433594 -1.898438 C 5.25 -0.976562 4.503906 -0.457031 3.457031 -0.457031 C 1.847656 -0.457031 1.046875 -1.714844 1.046875 -3.359375 C 1.046875 -4.996094 1.847656 -6.253906 3.457031 -6.253906 C 4.503906 -6.253906 5.257812 -5.734375 5.433594 -4.933594 L 6.078125 -4.933594 C 5.867188 -6.023438 4.90625 -6.796875 3.472656 -6.796875 C 1.398438 -6.796875 0.441406 -5.179688 0.441406 -3.359375 C 0.441406 -1.539062 1.398438 0.0898438 3.472656 0.0898438 Z M 3.472656 0.0898438 "/></g></g></g><g fill="#000000" fill-opacity="1"><g transform="translate(218.160343, 261.408241)"><g><path d="M 0.765625 0 L 1.441406 -1.8125 L 4.609375 -1.8125 L 5.285156 0 L 5.910156 0 L 3.378906 -6.710938 L 2.671875 -6.710938 L 0.140625 0 Z M 3.023438 -6.085938 L 4.414062 -2.355469 L 1.636719 -2.355469 Z M 3.023438 -6.085938 "/></g></g></g><g fill="#000000" fill-opacity="1"><g transform="translate(225.494511, 261.408241)"><g><path d="M 4.378906 0 L 4.378906 -0.546875 L 1.300781 -0.546875 L 1.300781 -6.710938 L 0.695312 -6.710938 L 0.695312 0 Z M 4.378906 0 "/></g></g></g><g fill="#000000" fill-opacity="1"><g transform="translate(231.289783, 261.408241)"><g><path d="M 5.3125 0 L 5.3125 -0.546875 L 1.003906 -0.546875 L 5.328125 -6.226562 L 5.328125 -6.710938 L 0.464844 -6.710938 L 0.464844 -6.164062 L 4.582031 -6.164062 L 0.253906 -0.476562 L 0.253906 0 Z M 5.3125 0 "/></g></g></g><g fill="#000000" fill-opacity="1"><g transform="translate(238.184268, 261.408241)"><g><path d="M 0.765625 0 L 1.441406 -1.8125 L 4.609375 -1.8125 L 5.285156 0 L 5.910156 0 L 3.378906 -6.710938 L 2.671875 -6.710938 L 0.140625 0 Z M 3.023438 -6.085938 L 4.414062 -2.355469 L 1.636719 -2.355469 Z M 3.023438 -6.085938 "/></g></g></g><g fill="#000000" fill-opacity="1"><g transform="translate(245.518436, 261.408241)"><g><path d="M 2.480469 0 C 4.695312 0 5.910156 -1.203125 5.910156 -3.324219 C 5.910156 -5.488281 4.703125 -6.710938 2.488281 -6.710938 L 0.695312 -6.710938 L 0.695312 0 Z M 1.300781 -6.164062 L 2.488281 -6.164062 C 4.203125 -6.164062 5.3125 -5.339844 5.3125 -3.324219 C 5.3125 -1.222656 4.082031 -0.546875 2.480469 -0.546875 L 1.300781 -0.546875 Z M 1.300781 -6.164062 "/></g></g></g><g fill="#000000" fill-opacity="1"><g transform="translate(253.160386, 261.408241)"><g><path d="M 3.492188 0.0898438 C 5.558594 0.0898438 6.542969 -1.53125 6.542969 -3.359375 C 6.542969 -5.1875 5.558594 -6.796875 3.492188 -6.796875 C 1.425781 -6.796875 0.441406 -5.1875 0.441406 -3.359375 C 0.441406 -1.53125 1.425781 0.0898438 3.492188 0.0898438 Z M 3.492188 -0.457031 C 1.882812 -0.457031 1.046875 -1.714844 1.046875 -3.359375 C 1.046875 -4.996094 1.882812 -6.253906 3.492188 -6.253906 C 5.101562 -6.253906 5.9375 -4.996094 5.9375 -3.359375 C 5.9375 -1.714844 5.101562 -0.457031 3.492188 -0.457031 Z M 3.492188 -0.457031 "/></g></g></g></svg>