<svg xmlns="http://www.w3.org/2000/svg" xmlns:xlink="http://www.w3.org/1999/xlink" width="240" zoomAndPan="magnify" viewBox="0 0 180 112.499997" height="150" preserveAspectRatio="xMidYMid meet" version="1.0"><defs><g/><clipPath id="2d242cfc56"><path d="M 98 19 L 170 19 L 170 92 L 98 92 Z M 98 19 " clip-rule="nonzero"/></clipPath><clipPath id="714e13524e"><path d="M 181.09375 73.5 L 112.800781 103.6875 L 84.121094 38.808594 L 152.414062 8.621094 Z M 181.09375 73.5 " clip-rule="nonzero"/></clipPath><clipPath id="4ec6e18cc1"><path d="M 181.09375 73.5 L 112.800781 103.6875 L 84.121094 38.808594 L 152.414062 8.621094 Z M 181.09375 73.5 " clip-rule="nonzero"/></clipPath></defs><g fill="#1b1b1b" fill-opacity="1"><g transform="translate(8.578415, 64.084945)"><g><path d="M 14.375 -2.984375 L 14.375 0 L 1.90625 0 L 1.90625 -16.09375 L 14.078125 -16.09375 L 14.078125 -13.109375 L 5.609375 -13.109375 L 5.609375 -9.609375 L 13.09375 -9.609375 L 13.09375 -6.71875 L 5.609375 -6.71875 L 5.609375 -2.984375 Z M 14.375 -2.984375 "/></g></g></g><g fill="#1b1b1b" fill-opacity="1"><g transform="translate(22.947782, 64.084945)"><g><path d="M 5.8125 0.1875 C 4.789062 0.1875 3.785156 0.0625 2.796875 -0.1875 C 1.816406 -0.445312 1.035156 -0.769531 0.453125 -1.15625 L 1.65625 -3.71875 C 2.207031 -3.375 2.875 -3.085938 3.65625 -2.859375 C 4.4375 -2.640625 5.203125 -2.53125 5.953125 -2.53125 C 7.472656 -2.53125 8.234375 -2.90625 8.234375 -3.65625 C 8.234375 -4.007812 8.023438 -4.257812 7.609375 -4.40625 C 7.191406 -4.5625 6.554688 -4.695312 5.703125 -4.8125 C 4.691406 -4.957031 3.851562 -5.128906 3.1875 -5.328125 C 2.53125 -5.535156 1.960938 -5.890625 1.484375 -6.390625 C 1.003906 -6.898438 0.765625 -7.625 0.765625 -8.5625 C 0.765625 -9.34375 0.988281 -10.035156 1.4375 -10.640625 C 1.882812 -11.242188 2.539062 -11.710938 3.40625 -12.046875 C 4.28125 -12.390625 5.304688 -12.5625 6.484375 -12.5625 C 7.359375 -12.5625 8.226562 -12.460938 9.09375 -12.265625 C 9.957031 -12.078125 10.675781 -11.816406 11.25 -11.484375 L 10.046875 -8.921875 C 8.960938 -9.535156 7.773438 -9.84375 6.484375 -9.84375 C 5.722656 -9.84375 5.148438 -9.734375 4.765625 -9.515625 C 4.378906 -9.304688 4.1875 -9.03125 4.1875 -8.6875 C 4.1875 -8.3125 4.390625 -8.046875 4.796875 -7.890625 C 5.210938 -7.734375 5.875 -7.585938 6.78125 -7.453125 C 7.789062 -7.285156 8.617188 -7.101562 9.265625 -6.90625 C 9.910156 -6.71875 10.46875 -6.367188 10.9375 -5.859375 C 11.414062 -5.359375 11.65625 -4.65625 11.65625 -3.75 C 11.65625 -2.976562 11.425781 -2.296875 10.96875 -1.703125 C 10.507812 -1.109375 9.835938 -0.644531 8.953125 -0.3125 C 8.078125 0.0195312 7.03125 0.1875 5.8125 0.1875 Z M 5.8125 0.1875 "/></g></g></g><g fill="#1b1b1b" fill-opacity="1"><g transform="translate(34.098295, 64.084945)"><g><path d="M 9.640625 -0.59375 C 9.285156 -0.332031 8.847656 -0.132812 8.328125 0 C 7.816406 0.125 7.28125 0.1875 6.71875 0.1875 C 5.25 0.1875 4.109375 -0.1875 3.296875 -0.9375 C 2.492188 -1.6875 2.09375 -2.789062 2.09375 -4.25 L 2.09375 -9.34375 L 0.1875 -9.34375 L 0.1875 -12.09375 L 2.09375 -12.09375 L 2.09375 -15.109375 L 5.6875 -15.109375 L 5.6875 -12.09375 L 8.765625 -12.09375 L 8.765625 -9.34375 L 5.6875 -9.34375 L 5.6875 -4.296875 C 5.6875 -3.773438 5.816406 -3.375 6.078125 -3.09375 C 6.347656 -2.8125 6.726562 -2.671875 7.21875 -2.671875 C 7.789062 -2.671875 8.273438 -2.820312 8.671875 -3.125 Z M 9.640625 -0.59375 "/></g></g></g><g fill="#1b1b1b" fill-opacity="1"><g transform="translate(43.041598, 64.084945)"><g><path d="M 14.125 -12.375 L 14.125 0 L 10.71875 0 L 10.71875 -1.46875 C 10.238281 -0.9375 9.671875 -0.523438 9.015625 -0.234375 C 8.359375 0.046875 7.644531 0.1875 6.875 0.1875 C 5.25 0.1875 3.960938 -0.28125 3.015625 -1.21875 C 2.066406 -2.15625 1.59375 -3.539062 1.59375 -5.375 L 1.59375 -12.375 L 5.171875 -12.375 L 5.171875 -5.90625 C 5.171875 -3.914062 6.007812 -2.921875 7.6875 -2.921875 C 8.539062 -2.921875 9.226562 -3.195312 9.75 -3.75 C 10.269531 -4.3125 10.53125 -5.144531 10.53125 -6.25 L 10.53125 -12.375 Z M 14.125 -12.375 "/></g></g></g><g fill="#1b1b1b" fill-opacity="1"><g transform="translate(57.778835, 64.084945)"><g><path d="M 14.265625 -17.0625 L 14.265625 0 L 10.828125 0 L 10.828125 -1.421875 C 9.941406 -0.347656 8.65625 0.1875 6.96875 0.1875 C 5.800781 0.1875 4.742188 -0.0703125 3.796875 -0.59375 C 2.859375 -1.113281 2.117188 -1.859375 1.578125 -2.828125 C 1.046875 -3.796875 0.78125 -4.914062 0.78125 -6.1875 C 0.78125 -7.457031 1.046875 -8.578125 1.578125 -9.546875 C 2.117188 -10.515625 2.859375 -11.257812 3.796875 -11.78125 C 4.742188 -12.300781 5.800781 -12.5625 6.96875 -12.5625 C 8.550781 -12.5625 9.785156 -12.0625 10.671875 -11.0625 L 10.671875 -17.0625 Z M 7.59375 -2.765625 C 8.5 -2.765625 9.25 -3.070312 9.84375 -3.6875 C 10.4375 -4.3125 10.734375 -5.144531 10.734375 -6.1875 C 10.734375 -7.226562 10.4375 -8.054688 9.84375 -8.671875 C 9.25 -9.296875 8.5 -9.609375 7.59375 -9.609375 C 6.664062 -9.609375 5.90625 -9.296875 5.3125 -8.671875 C 4.71875 -8.054688 4.421875 -7.226562 4.421875 -6.1875 C 4.421875 -5.144531 4.71875 -4.3125 5.3125 -3.6875 C 5.90625 -3.070312 6.664062 -2.765625 7.59375 -2.765625 Z M 7.59375 -2.765625 "/></g></g></g><g fill="#1b1b1b" fill-opacity="1"><g transform="translate(72.631028, 64.084945)"><g><path d="M 1.65625 -12.375 L 5.25 -12.375 L 5.25 0 L 1.65625 0 Z M 3.4375 -14.09375 C 2.78125 -14.09375 2.242188 -14.285156 1.828125 -14.671875 C 1.421875 -15.054688 1.21875 -15.53125 1.21875 -16.09375 C 1.21875 -16.664062 1.421875 -17.140625 1.828125 -17.515625 C 2.242188 -17.898438 2.78125 -18.09375 3.4375 -18.09375 C 4.101562 -18.09375 4.640625 -17.910156 5.046875 -17.546875 C 5.460938 -17.179688 5.671875 -16.722656 5.671875 -16.171875 C 5.671875 -15.566406 5.460938 -15.066406 5.046875 -14.671875 C 4.640625 -14.285156 4.101562 -14.09375 3.4375 -14.09375 Z M 3.4375 -14.09375 "/></g></g></g><g fill="#1b1b1b" fill-opacity="1"><g transform="translate(78.493447, 64.084945)"><g><path d="M 7.546875 0.1875 C 6.242188 0.1875 5.070312 -0.0820312 4.03125 -0.625 C 3 -1.175781 2.191406 -1.929688 1.609375 -2.890625 C 1.023438 -3.859375 0.734375 -4.957031 0.734375 -6.1875 C 0.734375 -7.414062 1.023438 -8.507812 1.609375 -9.46875 C 2.191406 -10.4375 3 -11.191406 4.03125 -11.734375 C 5.070312 -12.285156 6.242188 -12.5625 7.546875 -12.5625 C 8.847656 -12.5625 10.007812 -12.285156 11.03125 -11.734375 C 12.0625 -11.191406 12.867188 -10.4375 13.453125 -9.46875 C 14.035156 -8.507812 14.328125 -7.414062 14.328125 -6.1875 C 14.328125 -4.957031 14.035156 -3.859375 13.453125 -2.890625 C 12.867188 -1.929688 12.0625 -1.175781 11.03125 -0.625 C 10.007812 -0.0820312 8.847656 0.1875 7.546875 0.1875 Z M 7.546875 -2.765625 C 8.460938 -2.765625 9.210938 -3.070312 9.796875 -3.6875 C 10.390625 -4.3125 10.6875 -5.144531 10.6875 -6.1875 C 10.6875 -7.226562 10.390625 -8.054688 9.796875 -8.671875 C 9.210938 -9.296875 8.460938 -9.609375 7.546875 -9.609375 C 6.617188 -9.609375 5.859375 -9.296875 5.265625 -8.671875 C 4.671875 -8.054688 4.375 -7.226562 4.375 -6.1875 C 4.375 -5.144531 4.671875 -4.3125 5.265625 -3.6875 C 5.859375 -3.070312 6.617188 -2.765625 7.546875 -2.765625 Z M 7.546875 -2.765625 "/></g></g></g><g clip-path="url(#2d242cfc56)"><g clip-path="url(#714e13524e)"><g clip-path="url(#4ec6e18cc1)"><path fill="#ff9459" d="M 122.691406 29.789062 C 137.003906 23.460938 153.695312 29.851562 159.976562 44.058594 C 166.253906 58.261719 159.746094 74.90625 145.433594 81.234375 C 134.285156 86.164062 121.699219 83.367188 113.707031 75.175781 L 114.730469 74.722656 L 118.574219 73.023438 L 105.441406 65.164062 L 102.417969 80.167969 L 106.5 78.363281 L 106.597656 78.320312 C 116.503906 90.167969 133.476562 94.546875 148.402344 87.949219 C 166.453125 79.972656 174.660156 58.980469 166.742188 41.066406 C 158.820312 23.148438 137.773438 15.09375 119.722656 23.070312 C 107.742188 28.367188 100.109375 39.398438 98.640625 51.457031 L 106.128906 51.285156 C 107.582031 42.121094 113.53125 33.839844 122.691406 29.789062 Z M 122.691406 29.789062 " fill-opacity="1" fill-rule="nonzero"/></g></g></g><g fill="#1b1b1b" fill-opacity="1"><g transform="translate(111.471478, 64.180613)"><g><path d="M 9.09375 -10.3125 C 10.613281 -10.0625 11.78125 -9.492188 12.59375 -8.609375 C 13.40625 -7.722656 13.8125 -6.625 13.8125 -5.3125 C 13.8125 -4.300781 13.546875 -3.367188 13.015625 -2.515625 C 12.484375 -1.660156 11.675781 -0.976562 10.59375 -0.46875 C 9.507812 0.0390625 8.179688 0.296875 6.609375 0.296875 C 5.378906 0.296875 4.171875 0.132812 2.984375 -0.1875 C 1.804688 -0.507812 0.800781 -0.96875 -0.03125 -1.5625 L 1.546875 -4.640625 C 2.203125 -4.148438 2.960938 -3.765625 3.828125 -3.484375 C 4.703125 -3.210938 5.597656 -3.078125 6.515625 -3.078125 C 7.523438 -3.078125 8.316406 -3.269531 8.890625 -3.65625 C 9.472656 -4.050781 9.765625 -4.601562 9.765625 -5.3125 C 9.765625 -6.738281 8.679688 -7.453125 6.515625 -7.453125 L 4.671875 -7.453125 L 4.671875 -10.109375 L 8.25 -14.15625 L 0.84375 -14.15625 L 0.84375 -17.390625 L 13.015625 -17.390625 L 13.015625 -14.78125 Z M 9.09375 -10.3125 "/></g></g></g><g fill="#1b1b1b" fill-opacity="1"><g transform="translate(125.032748, 64.180613)"><g><path d="M 9.34375 -10.90625 C 10.445312 -10.90625 11.453125 -10.679688 12.359375 -10.234375 C 13.273438 -9.785156 14 -9.148438 14.53125 -8.328125 C 15.0625 -7.515625 15.328125 -6.566406 15.328125 -5.484375 C 15.328125 -4.328125 15.035156 -3.3125 14.453125 -2.4375 C 13.878906 -1.5625 13.085938 -0.882812 12.078125 -0.40625 C 11.078125 0.0625 9.96875 0.296875 8.75 0.296875 C 6.3125 0.296875 4.40625 -0.445312 3.03125 -1.9375 C 1.65625 -3.425781 0.96875 -5.554688 0.96875 -8.328125 C 0.96875 -10.296875 1.335938 -11.984375 2.078125 -13.390625 C 2.828125 -14.796875 3.867188 -15.863281 5.203125 -16.59375 C 6.535156 -17.320312 8.082031 -17.6875 9.84375 -17.6875 C 10.769531 -17.6875 11.65625 -17.582031 12.5 -17.375 C 13.351562 -17.164062 14.082031 -16.875 14.6875 -16.5 L 13.1875 -13.546875 C 12.332031 -14.117188 11.25 -14.40625 9.9375 -14.40625 C 8.457031 -14.40625 7.285156 -13.972656 6.421875 -13.109375 C 5.566406 -12.253906 5.109375 -11.003906 5.046875 -9.359375 C 6.066406 -10.390625 7.5 -10.90625 9.34375 -10.90625 Z M 8.515625 -2.703125 C 9.378906 -2.703125 10.078125 -2.929688 10.609375 -3.390625 C 11.148438 -3.859375 11.421875 -4.492188 11.421875 -5.296875 C 11.421875 -6.085938 11.148438 -6.71875 10.609375 -7.1875 C 10.078125 -7.664062 9.363281 -7.90625 8.46875 -7.90625 C 7.59375 -7.90625 6.875 -7.660156 6.3125 -7.171875 C 5.75 -6.679688 5.46875 -6.054688 5.46875 -5.296875 C 5.46875 -4.535156 5.738281 -3.910156 6.28125 -3.421875 C 6.832031 -2.941406 7.578125 -2.703125 8.515625 -2.703125 Z M 8.515625 -2.703125 "/></g></g></g><g fill="#1b1b1b" fill-opacity="1"><g transform="translate(139.71173, 64.180613)"><g><path d="M 8.421875 0.296875 C 6.984375 0.296875 5.695312 -0.0546875 4.5625 -0.765625 C 3.4375 -1.484375 2.554688 -2.515625 1.921875 -3.859375 C 1.285156 -5.210938 0.96875 -6.820312 0.96875 -8.6875 C 0.96875 -10.5625 1.285156 -12.171875 1.921875 -13.515625 C 2.554688 -14.867188 3.4375 -15.898438 4.5625 -16.609375 C 5.695312 -17.328125 6.984375 -17.6875 8.421875 -17.6875 C 9.859375 -17.6875 11.140625 -17.328125 12.265625 -16.609375 C 13.398438 -15.898438 14.285156 -14.867188 14.921875 -13.515625 C 15.554688 -12.171875 15.875 -10.5625 15.875 -8.6875 C 15.875 -6.820312 15.554688 -5.210938 14.921875 -3.859375 C 14.285156 -2.515625 13.398438 -1.484375 12.265625 -0.765625 C 11.140625 -0.0546875 9.859375 0.296875 8.421875 0.296875 Z M 8.421875 -3.109375 C 9.484375 -3.109375 10.316406 -3.5625 10.921875 -4.46875 C 11.523438 -5.382812 11.828125 -6.789062 11.828125 -8.6875 C 11.828125 -10.59375 11.523438 -12 10.921875 -12.90625 C 10.316406 -13.820312 9.484375 -14.28125 8.421875 -14.28125 C 7.378906 -14.28125 6.554688 -13.820312 5.953125 -12.90625 C 5.347656 -12 5.046875 -10.59375 5.046875 -8.6875 C 5.046875 -6.789062 5.347656 -5.382812 5.953125 -4.46875 C 6.554688 -3.5625 7.378906 -3.109375 8.421875 -3.109375 Z M 8.421875 -3.109375 "/></g></g></g></svg>