<svg xmlns="http://www.w3.org/2000/svg" xmlns:xlink="http://www.w3.org/1999/xlink" width="500" zoomAndPan="magnify" viewBox="0 0 375 374.999991" height="500" preserveAspectRatio="xMidYMid meet" version="1.0"><defs><g/><clipPath id="b4a59dea20"><path d="M 37.628906 44.644531 L 337.988281 44.644531 L 337.988281 345 L 37.628906 345 Z M 37.628906 44.644531 " clip-rule="nonzero"/></clipPath><clipPath id="d1585b6ad7"><path d="M 187.628906 344.644531 C 147.578125 344.644531 109.871094 329.054688 81.574219 300.699219 C 53.214844 272.402344 37.628906 234.691406 37.628906 194.644531 C 37.628906 154.597656 53.214844 116.886719 81.574219 88.589844 C 109.871094 60.230469 147.578125 44.644531 187.628906 44.644531 C 227.675781 44.644531 265.386719 60.230469 293.683594 88.589844 C 322.039062 116.945312 337.628906 154.597656 337.628906 194.644531 C 337.628906 234.691406 322.039062 272.402344 293.683594 300.699219 C 265.386719 329.054688 227.675781 344.644531 187.628906 344.644531 M 187.628906 53.636719 C 149.976562 53.636719 114.546875 68.324219 87.925781 94.945312 C 61.308594 121.5625 46.621094 156.996094 46.621094 194.644531 C 46.621094 232.292969 61.308594 267.726562 87.925781 294.34375 C 114.546875 320.964844 149.976562 335.652344 187.628906 335.652344 C 225.277344 335.652344 260.710938 320.964844 287.328125 294.34375 C 313.945312 267.726562 328.636719 232.292969 328.636719 194.644531 C 328.636719 156.996094 313.945312 121.5625 287.328125 94.945312 C 260.710938 68.324219 225.277344 53.636719 187.628906 53.636719 " clip-rule="nonzero"/></clipPath></defs><g clip-path="url(#b4a59dea20)"><g clip-path="url(#d1585b6ad7)"><path fill="#737373" d="M 37.628906 44.644531 L 337.386719 44.644531 L 337.386719 344.40625 L 37.628906 344.40625 Z M 37.628906 44.644531 " fill-opacity="1" fill-rule="nonzero"/></g></g><path fill="#a6a6a6" d="M 218.164062 129.570312 C 217.558594 129.007812 216.613281 129.042969 216.050781 129.648438 L 203.910156 142.753906 L 203.078125 141.988281 L 215.222656 128.882812 C 215.785156 128.277344 215.75 127.332031 215.144531 126.769531 C 214.539062 126.207031 213.59375 126.242188 213.027344 126.847656 L 200.886719 139.957031 L 200.058594 139.1875 L 212.203125 126.082031 C 212.761719 125.476562 212.726562 124.53125 212.121094 123.96875 C 211.519531 123.410156 210.570312 123.445312 210.007812 124.050781 L 197.867188 137.15625 L 197.039062 136.386719 L 209.179688 123.285156 C 209.742188 122.675781 209.707031 121.730469 209.101562 121.167969 C 208.496094 120.609375 207.550781 120.644531 206.988281 121.25 L 194.847656 134.355469 L 194.839844 134.351562 L 194.460938 134.746094 C 194.125 135.113281 193.820312 135.480469 193.546875 135.855469 L 193.535156 135.867188 C 192.507812 137.261719 191.921875 138.714844 191.925781 140.410156 C 191.929688 142.195312 192.554688 143.878906 193.695312 145.265625 C 192.929688 146.078125 189.511719 149.410156 185.394531 153.40625 C 180.472656 148.175781 176.125 143.53125 175.25 142.511719 C 176.523438 141.101562 177.273438 139.34375 177.363281 137.457031 C 177.449219 135.65625 176.898438 134.089844 175.882812 132.566406 L 175.886719 132.566406 L 175.867188 132.546875 C 175.597656 132.136719 175.292969 131.734375 174.957031 131.328125 L 174.574219 130.894531 L 174.566406 130.898438 L 173.078125 129.34375 C 164.875 122.179688 160.796875 121.558594 158.410156 123.605469 C 155.613281 126 154.664062 130.164062 160.9375 139.773438 L 162.316406 141.613281 L 162.320312 141.617188 L 162.46875 141.796875 C 164.148438 143.832031 165.765625 144.984375 168.09375 145.277344 C 169.863281 145.496094 171.613281 145.117188 173.160156 144.214844 C 174.03125 145.273438 177.992188 150.464844 182.417969 156.289062 C 176.332031 162.183594 169.753906 168.535156 168.046875 170.230469 C 166.847656 171.375 166.1875 172.152344 166.1875 172.152344 C 165.023438 173.40625 165.105469 175.375 166.371094 176.546875 C 167.636719 177.722656 169.605469 177.652344 170.769531 176.398438 C 170.769531 176.398438 171.59375 175.527344 172.316406 174.679688 L 172.320312 174.683594 C 173.382812 173.460938 179.3125 166.347656 184.9375 159.605469 C 190.210938 166.558594 195.445312 173.46875 196.445312 174.726562 L 196.445312 174.71875 C 197.171875 175.652344 198 176.617188 198 176.617188 C 199.171875 178.007812 201.253906 178.175781 202.652344 176.996094 C 204.050781 175.8125 204.234375 173.730469 203.0625 172.347656 C 203.0625 172.347656 202.402344 171.488281 201.1875 170.21875 C 199.578125 168.464844 193.679688 162.210938 187.894531 156.066406 C 191.664062 151.566406 194.824219 147.808594 195.589844 146.964844 C 197.003906 147.882812 198.636719 148.316406 200.3125 148.183594 C 202.519531 148.011719 204.089844 147 205.761719 145.15625 L 205.910156 144.988281 L 205.917969 144.984375 L 218.246094 131.679688 C 218.804688 131.074219 218.769531 130.128906 218.164062 129.570312 " fill-opacity="1" fill-rule="nonzero"/><g fill="#545454" fill-opacity="1"><g transform="translate(105.765597, 215.73006)"><g><path d="M 11.25 -19.9375 C 12.71875 -19.9375 14.160156 -19.632812 15.578125 -19.03125 C 17.003906 -18.4375 18.210938 -17.628906 19.203125 -16.609375 L 16.296875 -13.171875 C 15.660156 -13.953125 14.894531 -14.570312 14 -15.03125 C 13.101562 -15.5 12.210938 -15.734375 11.328125 -15.734375 C 9.765625 -15.734375 8.453125 -15.179688 7.390625 -14.078125 C 6.335938 -12.984375 5.8125 -11.625 5.8125 -10 C 5.8125 -8.34375 6.335938 -6.957031 7.390625 -5.84375 C 8.453125 -4.738281 9.765625 -4.1875 11.328125 -4.1875 C 12.160156 -4.1875 13.019531 -4.390625 13.90625 -4.796875 C 14.800781 -5.210938 15.597656 -5.78125 16.296875 -6.5 L 19.234375 -3.390625 C 18.160156 -2.296875 16.894531 -1.421875 15.4375 -0.765625 C 13.976562 -0.109375 12.523438 0.21875 11.078125 0.21875 C 8.097656 0.21875 5.617188 -0.75 3.640625 -2.6875 C 1.660156 -4.625 0.671875 -7.039062 0.671875 -9.9375 C 0.671875 -12.78125 1.675781 -15.15625 3.6875 -17.0625 C 5.707031 -18.976562 8.226562 -19.9375 11.25 -19.9375 Z M 11.25 -19.9375 "/></g></g></g><g fill="#545454" fill-opacity="1"><g transform="translate(127.286723, 215.73006)"><g><path d="M 11.359375 -19.9375 C 14.429688 -19.9375 16.984375 -18.976562 19.015625 -17.0625 C 21.046875 -15.15625 22.0625 -12.773438 22.0625 -9.921875 C 22.0625 -7.035156 21.039062 -4.625 19 -2.6875 C 16.957031 -0.75 14.410156 0.21875 11.359375 0.21875 C 8.304688 0.21875 5.757812 -0.742188 3.71875 -2.671875 C 1.6875 -4.597656 0.671875 -7.015625 0.671875 -9.921875 C 0.671875 -12.796875 1.6875 -15.179688 3.71875 -17.078125 C 5.757812 -18.984375 8.304688 -19.9375 11.359375 -19.9375 Z M 11.40625 -15.734375 C 9.863281 -15.734375 8.546875 -15.171875 7.453125 -14.046875 C 6.359375 -12.929688 5.8125 -11.546875 5.8125 -9.890625 C 5.8125 -8.234375 6.363281 -6.832031 7.46875 -5.6875 C 8.570312 -4.550781 9.882812 -3.984375 11.40625 -3.984375 C 12.9375 -3.984375 14.234375 -4.550781 15.296875 -5.6875 C 16.359375 -6.832031 16.890625 -8.234375 16.890625 -9.890625 C 16.890625 -11.546875 16.359375 -12.929688 15.296875 -14.046875 C 14.234375 -15.171875 12.9375 -15.734375 11.40625 -15.734375 Z M 11.40625 -15.734375 "/></g></g></g><g fill="#545454" fill-opacity="1"><g transform="translate(151.999216, 215.73006)"><g><path d="M 23.703125 0 L 19.265625 0 L 19.234375 -12.859375 L 14.5 -1.984375 L 11.21875 -1.984375 L 6.46875 -12.859375 L 6.46875 0 L 1.984375 0 L 1.984375 -19.796875 L 7.484375 -19.796875 L 12.859375 -8.015625 L 18.21875 -19.796875 L 23.703125 -19.796875 Z M 23.703125 0 "/></g></g></g><g fill="#545454" fill-opacity="1"><g transform="translate(179.677145, 215.73006)"><g><path d="M 17.453125 -15.8125 L 7 -15.8125 L 7 -11.890625 L 16.4375 -11.890625 L 16.4375 -7.9375 L 7 -7.9375 L 7 -3.953125 L 17.765625 -3.953125 L 17.765625 0 L 1.984375 0 L 1.984375 -19.78125 L 17.453125 -19.78125 Z M 17.453125 -15.8125 "/></g></g></g><g fill="#545454" fill-opacity="1"><g transform="translate(200.689916, 215.73006)"><g><path d="M 1.984375 -19.78125 L 10.484375 -19.78125 C 13.585938 -19.78125 16.113281 -18.863281 18.0625 -17.03125 C 20.007812 -15.207031 20.984375 -12.828125 20.984375 -9.890625 C 20.984375 -6.972656 19.992188 -4.59375 18.015625 -2.75 C 16.046875 -0.914062 13.46875 0 10.28125 0 L 1.984375 0 Z M 7 -15.765625 L 7 -4.015625 L 10.59375 -4.015625 C 12.132812 -4.015625 13.398438 -4.554688 14.390625 -5.640625 C 15.378906 -6.722656 15.875 -8.128906 15.875 -9.859375 C 15.875 -11.585938 15.351562 -13.003906 14.3125 -14.109375 C 13.28125 -15.210938 11.96875 -15.765625 10.375 -15.765625 Z M 7 -15.765625 "/></g></g></g><g fill="#545454" fill-opacity="1"><g transform="translate(224.329208, 215.73006)"><g><path d="M 11.359375 -19.9375 C 14.429688 -19.9375 16.984375 -18.976562 19.015625 -17.0625 C 21.046875 -15.15625 22.0625 -12.773438 22.0625 -9.921875 C 22.0625 -7.035156 21.039062 -4.625 19 -2.6875 C 16.957031 -0.75 14.410156 0.21875 11.359375 0.21875 C 8.304688 0.21875 5.757812 -0.742188 3.71875 -2.671875 C 1.6875 -4.597656 0.671875 -7.015625 0.671875 -9.921875 C 0.671875 -12.796875 1.6875 -15.179688 3.71875 -17.078125 C 5.757812 -18.984375 8.304688 -19.9375 11.359375 -19.9375 Z M 11.40625 -15.734375 C 9.863281 -15.734375 8.546875 -15.171875 7.453125 -14.046875 C 6.359375 -12.929688 5.8125 -11.546875 5.8125 -9.890625 C 5.8125 -8.234375 6.363281 -6.832031 7.46875 -5.6875 C 8.570312 -4.550781 9.882812 -3.984375 11.40625 -3.984375 C 12.9375 -3.984375 14.234375 -4.550781 15.296875 -5.6875 C 16.359375 -6.832031 16.890625 -8.234375 16.890625 -9.890625 C 16.890625 -11.546875 16.359375 -12.929688 15.296875 -14.046875 C 14.234375 -15.171875 12.9375 -15.734375 11.40625 -15.734375 Z M 11.40625 -15.734375 "/></g></g></g><g fill="#545454" fill-opacity="1"><g transform="translate(249.041704, 215.73006)"><g><path d="M 13.90625 0 L 10.96875 -5.5625 L 7 -5.5625 L 7 0 L 1.984375 0 L 1.984375 -19.78125 L 10.8125 -19.78125 C 13.4375 -19.78125 15.460938 -19.179688 16.890625 -17.984375 C 18.328125 -16.785156 19.046875 -15.082031 19.046875 -12.875 C 19.046875 -9.832031 17.847656 -7.71875 15.453125 -6.53125 L 19.609375 0 Z M 7 -9.515625 L 10.8125 -9.515625 C 11.90625 -9.515625 12.753906 -9.785156 13.359375 -10.328125 C 13.960938 -10.878906 14.265625 -11.675781 14.265625 -12.71875 C 14.265625 -13.726562 13.960938 -14.492188 13.359375 -15.015625 C 12.753906 -15.546875 11.90625 -15.8125 10.8125 -15.8125 L 7 -15.8125 Z M 7 -9.515625 "/></g></g></g><g fill="#545454" fill-opacity="1"><g transform="translate(135.542939, 248.730058)"><g><path d="M 20.234375 0 L 15.796875 0 L 6.6875 -12.171875 L 6.6875 0 L 1.984375 0 L 1.984375 -19.78125 L 6.40625 -19.78125 L 15.53125 -7.578125 L 15.53125 -19.78125 L 20.234375 -19.78125 Z M 20.234375 0 "/></g></g></g><g fill="#545454" fill-opacity="1"><g transform="translate(159.718831, 248.730058)"><g><path d="M 15.109375 -3.640625 L 6.46875 -3.640625 L 5.03125 0 L -0.140625 0 L 8.390625 -19.78125 L 13.5625 -19.78125 L 21.890625 0 L 16.53125 0 Z M 13.640625 -7.453125 L 10.8125 -14.78125 L 7.9375 -7.453125 Z M 13.640625 -7.453125 "/></g></g></g><g fill="#545454" fill-opacity="1"><g transform="translate(183.442852, 248.730058)"><g><path d="M 12.859375 0 L 7.65625 0 L -0.03125 -19.78125 L 5.34375 -19.78125 L 10.390625 -5.21875 L 15.453125 -19.78125 L 20.625 -19.78125 Z M 12.859375 0 "/></g></g></g><g fill="#545454" fill-opacity="1"><g transform="translate(206.008934, 248.730058)"><g><path d="M 9.4375 -24.6875 L 5.765625 -21.5 L 2.03125 -21.5 L 5.03125 -26.25 Z M 7 0 L 1.984375 0 L 1.984375 -19.78125 L 7 -19.78125 Z M 7 0 "/></g></g></g><g fill="#545454" fill-opacity="1"><g transform="translate(216.967464, 248.730058)"><g><path d="M 11.359375 -19.9375 C 14.429688 -19.9375 16.984375 -18.976562 19.015625 -17.0625 C 21.046875 -15.15625 22.0625 -12.773438 22.0625 -9.921875 C 22.0625 -7.035156 21.039062 -4.625 19 -2.6875 C 16.957031 -0.75 14.410156 0.21875 11.359375 0.21875 C 8.304688 0.21875 5.757812 -0.742188 3.71875 -2.671875 C 1.6875 -4.597656 0.671875 -7.015625 0.671875 -9.921875 C 0.671875 -12.796875 1.6875 -15.179688 3.71875 -17.078125 C 5.757812 -18.984375 8.304688 -19.9375 11.359375 -19.9375 Z M 11.40625 -15.734375 C 9.863281 -15.734375 8.546875 -15.171875 7.453125 -14.046875 C 6.359375 -12.929688 5.8125 -11.546875 5.8125 -9.890625 C 5.8125 -8.234375 6.363281 -6.832031 7.46875 -5.6875 C 8.570312 -4.550781 9.882812 -3.984375 11.40625 -3.984375 C 12.9375 -3.984375 14.234375 -4.550781 15.296875 -5.6875 C 16.359375 -6.832031 16.890625 -8.234375 16.890625 -9.890625 C 16.890625 -11.546875 16.359375 -12.929688 15.296875 -14.046875 C 14.234375 -15.171875 12.9375 -15.734375 11.40625 -15.734375 Z M 11.40625 -15.734375 "/></g></g></g><g fill="#a6a6a6" fill-opacity="1"><g transform="translate(148.168764, 274.92464)"><g><path d="M 1.109375 -8.40625 L 4.546875 -8.40625 C 5.804688 -8.40625 6.84375 -8.007812 7.65625 -7.21875 C 8.476562 -6.425781 8.890625 -5.421875 8.890625 -4.203125 C 8.890625 -2.984375 8.476562 -1.976562 7.65625 -1.1875 C 6.832031 -0.394531 5.785156 0 4.515625 0 L 1.109375 0 Z M 2.515625 -7.125 L 2.515625 -1.265625 L 4.578125 -1.265625 C 5.398438 -1.265625 6.085938 -1.539062 6.640625 -2.09375 C 7.191406 -2.644531 7.46875 -3.34375 7.46875 -4.1875 C 7.46875 -5.03125 7.179688 -5.726562 6.609375 -6.28125 C 6.046875 -6.84375 5.351562 -7.125 4.53125 -7.125 Z M 2.515625 -7.125 "/></g></g></g><g fill="#a6a6a6" fill-opacity="1"><g transform="translate(158.308781, 274.92464)"><g><path d="M 7.109375 -7.125 L 2.515625 -7.125 L 2.515625 -4.859375 L 6.625 -4.859375 L 6.625 -3.59375 L 2.515625 -3.59375 L 2.515625 -1.265625 L 7.25 -1.265625 L 7.25 0 L 1.109375 0 L 1.109375 -8.40625 L 7.109375 -8.40625 Z M 7.109375 -7.125 "/></g></g></g><g fill="#a6a6a6" fill-opacity="1"><g transform="translate(167.020794, 274.92464)"><g><path d="M 3.859375 -8.453125 C 4.953125 -8.453125 5.929688 -8.164062 6.796875 -7.59375 L 6.21875 -6.34375 C 5.363281 -6.863281 4.539062 -7.125 3.75 -7.125 C 3.332031 -7.125 3 -7.046875 2.75 -6.890625 C 2.507812 -6.742188 2.390625 -6.53125 2.390625 -6.25 C 2.390625 -5.96875 2.5 -5.726562 2.71875 -5.53125 C 2.945312 -5.34375 3.226562 -5.203125 3.5625 -5.109375 C 3.894531 -5.015625 4.257812 -4.894531 4.65625 -4.75 C 5.050781 -4.613281 5.414062 -4.46875 5.75 -4.3125 C 6.082031 -4.15625 6.359375 -3.910156 6.578125 -3.578125 C 6.796875 -3.242188 6.90625 -2.84375 6.90625 -2.375 C 6.90625 -1.632812 6.609375 -1.046875 6.015625 -0.609375 C 5.429688 -0.171875 4.675781 0.046875 3.75 0.046875 C 3.101562 0.046875 2.476562 -0.0703125 1.875 -0.3125 C 1.28125 -0.550781 0.757812 -0.875 0.3125 -1.28125 L 0.921875 -2.515625 C 1.347656 -2.117188 1.8125 -1.8125 2.3125 -1.59375 C 2.820312 -1.382812 3.304688 -1.28125 3.765625 -1.28125 C 4.265625 -1.28125 4.648438 -1.367188 4.921875 -1.546875 C 5.203125 -1.734375 5.34375 -1.984375 5.34375 -2.296875 C 5.34375 -2.585938 5.226562 -2.832031 5 -3.03125 C 4.78125 -3.226562 4.5 -3.367188 4.15625 -3.453125 C 3.820312 -3.546875 3.457031 -3.660156 3.0625 -3.796875 C 2.675781 -3.929688 2.3125 -4.070312 1.96875 -4.21875 C 1.632812 -4.363281 1.351562 -4.597656 1.125 -4.921875 C 0.90625 -5.253906 0.796875 -5.65625 0.796875 -6.125 C 0.796875 -6.832031 1.078125 -7.394531 1.640625 -7.8125 C 2.203125 -8.238281 2.941406 -8.453125 3.859375 -8.453125 Z M 3.859375 -8.453125 "/></g></g></g><g fill="#a6a6a6" fill-opacity="1"><g transform="translate(175.324814, 274.92464)"><g><path d="M 1.109375 -8.40625 L 4.546875 -8.40625 C 5.804688 -8.40625 6.84375 -8.007812 7.65625 -7.21875 C 8.476562 -6.425781 8.890625 -5.421875 8.890625 -4.203125 C 8.890625 -2.984375 8.476562 -1.976562 7.65625 -1.1875 C 6.832031 -0.394531 5.785156 0 4.515625 0 L 1.109375 0 Z M 2.515625 -7.125 L 2.515625 -1.265625 L 4.578125 -1.265625 C 5.398438 -1.265625 6.085938 -1.539062 6.640625 -2.09375 C 7.191406 -2.644531 7.46875 -3.34375 7.46875 -4.1875 C 7.46875 -5.03125 7.179688 -5.726562 6.609375 -6.28125 C 6.046875 -6.84375 5.351562 -7.125 4.53125 -7.125 Z M 2.515625 -7.125 "/></g></g></g><g fill="#a6a6a6" fill-opacity="1"><g transform="translate(185.46483, 274.92464)"><g><path d="M 7.109375 -7.125 L 2.515625 -7.125 L 2.515625 -4.859375 L 6.625 -4.859375 L 6.625 -3.59375 L 2.515625 -3.59375 L 2.515625 -1.265625 L 7.25 -1.265625 L 7.25 0 L 1.109375 0 L 1.109375 -8.40625 L 7.109375 -8.40625 Z M 7.109375 -7.125 "/></g></g></g><g fill="#a6a6a6" fill-opacity="1"><g transform="translate(194.176842, 274.92464)"><g/></g></g><g fill="#a6a6a6" fill-opacity="1"><g transform="translate(198.112848, 274.92464)"><g><path d="M 3.21875 0 L 1.796875 0 L 1.796875 -7.140625 L 0.15625 -7.140625 L 0.15625 -8.40625 L 3.21875 -8.40625 Z M 3.21875 0 "/></g></g></g><g fill="#a6a6a6" fill-opacity="1"><g transform="translate(203.596862, 274.92464)"><g><path d="M 3.25 0.0625 C 2.332031 0.0625 1.5 -0.148438 0.75 -0.578125 L 1.296875 -1.640625 C 1.835938 -1.285156 2.457031 -1.109375 3.15625 -1.109375 C 3.945312 -1.109375 4.539062 -1.378906 4.9375 -1.921875 C 5.332031 -2.472656 5.519531 -3.21875 5.5 -4.15625 C 5.050781 -3.363281 4.285156 -2.96875 3.203125 -2.96875 C 2.359375 -2.96875 1.695312 -3.207031 1.21875 -3.6875 C 0.738281 -4.175781 0.5 -4.828125 0.5 -5.640625 C 0.5 -6.503906 0.765625 -7.1875 1.296875 -7.6875 C 1.835938 -8.195312 2.554688 -8.453125 3.453125 -8.453125 C 4.515625 -8.453125 5.347656 -8.09375 5.953125 -7.375 C 6.566406 -6.65625 6.875 -5.65625 6.875 -4.375 C 6.875 -3.03125 6.546875 -1.953125 5.890625 -1.140625 C 5.234375 -0.335938 4.351562 0.0625 3.25 0.0625 Z M 3.46875 -4.078125 C 4.019531 -4.078125 4.457031 -4.226562 4.78125 -4.53125 C 5.113281 -4.84375 5.273438 -5.222656 5.265625 -5.671875 C 5.273438 -6.078125 5.128906 -6.4375 4.828125 -6.75 C 4.523438 -7.070312 4.09375 -7.234375 3.53125 -7.234375 C 3.007812 -7.234375 2.59375 -7.09375 2.28125 -6.8125 C 1.976562 -6.53125 1.828125 -6.132812 1.828125 -5.625 C 1.828125 -5.144531 1.972656 -4.765625 2.265625 -4.484375 C 2.554688 -4.210938 2.957031 -4.078125 3.46875 -4.078125 Z M 3.46875 -4.078125 "/></g></g></g><g fill="#a6a6a6" fill-opacity="1"><g transform="translate(211.816884, 274.92464)"><g><path d="M 3.25 0.0625 C 2.332031 0.0625 1.5 -0.148438 0.75 -0.578125 L 1.296875 -1.640625 C 1.835938 -1.285156 2.457031 -1.109375 3.15625 -1.109375 C 3.945312 -1.109375 4.539062 -1.378906 4.9375 -1.921875 C 5.332031 -2.472656 5.519531 -3.21875 5.5 -4.15625 C 5.050781 -3.363281 4.285156 -2.96875 3.203125 -2.96875 C 2.359375 -2.96875 1.695312 -3.207031 1.21875 -3.6875 C 0.738281 -4.175781 0.5 -4.828125 0.5 -5.640625 C 0.5 -6.503906 0.765625 -7.1875 1.296875 -7.6875 C 1.835938 -8.195312 2.554688 -8.453125 3.453125 -8.453125 C 4.515625 -8.453125 5.347656 -8.09375 5.953125 -7.375 C 6.566406 -6.65625 6.875 -5.65625 6.875 -4.375 C 6.875 -3.03125 6.546875 -1.953125 5.890625 -1.140625 C 5.234375 -0.335938 4.351562 0.0625 3.25 0.0625 Z M 3.46875 -4.078125 C 4.019531 -4.078125 4.457031 -4.226562 4.78125 -4.53125 C 5.113281 -4.84375 5.273438 -5.222656 5.265625 -5.671875 C 5.273438 -6.078125 5.128906 -6.4375 4.828125 -6.75 C 4.523438 -7.070312 4.09375 -7.234375 3.53125 -7.234375 C 3.007812 -7.234375 2.59375 -7.09375 2.28125 -6.8125 C 1.976562 -6.53125 1.828125 -6.132812 1.828125 -5.625 C 1.828125 -5.144531 1.972656 -4.765625 2.265625 -4.484375 C 2.554688 -4.210938 2.957031 -4.078125 3.46875 -4.078125 Z M 3.46875 -4.078125 "/></g></g></g><g fill="#a6a6a6" fill-opacity="1"><g transform="translate(220.036906, 274.92464)"><g><path d="M 3.453125 -8.453125 C 4.253906 -8.453125 4.898438 -8.257812 5.390625 -7.875 C 5.878906 -7.5 6.125 -6.988281 6.125 -6.34375 C 6.125 -5.613281 5.613281 -4.695312 4.59375 -3.59375 L 2.40625 -1.265625 L 6.515625 -1.265625 L 6.515625 0 L 0.546875 0 L 0.546875 -1.03125 L 3.640625 -4.359375 C 4.316406 -5.054688 4.65625 -5.648438 4.65625 -6.140625 C 4.65625 -6.472656 4.53125 -6.734375 4.28125 -6.921875 C 4.03125 -7.117188 3.6875 -7.21875 3.25 -7.21875 C 2.488281 -7.21875 1.722656 -6.867188 0.953125 -6.171875 L 0.390625 -7.265625 C 1.378906 -8.054688 2.398438 -8.453125 3.453125 -8.453125 Z M 3.453125 -8.453125 "/></g></g></g></svg>