<svg xmlns="http://www.w3.org/2000/svg" xmlns:xlink="http://www.w3.org/1999/xlink" zoomAndPan="magnify" preserveAspectRatio="xMidYMid meet" version="1.0" viewBox="34.79 139.51 300.26 99.48"><defs><g/></defs><g fill="#a6a6a6" fill-opacity="1"><g transform="translate(33.480497, 209.584145)"><g><path d="M 18.382812 1.304688 C 26.222656 1.304688 32.378906 -3.453125 34.339844 -10.171875 L 35.460938 -10.171875 C 36.484375 -3.640625 41.058594 1.304688 47.683594 1.304688 C 54.496094 1.304688 58.042969 -4.480469 58.789062 -12.132812 L 57.855469 -12.132812 C 57.390625 -10.453125 56.550781 -9.238281 54.960938 -9.238281 C 52.535156 -9.238281 51.230469 -11.757812 50.484375 -15.863281 L 47.402344 -33.5 C 45.164062 -45.722656 37.605469 -52.628906 23.980469 -52.628906 C 14.089844 -52.628906 6.34375 -47.964844 6.34375 -41.339844 C 6.34375 -36.578125 10.359375 -32.941406 15.210938 -32.941406 C 20.15625 -32.941406 23.140625 -36.765625 23.140625 -40.59375 C 23.140625 -41.617188 22.863281 -42.738281 22.394531 -43.484375 L 21.367188 -43.390625 C 21.648438 -41.523438 19.96875 -40.3125 17.636719 -40.3125 C 15.304688 -40.3125 13.25 -42.085938 13.25 -44.882812 C 13.25 -48.152344 15.675781 -50.390625 19.691406 -50.390625 C 24.636719 -50.390625 27.996094 -46.9375 29.019531 -40.964844 L 31.632812 -25.941406 L 30.515625 -25.941406 C 28.460938 -28.925781 23.328125 -31.445312 18.382812 -31.445312 C 8.117188 -31.445312 1.304688 -25.101562 1.304688 -15.117188 C 1.304688 -4.945312 8.117188 1.304688 18.382812 1.304688 Z M 25.847656 -5.878906 C 21.277344 -5.878906 18.289062 -9.984375 18.289062 -16.144531 C 18.289062 -22.300781 21.277344 -26.316406 25.847656 -26.316406 C 30.328125 -26.316406 33.5 -22.117188 33.5 -16.144531 C 33.5 -10.078125 30.328125 -5.878906 25.847656 -5.878906 Z M 25.847656 -5.878906 "/></g></g></g><g fill="#a6a6a6" fill-opacity="1"><g transform="translate(88.249811, 209.584145)"><g><path d="M 18.664062 1.304688 C 25.941406 1.304688 29.488281 -4.199219 30.421875 -12.039062 L 29.488281 -12.222656 C 29.113281 -10.542969 27.996094 -9.238281 26.40625 -9.238281 C 23.886719 -9.238281 22.488281 -11.757812 22.488281 -15.957031 L 22.488281 -70.078125 L 21.554688 -70.078125 C 16.703125 -67 8.398438 -65.414062 1.773438 -65.320312 L 1.773438 -64.386719 C 3.453125 -62.894531 5.132812 -59.347656 5.132812 -48.710938 L 5.132812 -12.785156 C 5.132812 -4.292969 10.265625 1.304688 18.664062 1.304688 Z M 18.664062 1.304688 "/></g></g></g><g fill="#a6a6a6" fill-opacity="1"><g transform="translate(115.587524, 209.584145)"><g><path d="M 18.382812 1.304688 C 26.222656 1.304688 32.378906 -3.453125 34.339844 -10.171875 L 35.460938 -10.171875 C 36.484375 -3.640625 41.058594 1.304688 47.683594 1.304688 C 54.496094 1.304688 58.042969 -4.480469 58.789062 -12.132812 L 57.855469 -12.132812 C 57.390625 -10.453125 56.550781 -9.238281 54.960938 -9.238281 C 52.535156 -9.238281 51.230469 -11.757812 50.484375 -15.863281 L 47.402344 -33.5 C 45.164062 -45.722656 37.605469 -52.628906 23.980469 -52.628906 C 14.089844 -52.628906 6.34375 -47.964844 6.34375 -41.339844 C 6.34375 -36.578125 10.359375 -32.941406 15.210938 -32.941406 C 20.15625 -32.941406 23.140625 -36.765625 23.140625 -40.59375 C 23.140625 -41.617188 22.863281 -42.738281 22.394531 -43.484375 L 21.367188 -43.390625 C 21.648438 -41.523438 19.96875 -40.3125 17.636719 -40.3125 C 15.304688 -40.3125 13.25 -42.085938 13.25 -44.882812 C 13.25 -48.152344 15.675781 -50.390625 19.691406 -50.390625 C 24.636719 -50.390625 27.996094 -46.9375 29.019531 -40.964844 L 31.632812 -25.941406 L 30.515625 -25.941406 C 28.460938 -28.925781 23.328125 -31.445312 18.382812 -31.445312 C 8.117188 -31.445312 1.304688 -25.101562 1.304688 -15.117188 C 1.304688 -4.945312 8.117188 1.304688 18.382812 1.304688 Z M 25.847656 -5.878906 C 21.277344 -5.878906 18.289062 -9.984375 18.289062 -16.144531 C 18.289062 -22.300781 21.277344 -26.316406 25.847656 -26.316406 C 30.328125 -26.316406 33.5 -22.117188 33.5 -16.144531 C 33.5 -10.078125 30.328125 -5.878906 25.847656 -5.878906 Z M 25.847656 -5.878906 "/></g></g></g><g fill="#a6a6a6" fill-opacity="1"><g transform="translate(170.356838, 209.584145)"><g><path d="M 25.382812 1.304688 C 39.003906 1.304688 49.738281 -3.734375 49.738281 -14.558594 C 49.738281 -32.101562 19.96875 -33.59375 19.96875 -43.953125 C 19.96875 -47.777344 23.046875 -50.484375 29.675781 -50.484375 C 37.046875 -50.484375 41.992188 -43.578125 43.019531 -36.859375 L 43.859375 -36.859375 L 45.816406 -49.269531 C 42.085938 -50.578125 34.152344 -52.628906 25.101562 -52.628906 C 13.8125 -52.628906 4.292969 -48.429688 4.292969 -38.726562 C 4.292969 -23.328125 32.472656 -25.476562 32.472656 -10.265625 C 32.472656 -4.386719 26.96875 -0.652344 21.835938 -0.652344 C 14.929688 -0.652344 11.382812 -4.292969 11.382812 -8.304688 C 11.382812 -11.476562 13.34375 -13.625 16.421875 -13.625 C 19.035156 -13.625 20.902344 -12.039062 20.902344 -10.078125 L 21.929688 -10.078125 C 22.394531 -10.824219 22.769531 -12.222656 22.769531 -13.34375 C 22.769531 -18.101562 18.382812 -22.394531 12.132812 -22.394531 C 5.691406 -22.394531 0.839844 -18.195312 0.839844 -11.945312 C 0.839844 -4.011719 8.957031 1.304688 25.382812 1.304688 Z M 25.382812 1.304688 "/></g></g></g><g fill="#a6a6a6" fill-opacity="1"><g transform="translate(217.195249, 209.584145)"><g><path d="M 45.257812 1.304688 C 59.628906 1.304688 63.640625 -14.558594 60.28125 -29.300781 L 59.160156 -29.300781 C 59.160156 -22.675781 55.054688 -17.078125 48.523438 -17.078125 C 41.433594 -17.078125 36.953125 -21.460938 35.179688 -29.019531 L 35.832031 -29.675781 C 37.699219 -28.085938 41.433594 -26.6875 44.324219 -26.6875 C 51.417969 -26.6875 56.457031 -31.539062 56.457031 -40.125 C 56.457031 -47.3125 50.578125 -52.628906 40.683594 -52.628906 C 32.101562 -52.628906 25.101562 -47.125 23.703125 -40.125 L 22.582031 -40.125 L 22.582031 -70.078125 L 21.554688 -70.078125 C 16.890625 -67 8.398438 -65.414062 1.773438 -65.320312 L 1.773438 -64.386719 C 3.546875 -62.894531 5.226562 -60.28125 5.226562 -49.644531 L 5.226562 -25.941406 C 5.226562 -11.664062 3.734375 -2.800781 1.773438 -1.027344 L 1.773438 0 L 26.035156 0 L 26.035156 -1.027344 C 24.074219 -2.800781 22.582031 -11.664062 22.582031 -25.941406 L 22.582031 -27.527344 C 22.582031 -36.484375 27.0625 -46.378906 33.78125 -46.378906 C 37.886719 -46.378906 39.9375 -43.390625 39.9375 -39.097656 C 39.9375 -35.179688 36.859375 -32.101562 34.152344 -32.007812 L 33.3125 -32.101562 C 33.035156 -34.152344 31.261719 -35.460938 29.675781 -35.460938 C 27.527344 -35.460938 26.128906 -33.964844 26.128906 -32.285156 C 26.128906 -30.328125 27.714844 -29.019531 29.859375 -29.019531 C 31.074219 -29.019531 31.632812 -29.488281 32.195312 -29.859375 L 32.941406 -29.207031 C 30.515625 -24.820312 29.019531 -20.996094 29.207031 -14.558594 C 29.394531 -5.972656 34.992188 1.304688 45.257812 1.304688 Z M 45.257812 1.304688 "/></g></g></g><g fill="#a6a6a6" fill-opacity="1"><g transform="translate(276.256589, 209.584145)"><g><path d="M 18.382812 1.304688 C 26.222656 1.304688 32.378906 -3.453125 34.339844 -10.171875 L 35.460938 -10.171875 C 36.484375 -3.640625 41.058594 1.304688 47.683594 1.304688 C 54.496094 1.304688 58.042969 -4.480469 58.789062 -12.132812 L 57.855469 -12.132812 C 57.390625 -10.453125 56.550781 -9.238281 54.960938 -9.238281 C 52.535156 -9.238281 51.230469 -11.757812 50.484375 -15.863281 L 47.402344 -33.5 C 45.164062 -45.722656 37.605469 -52.628906 23.980469 -52.628906 C 14.089844 -52.628906 6.34375 -47.964844 6.34375 -41.339844 C 6.34375 -36.578125 10.359375 -32.941406 15.210938 -32.941406 C 20.15625 -32.941406 23.140625 -36.765625 23.140625 -40.59375 C 23.140625 -41.617188 22.863281 -42.738281 22.394531 -43.484375 L 21.367188 -43.390625 C 21.648438 -41.523438 19.96875 -40.3125 17.636719 -40.3125 C 15.304688 -40.3125 13.25 -42.085938 13.25 -44.882812 C 13.25 -48.152344 15.675781 -50.390625 19.691406 -50.390625 C 24.636719 -50.390625 27.996094 -46.9375 29.019531 -40.964844 L 31.632812 -25.941406 L 30.515625 -25.941406 C 28.460938 -28.925781 23.328125 -31.445312 18.382812 -31.445312 C 8.117188 -31.445312 1.304688 -25.101562 1.304688 -15.117188 C 1.304688 -4.945312 8.117188 1.304688 18.382812 1.304688 Z M 25.847656 -5.878906 C 21.277344 -5.878906 18.289062 -9.984375 18.289062 -16.144531 C 18.289062 -22.300781 21.277344 -26.316406 25.847656 -26.316406 C 30.328125 -26.316406 33.5 -22.117188 33.5 -16.144531 C 33.5 -10.078125 30.328125 -5.878906 25.847656 -5.878906 Z M 25.847656 -5.878906 "/></g></g></g><g fill="#d9d9d9" fill-opacity="1"><g transform="translate(89.766136, 238.878676)"><g><path d="M 0.96875 -0.984375 L 0.96875 -11.59375 L 1.3125 -11.59375 C 1.894531 -11.59375 2.238281 -11.550781 2.34375 -11.46875 C 2.445312 -11.394531 2.5 -11.109375 2.5 -10.609375 L 2.5 0 L 2.125 0 C 1.539062 0 1.203125 -0.0351562 1.109375 -0.109375 C 1.015625 -0.191406 0.96875 -0.484375 0.96875 -0.984375 Z M 0.96875 -0.984375 "/></g></g></g><g fill="#d9d9d9" fill-opacity="1"><g transform="translate(103.752579, 238.878676)"><g><path d="M 4.765625 -3.546875 L 4.765625 -11.59375 L 5.125 -11.59375 C 5.707031 -11.59375 6.046875 -11.550781 6.140625 -11.46875 C 6.234375 -11.394531 6.28125 -11.109375 6.28125 -10.609375 L 6.28125 0 L 5.796875 0 C 5.265625 0 4.929688 -0.0351562 4.796875 -0.109375 C 4.671875 -0.191406 4.53125 -0.457031 4.375 -0.90625 L 2.296875 -7.859375 L 2.21875 -7.859375 L 2.21875 -0.984375 C 2.21875 -0.484375 2.171875 -0.191406 2.078125 -0.109375 C 1.984375 -0.0351562 1.644531 0 1.0625 0 L 0.71875 0 L 0.71875 -11.59375 L 1.078125 -11.59375 C 1.609375 -11.59375 1.929688 -11.554688 2.046875 -11.484375 C 2.160156 -11.410156 2.304688 -11.148438 2.484375 -10.703125 L 4.6875 -3.546875 Z M 4.765625 -3.546875 "/></g></g></g><g fill="#d9d9d9" fill-opacity="1"><g transform="translate(121.297448, 238.878676)"><g><path d="M 6.734375 -9.359375 C 6.828125 -8.742188 6.878906 -8.226562 6.890625 -7.8125 C 6.910156 -7.40625 6.921875 -6.863281 6.921875 -6.1875 L 6.921875 -4.796875 C 6.921875 -4.003906 6.894531 -3.425781 6.84375 -3.0625 C 6.789062 -2.707031 6.734375 -2.363281 6.671875 -2.03125 C 6.609375 -1.707031 6.523438 -1.457031 6.421875 -1.28125 C 6.328125 -1.113281 6.207031 -0.925781 6.0625 -0.71875 C 5.914062 -0.507812 5.753906 -0.351562 5.578125 -0.25 C 5.117188 -0.0078125 4.601562 0.109375 4.03125 0.109375 L 0.96875 0 L 0.96875 -11.625 L 4.03125 -11.796875 C 4.582031 -11.796875 5.050781 -11.679688 5.4375 -11.453125 C 5.820312 -11.234375 6.109375 -10.984375 6.296875 -10.703125 C 6.492188 -10.429688 6.640625 -9.984375 6.734375 -9.359375 Z M 4.03125 -1.328125 C 4.382812 -1.328125 4.644531 -1.445312 4.8125 -1.6875 C 4.914062 -1.832031 5 -1.96875 5.0625 -2.09375 C 5.132812 -2.21875 5.1875 -2.410156 5.21875 -2.671875 C 5.257812 -2.929688 5.289062 -3.148438 5.3125 -3.328125 C 5.34375 -3.515625 5.363281 -3.78125 5.375 -4.125 C 5.382812 -4.476562 5.390625 -4.757812 5.390625 -4.96875 L 5.390625 -6.8125 C 5.390625 -7.5625 5.367188 -8.054688 5.328125 -8.296875 C 5.296875 -8.546875 5.257812 -8.796875 5.21875 -9.046875 C 5.1875 -9.296875 5.132812 -9.484375 5.0625 -9.609375 C 5 -9.734375 4.914062 -9.859375 4.8125 -9.984375 C 4.644531 -10.234375 4.382812 -10.359375 4.03125 -10.359375 L 2.375 -10.359375 L 2.5 -9.953125 L 2.5 -1.71875 L 2.359375 -1.328125 Z M 4.03125 -1.328125 "/></g></g></g><g fill="#d9d9d9" fill-opacity="1"><g transform="translate(139.550788, 238.878676)"><g><path d="M 5.21875 -4.828125 L 5.21875 -11.59375 L 5.625 -11.59375 C 6.1875 -11.59375 6.519531 -11.550781 6.625 -11.46875 C 6.726562 -11.394531 6.78125 -11.109375 6.78125 -10.609375 L 6.78125 -4.828125 C 6.78125 -3.179688 6.738281 -2.210938 6.65625 -1.921875 C 6.582031 -1.640625 6.5 -1.367188 6.40625 -1.109375 C 6.3125 -0.847656 6.191406 -0.660156 6.046875 -0.546875 C 5.910156 -0.441406 5.742188 -0.320312 5.546875 -0.1875 C 5.203125 0.0078125 4.632812 0.109375 3.84375 0.109375 C 3.21875 0.109375 2.78125 0.0546875 2.53125 -0.046875 C 2.289062 -0.148438 2.097656 -0.238281 1.953125 -0.3125 C 1.816406 -0.382812 1.695312 -0.503906 1.59375 -0.671875 C 1.488281 -0.847656 1.398438 -0.988281 1.328125 -1.09375 C 1.253906 -1.195312 1.195312 -1.378906 1.15625 -1.640625 C 1.113281 -1.910156 1.078125 -2.117188 1.046875 -2.265625 C 1.023438 -2.421875 1.007812 -2.675781 1 -3.03125 C 0.988281 -3.394531 0.984375 -3.671875 0.984375 -3.859375 L 0.984375 -11.59375 L 1.375 -11.59375 C 1.945312 -11.59375 2.28125 -11.550781 2.375 -11.46875 C 2.476562 -11.394531 2.53125 -11.109375 2.53125 -10.609375 L 2.53125 -4.3125 C 2.53125 -3.144531 2.601562 -2.351562 2.75 -1.9375 C 2.894531 -1.53125 3.257812 -1.328125 3.84375 -1.328125 C 4.070312 -1.328125 4.265625 -1.347656 4.421875 -1.390625 C 4.578125 -1.441406 4.707031 -1.546875 4.8125 -1.703125 C 4.914062 -1.867188 4.992188 -2.019531 5.046875 -2.15625 C 5.109375 -2.289062 5.148438 -2.53125 5.171875 -2.875 C 5.203125 -3.375 5.21875 -4.023438 5.21875 -4.828125 Z M 5.21875 -4.828125 "/></g></g></g><g fill="#d9d9d9" fill-opacity="1"><g transform="translate(157.659208, 238.878676)"><g><path d="M 2.234375 -8.328125 L 2.234375 -0.984375 C 2.234375 -0.484375 2.179688 -0.191406 2.078125 -0.109375 C 1.984375 -0.0351562 1.648438 0 1.078125 0 L 0.71875 0 L 0.71875 -11.59375 L 1.09375 -11.59375 C 1.613281 -11.59375 1.9375 -11.554688 2.0625 -11.484375 C 2.1875 -11.410156 2.351562 -11.15625 2.5625 -10.71875 L 4.3125 -6.703125 L 4.640625 -6.703125 L 6.796875 -11.59375 L 7.046875 -11.59375 C 7.617188 -11.59375 7.957031 -11.550781 8.0625 -11.46875 C 8.164062 -11.394531 8.21875 -11.109375 8.21875 -10.609375 L 8.21875 0 L 7.859375 0 C 7.273438 0 6.9375 -0.0351562 6.84375 -0.109375 C 6.75 -0.191406 6.703125 -0.484375 6.703125 -0.984375 L 6.6875 -8.3125 L 6.640625 -8.3125 L 5.4375 -5.421875 L 5.015625 -4.625 L 3.953125 -4.625 L 3.515625 -5.421875 L 2.28125 -8.328125 Z M 2.234375 -8.328125 "/></g></g></g><g fill="#d9d9d9" fill-opacity="1"><g transform="translate(177.136261, 238.878676)"><g><path d="M 6.03125 -1.4375 L 6.03125 0 L 0.96875 0 L 0.96875 -11.59375 L 5.859375 -11.59375 L 5.859375 -10.234375 L 2.40625 -10.234375 L 2.546875 -9.828125 L 2.546875 -7.359375 L 2.40625 -6.953125 L 5.671875 -6.953125 L 5.671875 -5.53125 L 2.421875 -5.53125 L 2.546875 -5.15625 L 2.546875 -1.84375 L 2.40625 -1.4375 Z M 6.03125 -1.4375 "/></g></g></g><g fill="#d9d9d9" fill-opacity="1"><g transform="translate(194.165887, 238.878676)"><g><path d="M 4.765625 -3.546875 L 4.765625 -11.59375 L 5.125 -11.59375 C 5.707031 -11.59375 6.046875 -11.550781 6.140625 -11.46875 C 6.234375 -11.394531 6.28125 -11.109375 6.28125 -10.609375 L 6.28125 0 L 5.796875 0 C 5.265625 0 4.929688 -0.0351562 4.796875 -0.109375 C 4.671875 -0.191406 4.53125 -0.457031 4.375 -0.90625 L 2.296875 -7.859375 L 2.21875 -7.859375 L 2.21875 -0.984375 C 2.21875 -0.484375 2.171875 -0.191406 2.078125 -0.109375 C 1.984375 -0.0351562 1.644531 0 1.0625 0 L 0.71875 0 L 0.71875 -11.59375 L 1.078125 -11.59375 C 1.609375 -11.59375 1.929688 -11.554688 2.046875 -11.484375 C 2.160156 -11.410156 2.304688 -11.148438 2.484375 -10.703125 L 4.6875 -3.546875 Z M 4.765625 -3.546875 "/></g></g></g><g fill="#d9d9d9" fill-opacity="1"><g transform="translate(211.710754, 238.878676)"><g><path d="M 5.53125 -10.234375 L 3.5625 -10.234375 L 3.703125 -9.828125 L 3.703125 -0.984375 C 3.703125 -0.484375 3.648438 -0.191406 3.546875 -0.109375 C 3.453125 -0.0351562 3.113281 0 2.53125 0 L 2.140625 0 L 2.140625 -9.828125 L 2.25 -10.234375 L 0.328125 -10.234375 L 0.328125 -11.59375 L 5.53125 -11.59375 Z M 5.53125 -10.234375 "/></g></g></g><g fill="#d9d9d9" fill-opacity="1"><g transform="translate(228.080222, 238.878676)"><g><path d="M 6.421875 0 C 5.878906 0 5.550781 -0.0390625 5.4375 -0.125 C 5.320312 -0.207031 5.21875 -0.492188 5.125 -0.984375 L 4.578125 -3.703125 L 2.546875 -3.703125 L 1.890625 0 L 1.515625 0 C 0.992188 0 0.664062 -0.0234375 0.53125 -0.078125 C 0.394531 -0.140625 0.328125 -0.28125 0.328125 -0.5 C 0.328125 -0.726562 1.140625 -4.425781 2.765625 -11.59375 L 4.3125 -11.59375 L 6.953125 0 Z M 3.46875 -8.671875 L 2.875 -5.53125 L 2.734375 -5.25 L 4.390625 -5.25 C 4.378906 -5.257812 4.351562 -5.3125 4.3125 -5.40625 C 4.269531 -5.5 4.25 -5.550781 4.25 -5.5625 L 3.625 -8.671875 Z M 3.46875 -8.671875 "/></g></g></g><g fill="#d9d9d9" fill-opacity="1"><g transform="translate(245.882719, 238.878676)"><g><path d="M 1.359375 0 L 0.96875 0 L 0.96875 -11.609375 L 3.265625 -11.796875 C 4.234375 -11.796875 4.898438 -11.65625 5.265625 -11.375 C 5.410156 -11.269531 5.53125 -11.171875 5.625 -11.078125 C 5.71875 -10.992188 5.796875 -10.867188 5.859375 -10.703125 L 6 -10.25 C 6.070312 -10.039062 6.109375 -9.769531 6.109375 -9.4375 L 6.109375 -8.5 C 6.109375 -6.957031 5.882812 -5.992188 5.4375 -5.609375 C 5.25 -5.429688 5 -5.328125 4.6875 -5.296875 L 7.25 0 L 6.71875 0 C 6.175781 0 5.804688 -0.0507812 5.609375 -0.15625 C 5.421875 -0.257812 5.25 -0.492188 5.09375 -0.859375 L 3.109375 -5.25 L 2.359375 -5.25 L 2.5 -4.84375 L 2.515625 -0.984375 C 2.515625 -0.484375 2.460938 -0.191406 2.359375 -0.109375 C 2.265625 -0.0351562 1.929688 0 1.359375 0 Z M 3.296875 -6.6875 C 3.878906 -6.6875 4.234375 -6.800781 4.359375 -7.03125 C 4.484375 -7.269531 4.546875 -7.65625 4.546875 -8.1875 C 4.546875 -8.726562 4.539062 -9.070312 4.53125 -9.21875 C 4.53125 -9.363281 4.503906 -9.53125 4.453125 -9.71875 C 4.410156 -9.90625 4.347656 -10.03125 4.265625 -10.09375 C 4.046875 -10.269531 3.722656 -10.359375 3.296875 -10.359375 L 2.359375 -10.359375 L 2.5 -9.953125 L 2.5 -7.0625 L 2.375 -6.6875 Z M 3.296875 -6.6875 "/></g></g></g><g fill="#d9d9d9" fill-opacity="1"><g transform="translate(263.975037, 238.878676)"><g><path d="M 0.96875 -0.984375 L 0.96875 -11.59375 L 1.3125 -11.59375 C 1.894531 -11.59375 2.238281 -11.550781 2.34375 -11.46875 C 2.445312 -11.394531 2.5 -11.109375 2.5 -10.609375 L 2.5 0 L 2.125 0 C 1.539062 0 1.203125 -0.0351562 1.109375 -0.109375 C 1.015625 -0.191406 0.96875 -0.484375 0.96875 -0.984375 Z M 0.96875 -0.984375 "/></g></g></g><g fill="#d9d9d9" fill-opacity="1"><g transform="translate(277.961479, 238.878676)"><g><path d="M 6.421875 0 C 5.878906 0 5.550781 -0.0390625 5.4375 -0.125 C 5.320312 -0.207031 5.21875 -0.492188 5.125 -0.984375 L 4.578125 -3.703125 L 2.546875 -3.703125 L 1.890625 0 L 1.515625 0 C 0.992188 0 0.664062 -0.0234375 0.53125 -0.078125 C 0.394531 -0.140625 0.328125 -0.28125 0.328125 -0.5 C 0.328125 -0.726562 1.140625 -4.425781 2.765625 -11.59375 L 4.3125 -11.59375 L 6.953125 0 Z M 3.46875 -8.671875 L 2.875 -5.53125 L 2.734375 -5.25 L 4.390625 -5.25 C 4.378906 -5.257812 4.351562 -5.3125 4.3125 -5.40625 C 4.269531 -5.5 4.25 -5.550781 4.25 -5.5625 L 3.625 -8.671875 Z M 3.46875 -8.671875 "/></g></g></g></svg>